<svg width="18" height="20" viewBox="0 0 18 20" fill="none" xmlns="http://www.w3.org/2000/svg">
<g opacity="0.2">
<path d="M12.3047 12.9688C12.2584 12.9688 11.7529 12.9688 11.0324 12.9688C11.0972 12.7854 11.1328 12.5883 11.1328 12.3828V11.0469C11.1359 11.041 11.1384 11.0361 11.1414 11.0302C12.0906 10.3619 12.7183 9.33434 12.8554 8.1875C13.5586 7.95312 14.0625 7.29688 14.0625 6.52344C14.0625 5.76168 13.5704 5.10543 12.8906 4.87105C12.5742 4.54297 11.5078 3.24219 8.78906 3.24219C6.05855 3.24219 5.0273 4.53121 4.6875 4.87105C4.00777 5.10543 3.51562 5.76168 3.51562 6.52344C3.51562 7.29684 4.01953 7.95309 4.71098 8.1875C4.83988 9.25387 5.36723 10.2032 6.21094 10.8711C6.28125 10.9297 6.36328 10.9883 6.44531 11.0469V12.3828C6.44531 12.5883 6.48094 12.7854 6.54574 12.9688C5.81277 12.9688 5.30305 12.9688 5.27344 12.9688C4.30414 12.9688 3.51562 13.7573 3.51562 14.7266V20H14.0625V14.7266C14.0625 13.7573 13.274 12.9688 12.3047 12.9688Z" fill="black"/>
</g>
<path d="M6.81241 7.3927L6.81999 7.39062C8.10807 7.03285 9.46936 7.03285 10.7575 7.39062L10.7651 7.3927C11.0116 7.46121 11.2741 7.36172 11.4134 7.14707L12.8903 4.87106V2.92969C12.8903 1.31168 11.5786 0 9.96061 0H7.61686C5.99886 0 4.68718 1.31168 4.68718 2.92969V4.87106L6.16409 7.14707C6.30335 7.36172 6.56585 7.46121 6.81241 7.3927ZM17.566 19.2968L16.7457 15.2188C16.488 13.9063 15.6091 12.8164 14.3903 12.2773L11.3324 10.917C11.2462 10.973 11.2188 10.9908 11.1325 11.0469V11.2109C11.1325 12.1818 10.3455 12.9688 9.37472 12.9688H8.20284C7.23202 12.9688 6.44503 12.1818 6.44503 11.2109V11.0469C6.363 10.9883 6.28097 10.9297 6.21065 10.8711L3.55054 11.75C2.13253 12.2188 1.07784 13.4258 0.808309 14.914L0.0114339 19.3086C-0.0237614 19.4843 0.0231526 19.6601 0.14034 19.7891C0.245848 19.918 0.409832 20 0.585653 20H4.68722V14.7266C4.68722 14.403 4.94956 14.1406 5.27315 14.1406H7.03097V17.6562C7.03097 17.8594 7.13624 18.0477 7.30905 18.1546C7.48186 18.2622 7.69702 18.2708 7.87897 18.1804L8.78878 17.7255L9.69858 18.1804C9.78155 18.2216 9.87081 18.2422 9.96065 18.2422C10.0676 18.2422 10.1747 18.213 10.2685 18.1546C10.4413 18.0477 10.5466 17.8594 10.5466 17.6562V14.1406H12.3044C12.628 14.1406 12.8903 14.403 12.8903 14.7266V20H16.9919C17.1677 20 17.3317 19.918 17.4489 19.7891C17.5543 19.6484 17.6012 19.4727 17.566 19.2968Z" fill="black"/>
</svg>
