<svg width="24" height="24" viewBox="0 0 24 24" fill="none" xmlns="http://www.w3.org/2000/svg">
<path d="M22.5 12C22.5 17.799 17.799 22.5 12 22.5C6.20101 22.5 1.5 17.799 1.5 12C1.5 6.20101 6.20101 1.5 12 1.5C17.799 1.5 22.5 6.20101 22.5 12Z" fill="#3CC76B"/>
<path d="M16.5721 8.88689C16.2151 8.52989 15.6271 8.52989 15.2701 8.88689L10.9336 13.2234L9.09612 11.3859C8.73912 11.0289 8.15112 11.0289 7.79412 11.3859C7.43712 11.7429 7.43712 12.3204 7.79412 12.6879L10.2931 15.1764C10.4716 15.3549 10.7026 15.4389 10.9336 15.4389C11.1751 15.4389 11.4061 15.3549 11.5846 15.1764L16.5721 10.1889C16.9291 9.83189 16.9291 9.25439 16.5721 8.88689Z" fill="white"/>
</svg>
