<svg width="8" height="5" viewBox="0 0 8 5" fill="none" xmlns="http://www.w3.org/2000/svg">
<mask id="mask0_6601_79218" style="mask-type:alpha" maskUnits="userSpaceOnUse" x="0" y="0" width="8" height="5">
<path d="M0 0L7.5 0V5H0L0 0Z" fill="white"/>
</mask>
<g mask="url(#mask0_6601_79218)">
<path d="M7.5002 0.39741C7.5002 0.471593 7.47476 0.544717 7.42521 0.609362L4.16418 4.81449C4.0742 4.93 3.91835 5.00048 3.75012 5.00048C3.58188 5.00048 3.42603 4.93 3.33605 4.81449L0.0750234 0.609362C-0.0195274 0.48696 -0.0253961 0.332235 0.0613298 0.205593C0.147404 0.0784222 0.311074 0 0.489091 0L7.01114 0C7.18916 0 7.35283 0.0784222 7.4389 0.205593C7.47998 0.26547 7.5002 0.331705 7.5002 0.39741Z" fill="#999999"/>
</g>
</svg>
