<svg width="16" height="19" viewBox="0 0 16 19" fill="none" xmlns="http://www.w3.org/2000/svg">
<path d="M8 0C10.1217 0 12.1566 0.842855 13.6569 2.34315C15.1571 3.84344 16 5.87827 16 8C16 11.8227 13.42 15.3413 8.35733 18.5627C8.25049 18.6305 8.12655 18.6665 8 18.6665C7.87345 18.6665 7.74951 18.6305 7.64267 18.5627C2.58 15.3413 0 11.8227 0 8C0 5.87827 0.842855 3.84344 2.34315 2.34315C3.84344 0.842855 5.87827 0 8 0ZM8 5.33333C7.29276 5.33333 6.61448 5.61428 6.11438 6.11438C5.61428 6.61448 5.33333 7.29276 5.33333 8C5.33333 8.70724 5.61428 9.38552 6.11438 9.88562C6.61448 10.3857 7.29276 10.6667 8 10.6667C8.70724 10.6667 9.38552 10.3857 9.88562 9.88562C10.3857 9.38552 10.6667 8.70724 10.6667 8C10.6667 7.29276 10.3857 6.61448 9.88562 6.11438C9.38552 5.61428 8.70724 5.33333 8 5.33333Z" fill="#D69E77"/>
</svg>
