<svg width="16" height="16" viewBox="0 0 16 16" fill="none" xmlns="http://www.w3.org/2000/svg">
<path d="M8 14.125C6.37555 14.125 4.81763 13.4797 3.66897 12.331C2.52031 11.1824 1.875 9.62445 1.875 8C1.875 6.37555 2.52031 4.81763 3.66897 3.66897C4.81763 2.52031 6.37555 1.875 8 1.875C9.62445 1.875 11.1824 2.52031 12.331 3.66897C13.4797 4.81763 14.125 6.37555 14.125 8C14.125 9.62445 13.4797 11.1824 12.331 12.331C11.1824 13.4797 9.62445 14.125 8 14.125ZM8 15C9.85652 15 11.637 14.2625 12.9497 12.9497C14.2625 11.637 15 9.85652 15 8C15 6.14348 14.2625 4.36301 12.9497 3.05025C11.637 1.7375 9.85652 1 8 1C6.14348 1 4.36301 1.7375 3.05025 3.05025C1.7375 4.36301 1 6.14348 1 8C1 9.85652 1.7375 11.637 3.05025 12.9497C4.36301 14.2625 6.14348 15 8 15Z" fill="#737373"/>
<path d="M5.59784 6.06275C5.59664 6.09101 5.60124 6.11921 5.61134 6.14563C5.62145 6.17204 5.63685 6.19611 5.6566 6.21636C5.67635 6.2366 5.70004 6.25259 5.7262 6.26334C5.75236 6.27409 5.78044 6.27938 5.80872 6.27887H6.53059C6.65134 6.27887 6.74759 6.18 6.76334 6.06012C6.84209 5.48612 7.23584 5.06788 7.93759 5.06788C8.53784 5.06788 9.08734 5.368 9.08734 6.08987C9.08734 6.6455 8.76009 6.901 8.24297 7.2895C7.65409 7.71738 7.18772 8.217 7.22097 9.02813L7.22359 9.218C7.22451 9.27541 7.24796 9.33015 7.28889 9.37042C7.32981 9.41069 7.38493 9.43326 7.44234 9.43325H8.15197C8.20998 9.43325 8.26562 9.4102 8.30665 9.36918C8.34767 9.32816 8.37072 9.27252 8.37072 9.2145V9.12262C8.37072 8.49438 8.60959 8.3115 9.25447 7.82237C9.78734 7.41725 10.343 6.9675 10.343 6.02338C10.343 4.70125 9.22647 4.0625 8.00409 4.0625C6.89547 4.0625 5.68097 4.57875 5.59784 6.06275ZM6.96022 11.1054C6.96022 11.5717 7.33209 11.9165 7.84397 11.9165C8.37684 11.9165 8.74347 11.5717 8.74347 11.1054C8.74347 10.6224 8.37597 10.2829 7.84309 10.2829C7.33209 10.2829 6.96022 10.6224 6.96022 11.1054Z" fill="#737373"/>
</svg>
