<svg width="51" height="31" viewBox="0 0 51 31" fill="none" xmlns="http://www.w3.org/2000/svg">
<rect y="2" width="51" height="29" fill="#232536"/>
<path d="M9.21648 26.6C8.30982 26.6 7.59648 26.34 7.07648 25.82C6.56982 25.3 6.31648 24.5933 6.31648 23.7V19.4C6.31648 19.2933 6.28982 19.1933 6.23648 19.1C6.19648 18.9933 6.12982 18.9133 6.03648 18.86C5.95648 18.7933 5.86315 18.76 5.75648 18.76H4.79648V16.24H5.75648C5.91648 16.24 6.04982 16.18 6.15648 16.06C6.26315 15.9267 6.31648 15.7733 6.31648 15.6V11.3C6.31648 10.3933 6.56982 9.68667 7.07648 9.18C7.59648 8.66 8.30982 8.4 9.21648 8.4H11.6965V10.92H9.65648C9.48315 10.92 9.32982 10.98 9.19648 11.1C9.07648 11.22 9.01648 11.3733 9.01648 11.56V15.46C9.01648 15.7267 8.97648 15.9867 8.89648 16.24C8.82982 16.48 8.72315 16.7067 8.57648 16.92C8.44315 17.12 8.26315 17.3133 8.03648 17.5C8.26315 17.6733 8.44315 17.8667 8.57648 18.08C8.72315 18.2933 8.82982 18.52 8.89648 18.76C8.97648 19 9.01648 19.26 9.01648 19.54V23.44C9.01648 23.6133 9.07648 23.76 9.19648 23.88C9.32982 24.0133 9.48315 24.08 9.65648 24.08H11.6965V26.6H9.21648ZM13.2518 23V13.08C13.2518 12.32 13.4318 11.6333 13.7918 11.02C14.1651 10.4067 14.6585 9.92 15.2718 9.56C15.8985 9.18667 16.5851 9 17.3318 9H22.3918V11.52H17.6518C17.2251 11.52 16.8585 11.6733 16.5518 11.98C16.2585 12.2867 16.1118 12.6533 16.1118 13.08V15.34H21.7118V17.86H16.1118V23H13.2518ZM36.7674 23V13.08C36.7674 12.32 36.9474 11.6333 37.3074 11.02C37.6808 10.4067 38.1741 9.92 38.7874 9.56C39.4141 9.18667 40.1008 9 40.8474 9H45.9074V11.52H41.1674C40.7408 11.52 40.3741 11.6733 40.0674 11.98C39.7741 12.2867 39.6274 12.6533 39.6274 13.08V15.34H45.2274V17.86H39.6274V23H36.7674Z" fill="#315393"/>
<path d="M24.4679 23V20.48H30.4679C30.7612 20.48 31.0279 20.4067 31.2679 20.26C31.5079 20.1133 31.7012 19.92 31.8479 19.68C31.9946 19.4267 32.0679 19.1533 32.0679 18.86C32.0679 18.5533 31.9946 18.28 31.8479 18.04C31.7012 17.7867 31.5079 17.5867 31.2679 17.44C31.0279 17.2933 30.7612 17.22 30.4679 17.22H28.1279C27.3412 17.22 26.6279 17.06 25.9879 16.74C25.3479 16.42 24.8346 15.96 24.4479 15.36C24.0746 14.7467 23.8879 14.0133 23.8879 13.16C23.8879 12.32 24.0679 11.5933 24.4279 10.98C24.7879 10.3533 25.2746 9.86667 25.8879 9.52C26.5012 9.17333 27.1812 9 27.9279 9H34.0079V11.52H28.2079C27.9412 11.52 27.6946 11.5933 27.4679 11.74C27.2412 11.8733 27.0612 12.0533 26.9279 12.28C26.8079 12.5067 26.7479 12.76 26.7479 13.04C26.7479 13.32 26.8079 13.5733 26.9279 13.8C27.0612 14.0267 27.2412 14.2067 27.4679 14.34C27.6946 14.4733 27.9412 14.54 28.2079 14.54H30.6279C31.4946 14.54 32.2479 14.7067 32.8879 15.04C33.5279 15.3733 34.0212 15.84 34.3679 16.44C34.7279 17.04 34.9079 17.74 34.9079 18.54C34.9079 19.4867 34.7212 20.2933 34.3479 20.96C33.9879 21.6267 33.4946 22.1333 32.8679 22.48C32.2546 22.8267 31.5746 23 30.8279 23H24.4679Z" fill="#19C788"/>
</svg>
