<svg width="32" height="32" viewBox="0 0 32 32" fill="none" xmlns="http://www.w3.org/2000/svg">
<g clip-path="url(#clip0)">
<path d="M17.257 16L22.8507 10.4062C23.0174 10.2396 23.1111 10.0135 23.1111 9.77779C23.1111 9.54208 23.0174 9.31602 22.8507 9.14935C22.6841 8.98267 22.458 8.88904 22.2223 8.88904C21.9866 8.88904 21.7605 8.98267 21.5939 9.14935L16.0001 14.7431L10.4063 9.14935C10.3238 9.06682 10.2258 9.00135 10.118 8.95669C10.0101 8.91203 9.89457 8.88904 9.77785 8.88904C9.66114 8.88904 9.54557 8.91203 9.43774 8.95669C9.32991 9.00135 9.23194 9.06682 9.14941 9.14935C8.98274 9.31602 8.8891 9.54208 8.8891 9.77779C8.8891 10.0135 8.98274 10.2396 9.14941 10.4062L14.7432 16L9.14941 21.5938C8.98274 21.7605 8.8891 21.9865 8.8891 22.2222C8.8891 22.4579 8.98274 22.684 9.14941 22.8507C9.31608 23.0174 9.54214 23.111 9.77785 23.111C10.0136 23.111 10.2396 23.0174 10.4063 22.8507L16.0001 17.2569L21.5939 22.8507C21.6762 22.9335 21.7741 22.9992 21.882 23.0441C21.9898 23.089 22.1055 23.112 22.2223 23.112C22.3391 23.112 22.4548 23.089 22.5626 23.0441C22.6705 22.9992 22.7684 22.9335 22.8507 22.8507C22.9334 22.7682 22.9989 22.6702 23.0436 22.5624C23.0883 22.4546 23.1114 22.339 23.1114 22.2222C23.1114 22.1055 23.0883 21.9899 23.0436 21.8821C22.9989 21.7742 22.9334 21.6763 22.8507 21.5938L17.257 16Z" fill="#9799A0"/>
</g>
<defs>
<clipPath id="clip0">
<rect width="32" height="32" fill="white"/>
</clipPath>
</defs>
</svg>
