<svg width="48" height="48" viewBox="0 0 48 48" fill="none" xmlns="http://www.w3.org/2000/svg">
<path d="M45 24C45 35.598 35.598 45 24 45C12.402 45 3 35.598 3 24C3 12.402 12.402 3 24 3C35.598 3 45 12.402 45 24Z" fill="#0DD83A"/>
<path d="M33.1441 17.7748C32.4301 17.0608 31.2541 17.0608 30.5401 17.7748L21.8671 26.4478L18.1921 22.7728C17.4781 22.0588 16.3021 22.0588 15.5881 22.7728C14.8741 23.4868 14.8741 24.6418 15.5881 25.3768L20.5861 30.3538C20.9431 30.7108 21.4051 30.8788 21.8671 30.8788C22.3501 30.8788 22.8121 30.7108 23.1691 30.3538L33.1441 20.3788C33.8581 19.6648 33.8581 18.5098 33.1441 17.7748Z" fill="white"/>
</svg>
