<svg width="24" height="24" viewBox="0 0 24 24" fill="none" xmlns="http://www.w3.org/2000/svg">
<path d="M13.7277 1C14 1 14.2287 1.231 14.2287 1.506V5.048C14.2287 7.061 15.8624 8.711 17.8663 8.722C18.6832 8.722 19.3366 8.733 19.8376 8.733C20.1752 8.733 20.7307 8.722 21.199 8.722C21.4713 8.722 21.7 8.942 21.7 9.217V18.061C21.7 20.789 19.5 23 16.799 23H8.14059C5.29802 23 3 20.679 3 17.819V5.961C3 3.233 5.18911 1 7.91188 1H13.7277ZM11.9525 8.414C11.8436 8.414 11.7347 8.436 11.6366 8.48C11.5386 8.524 11.4515 8.579 11.3752 8.656L8.2604 11.824C7.94455 12.143 7.94455 12.66 8.2604 12.979C8.57624 13.298 9.08812 13.298 9.40396 12.979L11.1356 11.219V16.532C11.1356 16.983 11.495 17.346 11.9525 17.346C12.399 17.346 12.7584 16.983 12.7584 16.532V11.219L14.4901 12.979C14.8059 13.298 15.3178 13.298 15.6337 12.979C15.9604 12.66 15.9604 12.143 15.6446 11.824L12.5188 8.656C12.4426 8.579 12.3554 8.524 12.2574 8.48C12.1594 8.436 12.0614 8.414 11.9525 8.414ZM15.8098 1.9966C15.8098 1.5225 16.3783 1.2871 16.7039 1.6292C17.8823 2.8656 19.9397 5.0271 21.0898 6.2349C21.4067 6.5682 21.1736 7.1215 20.7151 7.1226C19.8199 7.1259 18.7656 7.1226 18.0065 7.1149C16.802 7.1149 15.8098 6.1128 15.8098 4.8962V1.9966Z" fill="#9799A0"/>
</svg>
