<svg width="24" height="24" viewBox="0 0 24 24" fill="none" xmlns="http://www.w3.org/2000/svg">
<path d="M19.5477 15.7424L17.3149 13.5095C16.5174 12.7121 15.1618 13.0311 14.8428 14.0677C14.6035 14.7855 13.8061 15.1842 13.0884 15.0247C11.4935 14.626 9.34041 12.5526 8.94169 10.878C8.70246 10.1602 9.18092 9.36278 9.89862 9.12358C10.9353 8.8046 11.2543 7.44895 10.4568 6.6515L8.22399 4.41866C7.58603 3.86045 6.6291 3.86045 6.07089 4.41866L4.55574 5.9338C3.0406 7.52869 4.71523 11.7551 8.46322 15.5031C12.2112 19.2511 16.4377 21.0055 18.0326 19.4106L19.5477 17.8955C20.1059 17.2575 20.1059 16.3006 19.5477 15.7424Z" fill="#F49C00"/>
</svg>
