<svg width="80" height="40" viewBox="0 0 80 40" fill="none" xmlns="http://www.w3.org/2000/svg">
<g opacity="0.5">
<path d="M0.5 4C0.5 2.067 2.067 0.5 4 0.5H39.5V39.5H4C2.067 39.5 0.5 37.933 0.5 36V4Z" fill="white"/>
<path fill-rule="evenodd" clip-rule="evenodd" d="M23.0004 29C22.6164 29 22.2324 28.853 21.9399 28.5605L14.4399 21.0605C13.8534 20.474 13.8534 19.526 14.4399 18.9395L21.9399 11.4395C22.5264 10.853 23.4744 10.853 24.0609 11.4395C24.6474 12.026 24.6474 12.974 24.0609 13.5605L17.6214 20L24.0609 26.4395C24.6474 27.026 24.6474 27.974 24.0609 28.5605C23.7684 28.853 23.3844 29 23.0004 29Z" fill="#50525B"/>
<path d="M0.5 4C0.5 2.067 2.067 0.5 4 0.5H39.5V39.5H4C2.067 39.5 0.5 37.933 0.5 36V4Z" stroke="#BBBDC2"/>
</g>
<path d="M40.5 0.5H76C77.933 0.5 79.5 2.067 79.5 4V36C79.5 37.933 77.933 39.5 76 39.5H40.5V0.5Z" fill="white"/>
<path fill-rule="evenodd" clip-rule="evenodd" d="M57.0004 29C56.6164 29 56.2324 28.853 55.9399 28.5605C55.3534 27.974 55.3534 27.026 55.9399 26.4395L62.3794 20L55.9399 13.5605C55.3534 12.974 55.3534 12.026 55.9399 11.4395C56.5264 10.853 57.4744 10.853 58.0609 11.4395L65.5609 18.9395C66.1474 19.526 66.1474 20.474 65.5609 21.0605L58.0609 28.5605C57.7684 28.853 57.3844 29 57.0004 29Z" fill="#50525B"/>
<path d="M40.5 0.5H76C77.933 0.5 79.5 2.067 79.5 4V36C79.5 37.933 77.933 39.5 76 39.5H40.5V0.5Z" stroke="#BBBDC2"/>
</svg>
