<svg width="48" height="48" viewBox="0 0 48 48" fill="none" xmlns="http://www.w3.org/2000/svg">
<path d="M44.8189 17.1821L42.5079 7.93306C42.2245 6.79672 41.203 6 40.0309 6H8.82881C7.65672 6 6.63529 6.79672 6.34929 7.93306L4.0383 17.1821C4.01277 17.2817 4 17.3864 4 17.4911C4 21.0099 6.71956 23.875 10.0647 23.875C12.008 23.875 13.7419 22.9072 14.8527 21.4057C15.9635 22.9072 17.6974 23.875 19.6406 23.875C21.5839 23.875 23.3178 22.9072 24.4286 21.4057C25.5394 22.9072 27.2707 23.875 29.2165 23.875C31.1624 23.875 32.8937 22.9072 34.0045 21.4057C35.1153 22.9072 36.8466 23.875 38.7925 23.875C42.1376 23.875 44.8572 21.0099 44.8572 17.4911C44.8572 17.3864 44.8444 17.2817 44.8189 17.1821Z" fill="#9FA2B4"/>
<path d="M38.7916 26.428C37.0526 26.428 35.4005 25.8969 34.0037 24.9265C31.2101 26.8698 27.2214 26.8698 24.4278 24.9265C21.6341 26.8698 17.6455 26.8698 14.8519 24.9265C13.455 25.8969 11.8029 26.428 10.0639 26.428C8.81009 26.428 7.62779 26.1344 6.55273 25.6339V39.1959C6.55273 40.6055 7.69674 41.7495 9.10631 41.7495H19.3206V31.5352H29.5349V41.7495H39.7492C41.1588 41.7495 42.3028 40.6055 42.3028 39.1959V25.6339C41.2277 26.1344 40.0454 26.428 38.7916 26.428Z" fill="#9FA2B4"/>
</svg>
