<svg width="56" height="24" viewBox="0 0 56 24" fill="none" xmlns="http://www.w3.org/2000/svg">
<path d="M30.6031 15.944V11.88H35.5631V10.824H30.6031V6.856H35.9631V5.8H29.4831V17H36.0431V15.944H30.6031ZM44.5312 5.8V10.568C43.8593 9.496 42.7233 8.808 41.2993 8.808C39.0433 8.808 37.1713 10.632 37.1713 13C37.1713 15.368 39.0433 17.192 41.2993 17.192C42.7233 17.192 43.8593 16.504 44.5312 15.432V17H45.5873V5.8H44.5312ZM41.3793 16.168C39.6033 16.168 38.2273 14.776 38.2273 13C38.2273 11.224 39.6033 9.832 41.3793 9.832C43.1553 9.832 44.5312 11.224 44.5312 13C44.5312 14.776 43.1553 16.168 41.3793 16.168ZM48.3511 7.304C48.7831 7.304 49.1191 6.952 49.1191 6.536C49.1191 6.12 48.7831 5.768 48.3511 5.768C47.9191 5.768 47.5831 6.12 47.5831 6.536C47.5831 6.952 47.9191 7.304 48.3511 7.304ZM47.8231 17H48.8791V9H47.8231V17ZM55.36 10.024V9H53.056V6.76L52 7.08V9H50.32V10.024H52V14.872C52 16.792 53.2 17.32 55.36 17V16.072C53.808 16.136 53.056 16.248 53.056 14.872V10.024H55.36Z" fill="#0033FF"/>
<path d="M19.9366 20.9938H4.63747C4.28898 20.9938 4 20.7048 4 20.3563C4 20.0079 4.28898 19.7189 4.63747 19.7189H19.9366C20.2851 19.7189 20.5741 20.0079 20.5741 20.3563C20.5741 20.7048 20.2851 20.9938 19.9366 20.9938Z" fill="#0033FF" fill-opacity="0.7"/>
<path d="M18.2536 5.25267C16.6047 3.60376 14.9897 3.56126 13.2983 5.25267L12.2699 6.28111C12.1849 6.36611 12.1509 6.5021 12.1849 6.62109C12.8309 8.87347 14.6328 10.6754 16.8851 11.3213C16.9191 11.3298 16.9531 11.3383 16.9871 11.3383C17.0806 11.3383 17.1656 11.3043 17.2336 11.2363L18.2536 10.2079C19.095 9.37494 19.503 8.56749 19.503 7.75153C19.5115 6.91008 19.1035 6.09412 18.2536 5.25267Z" fill="#0033FF" fill-opacity="0.7"/>
<path d="M15.3558 12.0948C15.1093 11.9758 14.8713 11.8568 14.6418 11.7208C14.4549 11.6103 14.2764 11.4913 14.0979 11.3638C13.9534 11.2703 13.7834 11.1343 13.6219 10.9983C13.6049 10.9898 13.5454 10.9388 13.4774 10.8708C13.1969 10.6328 12.8824 10.3269 12.602 9.98687C12.5765 9.96987 12.534 9.91038 12.4745 9.83388C12.3895 9.73189 12.245 9.56189 12.1175 9.36641C12.0155 9.23891 11.8965 9.05192 11.786 8.86493C11.65 8.63545 11.531 8.40596 11.412 8.16797C11.394 8.12939 11.3766 8.091 11.3597 8.05283C11.2343 7.76953 10.8648 7.6867 10.6458 7.90579L5.77683 12.7747C5.66634 12.8852 5.56434 13.0977 5.53884 13.2422L5.07987 16.4975C4.99487 17.0755 5.15636 17.6195 5.51334 17.9849C5.81933 18.2824 6.2443 18.4439 6.70328 18.4439C6.80527 18.4439 6.90727 18.4354 7.00926 18.4184L10.2731 17.9594C10.4261 17.9339 10.6386 17.8319 10.7406 17.7214L15.6034 12.8586C15.824 12.638 15.7408 12.2594 15.4538 12.1369C15.4215 12.1231 15.3889 12.1091 15.3558 12.0948Z" fill="#0033FF" fill-opacity="0.7"/>
</svg>
