<svg width="128" height="128" viewBox="0 0 128 128" fill="none" xmlns="http://www.w3.org/2000/svg">
<g filter="url(#filter0_d)">
<g clip-path="url(#clip0)">
<path d="M27 13H97V114H27V13Z" fill="#DEE0E4"/>
<path d="M96.1062 8H30.8937C25.8987 8 21.875 12.0237 21.875 17.0188V109.981C21.875 114.976 25.8987 119 30.8937 119H96.1062C101.101 119 105.125 114.976 105.125 109.981V17.0188C105.125 12.0237 101.101 8 96.1062 8V8ZM54.25 105.125C54.25 107.669 52.1688 109.75 49.625 109.75H35.75C33.2063 109.75 31.125 107.669 31.125 105.125V91.25C31.125 88.7063 33.2063 86.625 35.75 86.625H49.625C52.1688 86.625 54.25 88.7063 54.25 91.25V105.125ZM54.25 72.75C54.25 75.2937 52.1688 77.375 49.625 77.375H35.75C33.2063 77.375 31.125 75.2937 31.125 72.75V58.875C31.125 56.3312 33.2063 54.25 35.75 54.25H49.625C52.1688 54.25 54.25 56.3312 54.25 58.875V72.75ZM54.25 40.375C54.25 42.9188 52.1688 45 49.625 45H35.75C33.2063 45 31.125 42.9188 31.125 40.375V26.5C31.125 23.9563 33.2063 21.875 35.75 21.875H49.625C52.1688 21.875 54.25 23.9563 54.25 26.5V40.375ZM86.625 100.5H63.5C60.9562 100.5 58.875 98.4187 58.875 95.875C58.875 93.3313 60.9562 91.25 63.5 91.25H86.625C89.1687 91.25 91.25 93.3313 91.25 95.875C91.25 98.4187 89.1687 100.5 86.625 100.5ZM86.625 68.125H63.5C60.9562 68.125 58.875 66.0438 58.875 63.5C58.875 60.9562 60.9562 58.875 63.5 58.875H86.625C89.1687 58.875 91.25 60.9562 91.25 63.5C91.25 66.0438 89.1687 68.125 86.625 68.125ZM86.625 35.75H63.5C60.9562 35.75 58.875 33.6688 58.875 31.125C58.875 28.5812 60.9562 26.5 63.5 26.5H86.625C89.1687 26.5 91.25 28.5812 91.25 31.125C91.25 33.6688 89.1687 35.75 86.625 35.75Z" fill="white"/>
</g>
</g>
<defs>
<filter id="filter0_d" x="-5.05683" y="-3.79263" width="138.114" height="138.114" filterUnits="userSpaceOnUse" color-interpolation-filters="sRGB">
<feFlood flood-opacity="0" result="BackgroundImageFix"/>
<feColorMatrix in="SourceAlpha" type="matrix" values="0 0 0 0 0 0 0 0 0 0 0 0 0 0 0 0 0 0 127 0" result="hardAlpha"/>
<feOffset dy="1.26421"/>
<feGaussianBlur stdDeviation="2.52842"/>
<feColorMatrix type="matrix" values="0 0 0 0 0 0 0 0 0 0 0 0 0 0 0 0 0 0 0.25 0"/>
<feBlend mode="normal" in2="BackgroundImageFix" result="effect1_dropShadow"/>
<feBlend mode="normal" in="SourceGraphic" in2="effect1_dropShadow" result="shape"/>
</filter>
<clipPath id="clip0">
<rect width="111" height="111" fill="white" transform="translate(8 8)"/>
</clipPath>
</defs>
</svg>
