<svg width="24" height="24" viewBox="0 0 24 24" fill="none" xmlns="http://www.w3.org/2000/svg">
<path d="M3.17648 11.7132V11.6883C3.39799 8.79295 4.43171 6.62146 6.22841 5.24868C8.0005 3.85094 9.92026 3.17703 12.0123 3.17703C14.2028 3.15207 16.2456 3.90086 18.067 5.39844C19.9129 6.87105 20.8235 9.0675 20.8235 11.9129V12.0876C20.8235 14.958 19.9129 17.1045 18.067 18.5771C16.221 20.0747 14.1782 20.8235 11.9877 20.8235H11.8893C9.74798 20.7985 7.77899 20.0497 5.95768 18.5522C4.13636 17.0795 3.20109 14.8082 3.17648 11.7132ZM11.4708 7.79456V3.85094H10.8801C10.7571 4.0007 10.6586 4.17542 10.5602 4.32517C10.4617 4.47493 10.3633 4.62469 10.2648 4.79941C10.1664 4.94916 10.0433 5.14884 9.96949 5.2986C9.87104 5.44836 9.7972 5.59811 9.72337 5.77283C9.57569 6.02243 9.45263 6.27202 9.35418 6.49666C9.23112 6.7213 9.13267 6.94593 9.05883 7.14561C9.20651 7.24545 9.37879 7.37025 9.57569 7.44513C9.7972 7.52 10.0187 7.59488 10.2402 7.6448C10.4863 7.69472 10.7079 7.71968 10.9048 7.74464C11.1263 7.7696 11.3232 7.79456 11.4708 7.79456ZM12.5046 3.85094V7.7696C12.6276 7.7696 12.7753 7.79456 12.923 7.7696C13.0706 7.7696 13.2429 7.74464 13.3906 7.71968C13.6613 7.66976 13.9813 7.59488 14.2274 7.52C14.4982 7.42017 14.7443 7.29537 14.9166 7.14561C14.6212 6.42178 14.3013 5.84771 13.9813 5.2986C13.6613 4.74949 13.2922 4.27525 12.8984 3.8759V3.85094H12.5046ZM9.84643 4.07558V4.05062C9.67414 4.1255 9.50185 4.25029 9.30496 4.32517C9.13267 4.40005 8.91116 4.49989 8.73887 4.59973C8.3943 4.77445 8.04973 4.97412 7.70515 5.19876C7.38519 5.4234 7.06523 5.67299 6.7945 5.92259C6.89295 6.02243 7.01601 6.12227 7.11446 6.19714C7.21291 6.27202 7.33597 6.37186 7.45903 6.4717C7.55748 6.52162 7.68054 6.5965 7.8036 6.69634C7.92666 6.77122 8.07434 6.87105 8.22201 6.97089C8.41891 6.52162 8.61581 6.04739 8.86193 5.62307C9.10806 5.1738 9.37879 4.74949 9.64953 4.37509C9.67414 4.32517 9.69875 4.27525 9.74798 4.22534C9.77259 4.20038 9.7972 4.1255 9.84643 4.07558ZM17.3778 5.92259V5.89763C16.7625 5.4234 16.221 5.02404 15.6796 4.77445C15.1381 4.52485 14.5966 4.27525 14.1044 4.07558C14.4982 4.47493 14.8427 4.97412 15.0642 5.44836C15.3104 5.94755 15.5565 6.4717 15.7534 6.97089C15.8518 6.92097 15.9749 6.87105 16.1226 6.77122C16.2456 6.69634 16.4179 6.62146 16.5656 6.54658C16.7133 6.44674 16.8363 6.3469 16.984 6.24706C17.1317 6.12227 17.2794 6.02243 17.3778 5.92259ZM16.9594 11.4886H19.7898C19.7898 10.5651 19.5929 9.69149 19.2237 8.79295C18.8792 7.91936 18.3869 7.19553 17.7716 6.57154V6.54658C17.6485 6.74626 17.4763 6.92097 17.304 7.04577C17.1071 7.17057 16.9348 7.27041 16.7379 7.37025C16.6148 7.44513 16.4918 7.54496 16.3687 7.59488C16.2456 7.66976 16.0734 7.71968 15.9503 7.79456C16.0487 7.99424 16.1472 8.21887 16.2456 8.41855C16.3195 8.64319 16.4425 8.89278 16.4918 9.11742C16.6394 9.51677 16.7379 9.94109 16.8363 10.3654C16.9102 10.7398 16.9594 11.1391 16.9594 11.4886ZM8.04973 7.79456V7.7696C7.85283 7.66976 7.63132 7.59488 7.45903 7.49505C7.28674 7.37025 7.11446 7.24545 6.96678 7.14561C6.81911 7.07073 6.67143 6.97089 6.54837 6.87105C6.42531 6.77122 6.32686 6.67138 6.22841 6.57154C5.58849 7.19553 5.12086 7.8944 4.82551 8.71807C4.50555 9.54173 4.28404 10.4652 4.18559 11.4636H7.21291C7.21291 10.7648 7.31136 10.0908 7.48364 9.41694C7.63132 8.71807 7.85283 8.19391 8.04973 7.79456ZM11.4708 11.4636V8.59327C11.2739 8.61823 11.0278 8.61823 10.8063 8.59327C10.5602 8.56831 10.3141 8.49343 10.0926 8.41855C9.89565 8.36863 9.64953 8.31871 9.45263 8.24383C9.23112 8.19391 9.00961 8.09408 8.83732 7.99424C8.68965 8.24383 8.56659 8.54335 8.46814 8.86782C8.34507 9.16734 8.27124 9.49181 8.1974 9.79133C8.14818 10.0908 8.12356 10.4153 8.09895 10.6899C8.07434 10.9644 8.04973 11.239 8.04973 11.4636H11.4708ZM12.5046 8.64319V11.4636H16.1472C16.1472 11.3139 16.1472 11.1391 16.1226 10.9395C16.0734 10.7648 16.0487 10.5401 16.0241 10.3404C15.9503 10.0409 15.8765 9.71645 15.778 9.41694C15.6796 9.14238 15.5811 8.86782 15.458 8.64319C15.4088 8.51839 15.3596 8.36863 15.3104 8.26879C15.2365 8.144 15.1627 8.06912 15.1135 7.99424C14.8427 8.19391 14.4735 8.31871 14.0305 8.41855C13.6121 8.51839 13.1199 8.61823 12.6768 8.64319H12.5046ZM7.21291 12.2873H4.18559C4.18559 12.7116 4.25942 13.1858 4.38249 13.7599C4.50555 14.3589 4.75167 14.9081 5.02241 15.5071C5.14547 15.8066 5.29314 16.1061 5.44082 16.4056C5.6131 16.6802 5.81 16.9797 6.0069 17.2543C6.15458 17.1544 6.30225 17.0795 6.42531 17.0047C6.57299 16.9298 6.74527 16.8299 6.89295 16.7551C7.06523 16.6802 7.23752 16.6053 7.43442 16.5055C7.6067 16.4306 7.82822 16.3307 8.04973 16.2309C7.85283 15.6069 7.63132 15.0079 7.48364 14.334C7.31136 13.685 7.21291 13.0361 7.21291 12.3123V12.2873ZM11.4708 15.2076V12.2873H8.04973C8.04973 12.487 8.07434 12.7865 8.12356 13.086C8.14818 13.3855 8.22201 13.71 8.27124 14.0345C8.36969 14.3839 8.44352 14.7333 8.54197 15.0328C8.64042 15.3324 8.73887 15.582 8.83732 15.8066C9.28034 15.6319 9.72337 15.5071 10.0187 15.4322C10.3387 15.3324 10.634 15.2575 10.9294 15.2325H11.2001C11.2986 15.2076 11.397 15.2076 11.4708 15.2076ZM12.5046 12.2873V15.1826C12.6768 15.2076 12.8737 15.2325 13.0706 15.2575C13.2922 15.2824 13.5629 15.3324 13.7844 15.3823L14.1536 15.4572C14.2767 15.5071 14.4243 15.532 14.5474 15.557C14.6951 15.6069 14.8427 15.6319 14.9904 15.6818C15.1135 15.7317 15.2365 15.7567 15.335 15.8066C15.6549 14.9829 15.8518 14.309 15.9749 13.7349C16.098 13.1858 16.1472 12.7116 16.1472 12.3123V12.2873H12.5046ZM19.7898 12.2873H16.9594V12.437C16.9348 12.9113 16.8609 13.4604 16.7625 14.0345C16.664 14.5836 16.4425 15.2325 16.1472 16.0312C16.541 16.2309 16.9102 16.4306 17.2055 16.6303C17.5009 16.8299 17.7716 17.0546 17.9685 17.2543C18.3869 16.8299 18.7561 16.2559 19.0761 15.5071C19.396 14.7833 19.6175 14.0345 19.7406 13.2358C19.7652 13.086 19.7652 12.9362 19.7898 12.7865V12.2873ZM11.4708 19.9V16.0063C10.8555 16.1061 10.3387 16.2309 9.94488 16.3307C9.55108 16.4306 9.25573 16.5304 9.05883 16.6303C9.20651 17.0047 9.35418 17.3291 9.50185 17.6286C9.64953 17.9032 9.82182 18.2027 9.96949 18.4523C10.0187 18.5522 10.1172 18.652 10.191 18.7768C10.2648 18.8766 10.3141 19.0014 10.3879 19.1013C10.4617 19.2261 10.5356 19.3758 10.6094 19.5256C10.7079 19.6504 10.7817 19.8001 10.8801 19.9H11.4708ZM12.5046 19.9H13.0706C13.2922 19.7253 13.5137 19.4757 13.686 19.2011C13.8829 18.9265 14.1044 18.6021 14.252 18.3275C14.4243 18.003 14.5966 17.7035 14.7443 17.404C14.892 17.1045 15.015 16.8299 15.1135 16.6303C14.8427 16.5304 14.4735 16.4306 14.1044 16.3307C13.7352 16.2309 13.2183 16.1311 12.5046 16.0312V19.9ZM17.3778 17.8533V17.8283C17.3286 17.7534 17.2301 17.6536 17.1563 17.5787C17.0825 17.5038 16.9594 17.404 16.8363 17.3291C16.7379 17.2543 16.6148 17.1794 16.4671 17.1045C16.3195 17.0296 16.1226 16.9298 15.9503 16.8299C15.8518 17.0296 15.6796 17.3791 15.4334 17.8533C15.2119 18.3275 14.8181 18.9016 14.3259 19.5256C14.9412 19.4257 15.4827 19.2011 15.9749 18.9016C16.5164 18.627 16.984 18.2526 17.3778 17.8533ZM8.22201 17.0546V17.0296C8.04973 17.1295 7.77899 17.2543 7.50825 17.3791C7.21291 17.5039 6.89295 17.6536 6.5976 17.8533C6.76988 18.003 6.94217 18.1528 7.08984 18.2526C7.23752 18.3774 7.40981 18.4773 7.55748 18.5771C7.82822 18.7518 8.14818 18.9265 8.46814 19.0763C8.7881 19.2261 9.18189 19.3758 9.67414 19.5256C9.50185 19.3259 9.37879 19.0763 9.25573 18.8766C9.13267 18.677 8.985 18.4773 8.86193 18.2776C8.73887 18.0779 8.64042 17.8533 8.54197 17.6536C8.41891 17.4539 8.32046 17.2543 8.22201 17.0546Z" fill="#F49C00"/>
<path fill-rule="evenodd" clip-rule="evenodd" d="M3.00001 11.7147L3 11.7133L3.00001 11.6816L3.00052 11.6748C3.22469 8.74478 4.27375 6.52066 6.12018 5.10933C7.92116 3.68914 9.87833 3.00082 12.0113 3.0006C14.2458 2.97538 16.3277 3.74028 18.178 5.26136C20.075 6.77521 21 9.02817 21 11.9129V12.0877C21 14.9985 20.0743 17.2012 18.1777 18.7146C16.3029 20.2354 14.2216 21 11.9877 21H11.8872C9.70225 20.9745 7.69535 20.2093 5.84615 18.689C3.97243 17.1737 3.0249 14.8449 3.00001 11.7147ZM5.95768 18.5522C7.77899 20.0497 9.74798 20.7985 11.8893 20.8235H11.9877C14.1782 20.8235 16.221 20.0747 18.067 18.5771C19.9129 17.1045 20.8235 14.958 20.8235 12.0876V11.9129C20.8235 9.0675 19.9129 6.87105 18.067 5.39844C16.2456 3.90086 14.2028 3.15207 12.0123 3.17703C9.92026 3.17703 8.0005 3.85094 6.22841 5.24868C4.43171 6.62146 3.39799 8.79295 3.17648 11.6883V11.7132C3.20109 14.8082 4.13636 17.0795 5.95768 18.5522ZM10.4123 4.89639C10.3149 5.04456 10.1967 5.23693 10.1278 5.37668L10.1229 5.38647L10.1169 5.39558C10.0264 5.53338 9.95728 5.67269 9.88591 5.84157L9.88129 5.85251L9.87524 5.86273C9.73182 6.10513 9.61193 6.3482 9.51581 6.56754L9.51268 6.57467L9.50894 6.58149C9.41619 6.7508 9.33784 6.92037 9.27403 7.07841C9.38957 7.15608 9.50682 7.22973 9.63545 7.27909C9.85678 7.35391 10.0678 7.42496 10.2772 7.47228C10.4852 7.51439 10.6747 7.53806 10.8524 7.56026C10.8771 7.56334 10.9015 7.56639 10.9257 7.56946C10.9538 7.57263 10.9813 7.57576 11.008 7.57881C11.1146 7.59096 11.2102 7.60186 11.2944 7.60909V4.02745H10.9662C10.9067 4.10734 10.8539 4.19147 10.7991 4.27884C10.7696 4.32573 10.7396 4.37356 10.7076 4.42216C10.6089 4.57233 10.5137 4.71734 10.4186 4.88608L10.4123 4.89639ZM10.8801 3.85094H11.4708V7.79456C11.418 7.79456 11.3588 7.7914 11.2944 7.78615C11.2018 7.77859 11.0985 7.76679 10.9879 7.75414C10.9606 7.75102 10.9329 7.74781 10.9048 7.74464C10.8805 7.74157 10.8559 7.73854 10.8309 7.73542C10.6529 7.7132 10.456 7.68858 10.2402 7.6448C10.0187 7.59488 9.7972 7.52 9.57569 7.44513C9.40028 7.37842 9.2444 7.27214 9.10805 7.17913C9.09135 7.16774 9.07495 7.15651 9.05883 7.14561C9.13267 6.94593 9.23112 6.7213 9.35418 6.49666C9.45263 6.27202 9.57569 6.02243 9.72337 5.77283C9.7972 5.59811 9.87104 5.44836 9.96949 5.2986C10.0433 5.14884 10.1664 4.94916 10.2648 4.79941C10.3633 4.62469 10.4617 4.47493 10.5602 4.32517C10.5878 4.28322 10.6153 4.23936 10.6435 4.19459C10.7157 4.07954 10.7916 3.95875 10.8801 3.85094ZM12.9082 7.59317H12.923C13.0542 7.59317 13.2132 7.57071 13.3599 7.54594C13.6234 7.4973 13.9336 7.42467 14.1712 7.35271C14.3783 7.276 14.5612 7.18719 14.702 7.08901C14.4257 6.434 14.1289 5.9024 13.8288 5.38749C13.5237 4.86385 13.1731 4.41058 12.7998 4.02745H12.681V7.60109C12.6921 7.60172 12.7026 7.60227 12.7123 7.60271C12.7786 7.60563 12.838 7.60504 12.8936 7.59564L12.9082 7.59317ZM12.5046 3.85094H12.8984V3.8759C13.2922 4.27525 13.6613 4.74949 13.9813 5.2986C14.3013 5.84771 14.6212 6.42178 14.9166 7.14561C14.7443 7.29537 14.4982 7.42017 14.2274 7.52C13.9813 7.59488 13.6613 7.66976 13.3906 7.71968C13.2429 7.74464 13.0706 7.7696 12.923 7.7696C12.8225 7.78658 12.722 7.7805 12.6293 7.77485C12.5858 7.7722 12.5439 7.7696 12.5046 7.7696V3.85094ZM8.81867 4.75717C8.48099 4.92839 8.14278 5.12428 7.80406 5.34498C7.54467 5.5272 7.28673 5.72508 7.05688 5.92472C7.11263 5.9723 7.16975 6.01753 7.22128 6.05673C7.3185 6.13067 7.4382 6.22761 7.55597 6.32316C7.65853 6.37651 7.78171 6.45258 7.9054 6.55178C7.97936 6.59708 8.06102 6.65038 8.14487 6.7063C8.31378 6.31797 8.4925 5.90863 8.70819 5.53646C8.90888 5.17027 9.12566 4.82045 9.34573 4.49995C9.1791 4.57281 8.98073 4.66357 8.82735 4.75246L8.81867 4.75717ZM9.64953 4.37509C9.37879 4.74949 9.10806 5.1738 8.86193 5.62307C8.64848 5.99106 8.47205 6.39663 8.30054 6.79087C8.29828 6.79606 8.29602 6.80125 8.29377 6.80643C8.26979 6.86155 8.2459 6.91638 8.22201 6.97089C8.17211 6.93716 8.1222 6.90346 8.07325 6.87069C7.97734 6.80648 7.88508 6.74591 7.8036 6.69634C7.68054 6.5965 7.55748 6.52162 7.45903 6.4717C7.33597 6.37186 7.21291 6.27202 7.11446 6.19714C7.05621 6.15284 6.98934 6.09984 6.92405 6.04323C6.87899 6.00416 6.8347 5.96336 6.7945 5.92259C6.83719 5.88323 6.88109 5.84392 6.92603 5.80467C7.16613 5.59495 7.43564 5.38798 7.70515 5.19876C8.04973 4.97412 8.3943 4.77445 8.73887 4.59973C8.91116 4.49989 9.13267 4.40005 9.30496 4.32517C9.38488 4.29478 9.46074 4.2562 9.5342 4.21604C9.56224 4.20071 9.58992 4.18515 9.61735 4.16974C9.6332 4.16083 9.64897 4.15197 9.66467 4.14324C9.70766 4.1193 9.75014 4.09627 9.79246 4.07562C9.80464 4.06968 9.81681 4.06393 9.82897 4.05841C9.83479 4.05577 9.84061 4.05315 9.84643 4.05062V4.07558C9.81759 4.10482 9.7972 4.14267 9.78031 4.17399C9.76836 4.19614 9.75817 4.215 9.74798 4.22534C9.70839 4.26548 9.68472 4.30567 9.66417 4.34581C9.65916 4.35558 9.65435 4.36532 9.64953 4.37509ZM16.0308 6.6205C16.1202 6.56611 16.2392 6.50891 16.3477 6.45672C16.3933 6.43481 16.437 6.41378 16.4759 6.39421C16.5428 6.34867 16.605 6.30284 16.6701 6.25484L16.6712 6.25398C16.7359 6.20626 16.8036 6.15638 16.8773 6.10621C16.9362 6.05677 16.9954 6.01069 17.0487 5.96919C17.0631 5.95799 17.0771 5.94712 17.0905 5.93661C17.0986 5.93023 17.1066 5.92399 17.1143 5.91787C16.5634 5.49701 16.0821 5.15436 15.6057 4.93475C15.3069 4.79703 15.0096 4.66 14.7213 4.53162C14.9203 4.80379 15.0922 5.09163 15.2233 5.37202C15.4413 5.81411 15.6605 6.27837 15.8462 6.72915C15.9009 6.70131 15.9586 6.66912 16.0237 6.62506L16.0308 6.6205ZM15.9125 6.89337C15.8826 6.90841 15.8542 6.92203 15.8272 6.93493C15.8012 6.94737 15.7766 6.95911 15.7534 6.97089C15.7319 6.91642 15.7098 6.86168 15.6872 6.80668C15.5028 6.35764 15.2835 5.89307 15.0642 5.44836C14.8966 5.0895 14.6585 4.71639 14.382 4.38303C14.2931 4.27585 14.2002 4.17274 14.1044 4.07558C14.2301 4.12658 14.359 4.18088 14.4904 4.23757C14.8732 4.4028 15.2764 4.58861 15.6796 4.77445C16.1835 5.00673 16.6874 5.36876 17.2508 5.80009C17.2549 5.80321 17.259 5.80634 17.263 5.80947C17.301 5.83856 17.3393 5.86793 17.3778 5.89763V5.92259C17.3573 5.9434 17.3346 5.96424 17.3103 5.98528C17.2937 5.99956 17.2764 6.01395 17.2585 6.02851C17.226 6.05481 17.1915 6.08169 17.1557 6.10955C17.1005 6.15254 17.0423 6.19784 16.984 6.24706C16.9102 6.29698 16.8425 6.34695 16.7748 6.39687C16.7071 6.44678 16.6394 6.49666 16.5656 6.54658C16.5164 6.57154 16.4644 6.59654 16.4124 6.6215C16.3085 6.67142 16.2046 6.7213 16.1226 6.77122C16.0459 6.82305 15.9759 6.86146 15.9125 6.89337ZM17.6579 6.70768C17.6814 6.67825 17.704 6.64801 17.7255 6.61706C17.7359 6.60206 17.746 6.5869 17.7559 6.57158C17.7612 6.56331 17.7664 6.55494 17.7716 6.54658V6.57154C17.8108 6.61133 17.8496 6.65158 17.8878 6.69219C18.4491 7.2885 18.9011 7.97507 19.2237 8.79295C19.5693 9.63407 19.7639 10.4534 19.7874 11.3122C19.789 11.3708 19.7898 11.4296 19.7898 11.4886H16.9594C16.9594 11.1391 16.9102 10.7398 16.8363 10.3654C16.7379 9.94109 16.6394 9.51677 16.4918 9.11742C16.4613 8.97835 16.4025 8.82975 16.3446 8.68339C16.309 8.59334 16.2738 8.50411 16.2456 8.41855C16.1964 8.31871 16.1472 8.21268 16.098 8.1066C16.0487 8.00052 15.9995 7.8944 15.9503 7.79456C16.0118 7.75712 16.0857 7.72597 16.1595 7.69477C16.2333 7.66357 16.3072 7.63232 16.3687 7.59488C16.4507 7.5616 16.5328 7.50618 16.6148 7.45072C16.6558 7.42298 16.6969 7.39521 16.7379 7.37025C16.9348 7.27041 17.1071 7.17057 17.304 7.04577C17.4281 6.95586 17.5522 6.84008 17.6579 6.70768ZM17.7809 6.83622C17.6678 6.97436 17.5376 7.0945 17.4075 7.18873L17.3986 7.19516C17.2 7.32105 17.0242 7.42271 16.824 7.52448C16.7885 7.54631 16.7551 7.56889 16.7185 7.59369C16.6972 7.60806 16.6749 7.62317 16.6504 7.63931C16.5907 7.67867 16.5218 7.72147 16.4483 7.75293C16.3785 7.79384 16.2998 7.82705 16.2339 7.8549L16.2282 7.85732C16.2132 7.86365 16.1988 7.86975 16.185 7.87567C16.2094 7.92745 16.2336 7.97965 16.2576 8.03129L16.258 8.03232C16.3074 8.13878 16.3558 8.24292 16.4039 8.34056L16.4094 8.35169L16.4133 8.36349C16.4396 8.44364 16.4722 8.52604 16.5073 8.61484C16.5188 8.64383 16.5305 8.67351 16.5424 8.70402C16.5873 8.81939 16.6333 8.94452 16.6614 9.06745C16.8107 9.47397 16.9103 9.90332 17.007 10.3201L17.0096 10.3313C17.0729 10.6526 17.1191 10.9947 17.1321 11.3122H19.6109C19.5875 10.4796 19.3986 9.68297 19.0605 8.86005L19.0595 8.85775C18.7498 8.07247 18.3178 7.41182 17.7809 6.83622ZM7.36277 7.64327L7.3555 7.638C7.18606 7.51526 7.01968 7.39477 6.87683 7.29787C6.71971 7.21709 6.56549 7.11224 6.43719 7.00814C6.35967 6.94525 6.29145 6.88247 6.22848 6.8212C5.66908 7.39642 5.25792 8.03502 4.99162 8.77767L4.99006 8.78203C4.69695 9.53658 4.48737 10.3782 4.38198 11.2872H7.03847C7.05354 10.6356 7.1514 10.005 7.31175 9.37686C7.44636 8.74145 7.6406 8.2466 7.82317 7.85827C7.78808 7.8428 7.75223 7.82743 7.71557 7.81171C7.70229 7.80602 7.6889 7.80028 7.6754 7.79447C7.57429 7.75097 7.46688 7.7036 7.37054 7.64777L7.36277 7.64327ZM8.04973 7.79456C7.85283 8.19391 7.63132 8.71807 7.48364 9.41694C7.31136 10.0908 7.21291 10.7648 7.21291 11.4636H4.18559C4.19141 11.4045 4.19767 11.3458 4.20435 11.2872C4.3106 10.3563 4.52448 9.49299 4.82551 8.71807C5.10132 7.94889 5.52737 7.28859 6.10367 6.69642C6.12681 6.67264 6.1502 6.64896 6.17383 6.6254C6.19188 6.6074 6.21008 6.58941 6.22841 6.57154C6.32686 6.67138 6.42531 6.77122 6.54837 6.87105C6.67143 6.97089 6.81911 7.07073 6.96678 7.14561C7.11446 7.24545 7.28674 7.37025 7.45903 7.49505C7.55631 7.55142 7.66929 7.59988 7.78466 7.64932C7.87362 7.68745 7.96401 7.72614 8.04973 7.7696V7.79456ZM8.63456 8.92715L8.63136 8.93493C8.52588 9.19165 8.45814 9.46848 8.39067 9.74419C8.38393 9.77174 8.37719 9.79928 8.37042 9.82678C8.32995 10.0752 8.30669 10.3411 8.28525 10.5862C8.28171 10.6266 8.27822 10.6665 8.27471 10.7057C8.2563 10.911 8.23853 11.1103 8.23056 11.2872H11.2944V8.78514C11.1296 8.79285 10.952 8.78726 10.7875 8.76878C10.5233 8.74185 10.2641 8.66272 10.0426 8.588C10.0017 8.5777 9.95693 8.567 9.9097 8.55572C9.749 8.51734 9.5602 8.47226 9.40162 8.41323C9.22779 8.37277 9.05711 8.30566 8.90782 8.23205C8.8039 8.43484 8.71332 8.66758 8.637 8.9191L8.63456 8.92715ZM8.75215 8.14888C8.77171 8.1108 8.79177 8.07362 8.81232 8.03742C8.82057 8.02289 8.82891 8.00845 8.83732 7.99424C9.00961 8.09408 9.23112 8.19391 9.45263 8.24383C9.60175 8.30054 9.77911 8.34298 9.94193 8.3819C9.9941 8.39437 10.0448 8.40644 10.0926 8.41855C10.3141 8.49343 10.5602 8.56831 10.8063 8.59327C10.9654 8.6112 11.1372 8.61629 11.2944 8.60846C11.356 8.60539 11.4154 8.6003 11.4708 8.59327V11.4636H8.04973C8.04973 11.4076 8.05125 11.3486 8.05393 11.2872C8.06199 11.1022 8.08047 10.896 8.09895 10.6899C8.1024 10.6514 8.10584 10.612 8.10935 10.5718C8.13094 10.325 8.15507 10.0489 8.1974 9.79133C8.20474 9.76157 8.21207 9.73162 8.21945 9.70142C8.28639 9.42764 8.3573 9.13758 8.46814 8.86782C8.54701 8.60786 8.64168 8.36397 8.75215 8.14888ZM15.2979 8.71829L15.2939 8.70798C15.2737 8.65689 15.2556 8.60764 15.2384 8.56123C15.2091 8.4817 15.1829 8.41054 15.155 8.35285C15.1276 8.30718 15.0999 8.26882 15.0723 8.2327C14.7931 8.39803 14.4495 8.50501 14.0704 8.59051C13.6497 8.69086 13.1455 8.79358 12.6868 8.81942L12.681 8.81975V11.2872H15.9694C15.9674 11.1897 15.9622 11.0859 15.949 10.9738C15.9026 10.8033 15.8774 10.5953 15.8558 10.4179C15.8539 10.4025 15.8521 10.3873 15.8503 10.3725C15.8386 10.3252 15.8271 10.2777 15.8155 10.23C15.7534 9.97501 15.6905 9.71645 15.6111 9.4743C15.5117 9.19712 15.418 8.93753 15.3033 8.72802L15.2979 8.71829ZM15.778 9.41694C15.8602 9.66699 15.9252 9.93448 15.9874 10.1903C15.9997 10.2409 16.0119 10.291 16.0241 10.3404C16.0263 10.3584 16.0286 10.3767 16.0308 10.3951C16.0534 10.5803 16.0778 10.7805 16.1226 10.9395C16.1381 11.0653 16.1438 11.1812 16.1459 11.2872C16.1472 11.3494 16.1472 11.4082 16.1472 11.4636H12.5046V8.64319H12.6768C13.1199 8.61823 13.6121 8.51839 14.0305 8.41855C14.4029 8.33463 14.7231 8.23312 14.9766 8.08429C15.0246 8.05605 15.0703 8.02608 15.1135 7.99424C15.1302 8.0197 15.1498 8.04521 15.1713 8.07263C15.1742 8.07634 15.1771 8.08008 15.1801 8.08386C15.2197 8.1344 15.265 8.19217 15.3104 8.26879C15.3432 8.33535 15.376 8.42414 15.4088 8.51289C15.4252 8.55726 15.4416 8.60159 15.458 8.64319C15.5811 8.86782 15.6796 9.14238 15.778 9.41694ZM4.55503 13.723L4.55535 13.7244C4.67381 14.3011 4.91121 14.8326 5.18321 15.4344L5.18573 15.44C5.30502 15.7304 5.4483 16.0218 5.59509 16.3195C5.73667 16.5449 5.89436 16.7863 6.05436 17.0157C6.10767 16.9839 6.16022 16.954 6.2084 16.9266C6.2554 16.8998 6.29825 16.8754 6.33358 16.8539L6.33941 16.8504L6.3455 16.8473C6.41648 16.8113 6.49399 16.769 6.57455 16.725L6.57595 16.7243C6.65495 16.6811 6.73689 16.6364 6.81313 16.5977L6.82248 16.593C6.99497 16.518 7.16294 16.4453 7.35461 16.3481L7.36395 16.3434C7.49787 16.2852 7.6622 16.2119 7.83373 16.1347C7.80076 16.0326 7.76714 15.9303 7.73335 15.8275C7.58074 15.3633 7.42488 14.8892 7.31208 14.3756C7.14901 13.7603 7.05061 13.143 7.03785 12.4638H4.36629C4.3832 12.8257 4.45011 13.2335 4.55503 13.723ZM4.18964 12.4638C4.20663 12.8428 4.2762 13.2641 4.38249 13.7599C4.50555 14.3589 4.75167 14.9081 5.02241 15.5071C5.14547 15.8066 5.29314 16.1061 5.44082 16.4056C5.6131 16.6802 5.81 16.9797 6.0069 17.2543C6.10158 17.1902 6.19624 17.1365 6.28443 17.0865C6.3338 17.0584 6.38114 17.0315 6.42531 17.0047C6.49915 16.9672 6.57914 16.9236 6.65913 16.8799C6.73912 16.8362 6.81911 16.7925 6.89295 16.7551C7.06523 16.6802 7.23752 16.6053 7.43442 16.5055C7.6067 16.4306 7.82822 16.3307 8.04973 16.2309C8.0005 16.0749 7.94973 15.9205 7.89897 15.7661C7.74668 15.3028 7.5944 14.8394 7.48364 14.334C7.31136 13.685 7.21291 13.0361 7.21291 12.3123V12.2873H4.18559C4.18559 12.3451 4.18695 12.404 4.18964 12.4638ZM8.29885 13.0645L8.29944 13.0716C8.31471 13.2575 8.34846 13.4459 8.38442 13.6467C8.40456 13.7591 8.42538 13.8753 8.44405 13.9972C8.48496 14.1431 8.52016 14.2821 8.55388 14.4153C8.60434 14.6147 8.6515 14.801 8.70961 14.9778C8.78415 15.2045 8.85859 15.4019 8.93301 15.5812C9.32758 15.4355 9.70718 15.3293 9.97071 15.2624C10.2934 15.1618 10.6016 15.0832 10.9145 15.0567L10.9219 15.0561H11.1794C11.2189 15.0473 11.2577 15.0416 11.2944 15.0379V12.4638H8.23155C8.24099 12.6353 8.26291 12.8458 8.29769 13.0574L8.29885 13.0645ZM8.05483 12.4638C8.06437 12.6446 8.08729 12.8653 8.12356 13.086C8.13944 13.2793 8.17581 13.483 8.21285 13.6903C8.23321 13.8043 8.25377 13.9194 8.27124 14.0345C8.31039 14.1734 8.34564 14.3124 8.3801 14.4483C8.4323 14.654 8.48267 14.8524 8.54197 15.0328C8.64042 15.3324 8.73887 15.582 8.83732 15.8066C9.28034 15.6319 9.72337 15.5071 10.0187 15.4322C10.3387 15.3324 10.634 15.2575 10.9294 15.2325H11.2001C11.2986 15.2076 11.397 15.2076 11.4708 15.2076V12.2873H8.04973C8.04973 12.3398 8.05142 12.3993 8.05483 12.4638ZM14.2047 15.2875L14.2199 15.2937C14.3088 15.3297 14.4139 15.3506 14.526 15.3728C14.5446 15.3765 14.5635 15.3802 14.5825 15.3841L14.5934 15.3863L14.6039 15.3899C14.6702 15.4123 14.7374 15.4294 14.8123 15.4484L14.815 15.4491C14.8871 15.4674 14.9666 15.4875 15.0469 15.5147L15.0569 15.518C15.1032 15.5368 15.1492 15.5518 15.2008 15.5682C15.2089 15.5708 15.2173 15.5735 15.2257 15.5762C15.2283 15.577 15.2308 15.5778 15.2334 15.5786C15.5135 14.8369 15.6897 14.2235 15.8023 13.698L15.8027 13.6964C15.9078 13.2273 15.9574 12.8166 15.9683 12.4638H12.681V15.0291C12.8113 15.0468 12.9509 15.0645 13.0916 15.0823C13.3205 15.1082 13.5964 15.1591 13.8213 15.2098L14.2047 15.2875ZM13.7844 15.3823C13.5629 15.3324 13.2922 15.2824 13.0706 15.2575C12.8737 15.2325 12.6768 15.2076 12.5046 15.1826V12.2873H16.1472V12.3123C16.1472 12.3616 16.1464 12.4122 16.1449 12.4638C16.1339 12.83 16.0828 13.2537 15.9749 13.7349C15.8602 14.2701 15.6813 14.8921 15.3984 15.6412C15.3778 15.6957 15.3567 15.7508 15.335 15.8066C15.2897 15.7837 15.2393 15.766 15.1861 15.7488C15.1735 15.7447 15.1608 15.7407 15.148 15.7366C15.0968 15.7203 15.0436 15.7034 14.9904 15.6818C14.9166 15.6568 14.8427 15.6382 14.7689 15.6194C14.6951 15.6007 14.6212 15.582 14.5474 15.557C14.5301 15.5535 14.5124 15.5501 14.4944 15.5465C14.3834 15.5246 14.2594 15.5001 14.1536 15.4572L13.7844 15.3823ZM17.1347 12.4638H19.6133V12.7725C19.6014 12.8495 19.5952 12.9251 19.5896 12.9938L19.5893 12.9967C19.5831 13.0727 19.5774 13.1405 19.5664 13.2072L19.5662 13.2089C19.4455 13.9921 19.2284 14.726 18.9146 15.4358L18.9138 15.4378C18.6317 16.0978 18.3138 16.612 17.9626 17.0031C17.7756 16.83 17.5476 16.6486 17.3044 16.4841C17.0356 16.3024 16.7106 16.1226 16.3669 15.9454C16.6353 15.2131 16.8409 14.5971 16.9362 14.0657L16.9364 14.0643C17.0342 13.4942 17.1087 12.9439 17.1347 12.4638ZM16.1472 16.0312C16.4425 15.2325 16.664 14.5836 16.7625 14.0345C16.8609 13.4604 16.9348 12.9113 16.9594 12.437V12.2873H19.7898V12.7865C19.7775 12.8614 19.7714 12.9363 19.7652 13.0112C19.759 13.086 19.7529 13.1609 19.7406 13.2358C19.6175 14.0345 19.396 14.7833 19.0761 15.5071C18.7873 16.1828 18.4585 16.7163 18.0896 17.1258C18.0497 17.1701 18.0093 17.2128 17.9685 17.2543C17.9458 17.2313 17.9222 17.208 17.8976 17.1844C17.7089 17.0032 17.4669 16.8069 17.2055 16.6303C16.9102 16.4306 16.541 16.2309 16.1472 16.0312ZM10.1248 18.3683L10.1278 18.3743C10.1438 18.4068 10.1702 18.4437 10.2119 18.499C10.2147 18.5026 10.2174 18.5063 10.2203 18.5101C10.2559 18.5572 10.2995 18.615 10.3383 18.6793C10.3799 18.7369 10.4139 18.7989 10.4419 18.8501L10.4442 18.8543C10.4761 18.9125 10.5012 18.9578 10.5298 18.9964L10.5352 19.0037L10.5398 19.0115C10.6149 19.1384 10.6891 19.2882 10.7598 19.4316C10.8016 19.4862 10.8394 19.5443 10.8723 19.5948C10.8792 19.6053 10.8858 19.6155 10.8922 19.6252C10.9173 19.6634 10.9395 19.6959 10.9607 19.7235H11.2944V16.2152C10.7759 16.307 10.3353 16.4139 9.98824 16.5019C9.69209 16.5769 9.45911 16.6504 9.28558 16.7213C9.4099 17.0249 9.53424 17.2952 9.65875 17.5479C9.80456 17.8188 9.97488 18.1149 10.1214 18.3625L10.1248 18.3683ZM9.50185 17.6286C9.35418 17.3291 9.20651 17.0047 9.05883 16.6303C9.25573 16.5304 9.55108 16.4306 9.94488 16.3307C10.3004 16.2406 10.7563 16.1302 11.2944 16.0361C11.3522 16.0259 11.4111 16.016 11.4708 16.0063V19.9H10.8801C10.8228 19.8418 10.7737 19.7666 10.7233 19.6893C10.6872 19.634 10.6505 19.5776 10.6094 19.5256C10.5356 19.3758 10.4617 19.2261 10.3879 19.1013C10.351 19.0513 10.3202 18.9952 10.2894 18.9391C10.2587 18.8829 10.2279 18.8267 10.191 18.7768C10.1564 18.7183 10.1163 18.6653 10.0785 18.6152C10.0357 18.5584 9.99563 18.5053 9.96949 18.4523C9.82182 18.2027 9.64953 17.9032 9.50185 17.6286ZM13.5425 19.0983C13.7388 18.8247 13.9545 18.5082 14.0964 18.2444C14.1599 18.1247 14.2223 18.0106 14.2828 17.8996C14.3904 17.7027 14.4924 17.5159 14.586 17.326C14.659 17.1779 14.7261 17.0357 14.7876 16.9047C14.7938 16.8915 14.8 16.8783 14.8061 16.8653C14.8275 16.8196 14.8484 16.7753 14.8685 16.7327C14.6333 16.6568 14.3493 16.5799 14.0583 16.5011C13.734 16.4135 13.2877 16.3245 12.681 16.2349V19.7235H13.0079C13.1968 19.5648 13.3861 19.3469 13.5365 19.1073L13.5425 19.0983ZM13.0706 19.9H12.5046V16.0312C12.5648 16.0397 12.6236 16.0481 12.681 16.0565C13.3045 16.148 13.7663 16.2393 14.1044 16.3307C14.4019 16.4112 14.6994 16.4917 14.9454 16.5722C15.0047 16.5916 15.0609 16.6109 15.1135 16.6303C15.0893 16.6793 15.0637 16.7328 15.0366 16.7901C15.014 16.8377 14.9904 16.888 14.9658 16.9404C14.8994 17.0818 14.8256 17.2391 14.7443 17.404C14.6492 17.5968 14.544 17.7896 14.4351 17.9891C14.3748 18.0995 14.3134 18.2119 14.252 18.3275C14.1044 18.6021 13.8829 18.9265 13.686 19.2011C13.5137 19.4757 13.2922 19.7253 13.0706 19.9ZM16.7368 17.4752L16.7295 17.4696C16.6418 17.4029 16.5285 17.3335 16.3873 17.2619L16.3855 17.261C16.2831 17.2091 16.1546 17.1439 16.0263 17.0745C15.9245 17.28 15.7796 17.5694 15.5917 17.9314C15.4093 18.3209 15.1188 18.7688 14.7612 19.2484C15.1651 19.1339 15.5358 18.9622 15.8832 18.7509L15.889 18.7473L15.8951 18.7442C16.371 18.5029 16.7901 18.18 17.1518 17.829C17.1151 17.7887 17.0723 17.7449 17.0306 17.7027C16.9672 17.6384 16.8556 17.5475 16.7446 17.4799L16.7368 17.4752ZM17.3778 17.8533C16.984 18.2526 16.5164 18.627 15.9749 18.9016C15.5543 19.1575 15.0977 19.3588 14.5898 19.4743C14.5033 19.4939 14.4154 19.5111 14.3259 19.5256C14.3816 19.4549 14.4361 19.385 14.4892 19.3157C14.9051 18.7729 15.237 18.2738 15.4334 17.8533C15.6238 17.4865 15.7699 17.1945 15.872 16.9885C15.9019 16.9282 15.928 16.8752 15.9503 16.8299C16.0002 16.8589 16.0522 16.8879 16.1045 16.9162C16.2326 16.9856 16.3623 17.0513 16.4671 17.1045C16.6148 17.1794 16.7379 17.2543 16.8363 17.3291C16.9594 17.404 17.0825 17.5038 17.1563 17.5787C17.2301 17.6536 17.3286 17.7534 17.3778 17.8283V17.8533ZM8.22201 17.0296C8.20794 17.0378 8.19319 17.0461 8.17786 17.0546C8.14078 17.0751 8.10017 17.0965 8.05679 17.1186C7.89853 17.1992 7.70338 17.2891 7.50825 17.3791C7.26392 17.4823 7.00273 17.6027 6.75257 17.7542C6.70035 17.7858 6.64861 17.8188 6.5976 17.8533C6.64391 17.8935 6.69023 17.9338 6.73606 17.9731C6.86073 18.08 6.98187 18.1796 7.08984 18.2526C7.19615 18.3425 7.31521 18.4194 7.42866 18.4927C7.47281 18.5212 7.51611 18.5491 7.55748 18.5771C7.82822 18.7518 8.14818 18.9265 8.46814 19.0763C8.72287 19.1955 9.0244 19.3148 9.38515 19.434C9.47753 19.4646 9.57379 19.4951 9.67414 19.5256C9.60962 19.4508 9.552 19.3691 9.49871 19.2855C9.44807 19.2062 9.40132 19.1252 9.35626 19.0472C9.3221 18.988 9.28892 18.9305 9.25573 18.8766C9.1942 18.7768 9.12651 18.677 9.05882 18.5772C8.99114 18.4773 8.92346 18.3774 8.86193 18.2776C8.76917 18.1271 8.69039 17.9624 8.61505 17.8049C8.59045 17.7535 8.56621 17.7028 8.54197 17.6536C8.44746 17.5003 8.36747 17.347 8.29084 17.1936C8.26769 17.1473 8.24485 17.1009 8.22201 17.0546V17.0296ZM8.1351 17.2767C7.97377 17.3588 7.77888 17.4487 7.5897 17.5359L7.57697 17.5417C7.35218 17.6367 7.11793 17.7442 6.89364 17.8756C7.00042 17.9661 7.1001 18.0466 7.18868 18.1065L7.19652 18.1118L7.20375 18.1179C7.30091 18.2 7.40522 18.2674 7.51483 18.3381C7.56059 18.3677 7.60727 18.3978 7.65475 18.4299C7.91762 18.5994 8.22985 18.77 8.54294 18.9165C8.74205 19.0097 8.97194 19.1035 9.23934 19.1978C9.22428 19.172 9.20966 19.1467 9.19546 19.1221C9.16343 19.0666 9.13352 19.0147 9.1055 18.9693C9.04632 18.8733 8.98085 18.7766 8.91276 18.6762L8.91167 18.6746C8.84472 18.5758 8.77524 18.4733 8.7117 18.3702C8.61351 18.2109 8.52884 18.0338 8.45272 17.8747C8.43021 17.8276 8.40845 17.7821 8.3873 17.739C8.29181 17.5834 8.21085 17.4282 8.1351 17.2767Z" fill="#F49C00"/>
</svg>
