<svg width="24" height="24" viewBox="0 0 24 24" fill="none" xmlns="http://www.w3.org/2000/svg">
<path d="M12 3C14.1217 3 16.1566 3.84285 17.6569 5.34315C19.1571 6.84344 20 8.87827 20 11C20 14.8227 17.42 18.3413 12.3573 21.5627C12.2505 21.6305 12.1266 21.6665 12 21.6665C11.8734 21.6665 11.7495 21.6305 11.6427 21.5627C6.58 18.3413 4 14.8227 4 11C4 8.87827 4.84285 6.84344 6.34315 5.34315C7.84344 3.84285 9.87827 3 12 3ZM12 8.33333C11.2928 8.33333 10.6145 8.61428 10.1144 9.11438C9.61428 9.61448 9.33333 10.2928 9.33333 11C9.33333 11.7072 9.61428 12.3855 10.1144 12.8856C10.6145 13.3857 11.2928 13.6667 12 13.6667C12.7072 13.6667 13.3855 13.3857 13.8856 12.8856C14.3857 12.3855 14.6667 11.7072 14.6667 11C14.6667 10.2928 14.3857 9.61448 13.8856 9.11438C13.3855 8.61428 12.7072 8.33333 12 8.33333Z" fill="#F49C00"/>
</svg>
