<svg width="64" height="32" viewBox="0 0 64 32" fill="none" xmlns="http://www.w3.org/2000/svg">
<g opacity="0.5">
<path d="M0.5 4C0.5 2.067 2.067 0.5 4 0.5H31.5V31.5H4C2.067 31.5 0.5 29.933 0.5 28V4Z" fill="white"/>
<path fill-rule="evenodd" clip-rule="evenodd" d="M18.4 23.1999C18.0928 23.1999 17.7856 23.0823 17.5516 22.8483L11.5516 16.8483C11.0824 16.3791 11.0824 15.6207 11.5516 15.1515L17.5516 9.15146C18.0208 8.68226 18.7792 8.68226 19.2484 9.15146C19.7176 9.62066 19.7176 10.3791 19.2484 10.8483L14.0968 15.9999L19.2484 21.1515C19.7176 21.6207 19.7176 22.3791 19.2484 22.8483C19.0144 23.0823 18.7072 23.1999 18.4 23.1999Z" fill="#50525B"/>
<path d="M0.5 4C0.5 2.067 2.067 0.5 4 0.5H31.5V31.5H4C2.067 31.5 0.5 29.933 0.5 28V4Z" stroke="#BBBDC2"/>
</g>
<path d="M32.5 0.5H60C61.933 0.5 63.5 2.067 63.5 4V28C63.5 29.933 61.933 31.5 60 31.5H32.5V0.5Z" fill="white"/>
<path fill-rule="evenodd" clip-rule="evenodd" d="M45.6 23.2001C45.2928 23.2001 44.9856 23.0825 44.7516 22.8485C44.2824 22.3793 44.2824 21.6209 44.7516 21.1517L49.9032 16.0001L44.7516 10.8485C44.2824 10.3793 44.2824 9.6209 44.7516 9.1517C45.2208 8.6825 45.9792 8.6825 46.4484 9.1517L52.4484 15.1517C52.9176 15.6209 52.9176 16.3793 52.4484 16.8485L46.4484 22.8485C46.2144 23.0825 45.9072 23.2001 45.6 23.2001Z" fill="#50525B"/>
<path d="M32.5 0.5H60C61.933 0.5 63.5 2.067 63.5 4V28C63.5 29.933 61.933 31.5 60 31.5H32.5V0.5Z" stroke="#BBBDC2"/>
</svg>
