<svg width="24" height="24" viewBox="0 0 24 24" fill="none" xmlns="http://www.w3.org/2000/svg">
<path d="M15.771 3H8.229C4.953 3 3 4.953 3 8.229V15.762C3 19.047 4.953 21 8.229 21H15.762C19.038 21 20.991 19.047 20.991 15.771V8.229C21 4.953 19.047 3 15.771 3ZM16.725 12.297C16.725 12.666 16.419 12.972 16.05 12.972C15.681 12.972 15.375 12.666 15.375 12.297V9.579L8.427 16.527C8.292 16.662 8.121 16.725 7.95 16.725C7.779 16.725 7.608 16.662 7.473 16.527C7.212 16.266 7.212 15.834 7.473 15.573L14.421 8.625H11.703C11.334 8.625 11.028 8.319 11.028 7.95C11.028 7.581 11.334 7.275 11.703 7.275H16.05C16.419 7.275 16.725 7.581 16.725 7.95V12.297Z" fill="#744E4B"/>
</svg>
