<svg width="83" height="24" viewBox="0 0 83 24" fill="none" xmlns="http://www.w3.org/2000/svg">
<path d="M12 5C13.8615 5 15.6263 5.64582 17.1629 6.84145C18.6995 8.02836 20.0078 9.76509 20.9473 11.9382C21.0176 12.104 21.0176 12.296 20.9473 12.4531C19.0683 16.7993 15.7229 19.4 12 19.4H11.9912C8.27707 19.4 4.93171 16.7993 3.05268 12.4531C2.98244 12.296 2.98244 12.104 3.05268 11.9382C4.93171 7.592 8.27707 5 11.9912 5H12ZM12 8.70909C10.0595 8.70909 8.4878 10.2713 8.4878 12.2C8.4878 14.12 10.0595 15.6822 12 15.6822C13.9317 15.6822 15.5034 14.12 15.5034 12.2C15.5034 10.2713 13.9317 8.70909 12 8.70909ZM12.0011 10.0163C13.204 10.0163 14.1874 10.9937 14.1874 12.1981C14.1874 13.3937 13.204 14.3712 12.0011 14.3712C10.7893 14.3712 9.80593 13.3937 9.80593 12.1981C9.80593 12.0497 9.82349 11.9101 9.84983 11.7704H9.89374C10.8684 11.7704 11.6586 11.0024 11.6937 10.0424C11.7903 10.025 11.8957 10.0163 12.0011 10.0163Z" fill="#0033FF" fill-opacity="0.7"/>
<path d="M32.4599 17H33.6119L37.7399 5.8H36.5239L33.0359 15.512L29.5479 5.8H28.3319L32.4599 17ZM39.2418 7.304C39.6738 7.304 40.0098 6.952 40.0098 6.536C40.0098 6.12 39.6738 5.768 39.2418 5.768C38.8098 5.768 38.4738 6.12 38.4738 6.536C38.4738 6.952 38.8098 7.304 39.2418 7.304ZM38.7138 17H39.7698V9H38.7138V17ZM45.7066 8.808C43.2266 8.808 41.5306 10.648 41.5306 13C41.5306 15.416 43.2586 17.192 45.7866 17.192C47.4026 17.192 48.6346 16.44 49.3066 15.352L48.3786 14.808C47.9466 15.576 47.0666 16.168 45.8026 16.168C44.1066 16.168 42.8426 15.16 42.6186 13.528H49.6426C49.6586 13.368 49.6746 13.192 49.6746 13.032C49.6746 10.84 48.1546 8.808 45.7066 8.808ZM45.7066 9.832C47.0826 9.832 48.3626 10.744 48.5866 12.504H42.6186C42.8266 10.936 44.0266 9.832 45.7066 9.832ZM60.6739 9L58.7059 15.64L56.6099 9H55.5539L53.4579 15.64L51.4899 9H50.4019L52.8659 17H54.0179L56.0819 10.552L58.1459 17H59.2979L61.7619 9H60.6739ZM74.2344 9V10.568C73.5624 9.496 72.4264 8.808 71.0024 8.808C68.7464 8.808 66.8744 10.632 66.8744 13C66.8744 15.368 68.7464 17.192 71.0024 17.192C72.4264 17.192 73.5624 16.504 74.2344 15.432V17H75.2904V9H74.2344ZM71.0824 16.168C69.3064 16.168 67.9304 14.776 67.9304 13C67.9304 11.224 69.3064 9.832 71.0824 9.832C72.8584 9.832 74.2344 11.224 74.2344 13C74.2344 14.776 72.8584 16.168 71.0824 16.168ZM77.5263 17H78.5823V5.32H77.5263V17ZM80.8231 17H81.8791V5.32H80.8231V17Z" fill="#0033FF"/>
</svg>
