<svg width="88" height="16" viewBox="0 0 88 16" fill="none" xmlns="http://www.w3.org/2000/svg">
<g clip-path="url(#clip0_5402_97246)">
<path d="M2.14359 9.92813C1.63163 9.74465 1.11711 9.61212 0.607209 9.52469C0.761432 10.3505 1.04629 11.1663 1.47497 11.9419C2.72711 14.2073 4.91097 15.6298 7.28468 16C7.19831 13.5183 5.18724 11.0193 2.14359 9.92813ZM2.43347 7.41139C6.45133 7.06094 9.54382 3.93022 9.91657 0.12359C8.16614 -0.186281 6.30243 0.0774851 4.62548 1.00437C2.18876 2.35122 0.725291 4.77571 0.5 7.3554C1.12687 7.44618 1.77413 7.46886 2.43347 7.41139ZM8.52722 9.90578C8.42444 12.1405 9.12956 14.2248 10.3836 15.8777C11.0763 15.7124 11.7587 15.4539 12.4124 15.0926C16.3027 12.9424 17.7131 8.04542 15.5629 4.15509C15.0996 3.317 14.5084 2.5948 13.8278 1.99767C10.8295 3.3971 8.6897 6.37123 8.52722 9.90578Z" fill="url(#paint0_linear_5402_97246)"/>
<path d="M43.1211 14.5773H45.4416V1.16822H43.1211V14.5773Z" fill="white"/>
<path d="M52.4445 4.84243C51.2895 4.84243 50.1842 5.27837 49.4708 6.44162V5.04623H47.3818V14.5774H49.6159V9.52891C49.6159 9.13397 49.651 8.75606 49.7209 8.47943C49.9779 7.45139 50.7103 6.85433 51.7885 6.85433C52.9024 6.85433 53.5444 7.412 53.7508 8.52678C53.8004 8.79334 53.8243 9.17336 53.8243 9.52704V14.5774H56.059V8.93737C56.059 8.30445 55.9957 7.73249 55.8481 7.24423C55.3634 5.62447 54.0687 4.84243 52.4445 4.84243Z" fill="white"/>
<path d="M63.5225 12.3942C63.2802 12.4514 62.8757 12.4727 62.6142 12.4727H60.0456V8.69189H62.8085C63.0565 8.69189 63.3398 8.71674 63.5399 8.7616C64.626 9.00256 65.0423 9.85949 65.0423 10.5796C65.0423 11.5321 64.4303 12.1805 63.5225 12.3942ZM60.0456 3.27314H62.1059C62.5758 3.27314 63.0751 3.33794 63.3957 3.48583C63.955 3.74338 64.2563 4.22487 64.2563 4.94851C64.2563 5.67562 63.9351 6.17259 63.3653 6.42865C63.0801 6.55671 62.6638 6.62444 62.1823 6.62444H61.7419H60.0456V3.27314ZM65.2635 7.41071C66.1707 6.7141 66.5522 5.91503 66.5522 4.77353C66.5522 3.06517 65.4934 1.78399 63.8798 1.34761C63.461 1.23477 62.7806 1.16853 61.9883 1.16853H57.75V14.5773H62.4973C63.4224 14.5773 64.0426 14.4892 64.6503 14.2749C66.2409 13.7134 67.3383 12.4783 67.3383 10.666C67.3383 9.15275 66.6187 8.07513 65.2635 7.41071Z" fill="white"/>
<path d="M84.9223 5.04612L82.5356 11.8551L80.1142 5.04612H77.6934L81.4787 14.5773H83.541L87.3188 5.04612H84.9223Z" fill="white"/>
<path d="M70.3827 9.06208C70.543 7.69043 71.6552 6.78871 73.0067 6.78871C74.4265 6.78871 75.5058 7.72852 75.6648 9.06208H70.3827ZM72.9862 4.84255C70.2733 4.84255 68.165 7.02576 68.165 9.87861C68.165 12.5119 70.241 14.781 73.0812 14.781C75.1559 14.781 76.7628 13.5873 77.5836 11.6537H75.3113C74.7993 12.4192 74.1133 12.8347 73.1191 12.8347C71.6384 12.8347 70.6697 11.9637 70.3758 10.6235H77.8141C77.87 10.3064 77.8856 10.0405 77.8819 9.7183C77.8576 7.15656 75.8935 4.84255 72.9862 4.84255Z" fill="white"/>
<path d="M37.2336 12.471H34.4719V8.61676C34.822 8.60203 35.1655 8.59414 35.4975 8.59812C38.0088 8.63062 39.47 9.36158 39.47 10.6624C39.47 11.8331 38.4233 12.471 37.2336 12.471ZM34.4719 3.27313H36.4414C36.8913 3.27313 37.2684 3.32433 37.5268 3.40859C38.275 3.65247 38.683 4.21598 38.683 5.12472C38.683 5.96598 38.2594 6.51887 37.5873 6.77313C36.9474 6.66439 36.2321 6.60474 35.434 6.60405C35.1347 6.60381 34.8054 6.60853 34.4719 6.61903V3.27313ZM22.0394 11.5318L25.0186 3.82024L26.7517 8.44371C24.9587 9.26596 23.3602 10.3211 22.0394 11.5318ZM39.6701 7.42947C40.6366 6.72242 40.9786 5.66506 40.9786 4.77353C40.9786 3.06517 39.9198 1.78399 38.3065 1.34748C37.8876 1.23477 37.2074 1.16853 36.4149 1.16853H32.1764V6.82644C30.9932 7.00564 29.8487 7.2855 28.7562 7.65086L26.1105 1.16809H26.0431H24.0243H23.9812L18.5088 14.5773H20.7416C22.6711 12.5374 24.9746 11.0735 27.3735 10.1024L29.051 14.5773H31.5829L29.4637 9.38433C30.3708 9.12603 31.2793 8.93396 32.1764 8.80323V14.5773L33.3286 14.5784L33.3282 14.5806H37.3746C40.2339 14.5806 41.7678 12.9032 41.7678 10.6667C41.7678 9.31038 41.0961 8.15752 39.6701 7.42947Z" fill="white"/>
</g>
<defs>
<linearGradient id="paint0_linear_5402_97246" x1="0.5" y1="7.99988" x2="16.5688" y2="7.99988" gradientUnits="userSpaceOnUse">
<stop stop-color="#CD9F28"/>
<stop offset="1" stop-color="#ECD80B"/>
</linearGradient>
<clipPath id="clip0_5402_97246">
<rect width="88" height="16" fill="white"/>
</clipPath>
</defs>
</svg>
