<svg width="48" height="48" viewBox="0 0 48 48" fill="none" xmlns="http://www.w3.org/2000/svg">
<path d="M45 24C45 35.598 35.598 45 24 45C12.402 45 3 35.598 3 24C3 12.402 12.402 3 24 3C35.598 3 45 12.402 45 24Z" fill="#0DD83A"/>
<path d="M33.1442 17.7748C32.4302 17.0608 31.2542 17.0608 30.5402 17.7748L21.8672 26.4478L18.1922 22.7728C17.4782 22.0588 16.3022 22.0588 15.5882 22.7728C14.8742 23.4868 14.8742 24.6418 15.5882 25.3768L20.5862 30.3538C20.9432 30.7108 21.4052 30.8788 21.8672 30.8788C22.3502 30.8788 22.8122 30.7108 23.1692 30.3538L33.1442 20.3788C33.8582 19.6648 33.8582 18.5098 33.1442 17.7748Z" fill="white"/>
</svg>
