<svg width="32" height="32" viewBox="0 0 32 32" fill="none" xmlns="http://www.w3.org/2000/svg">
<path d="M24.221 15.3332H11.7959L17.2242 9.90486C17.658 9.47104 17.658 8.75913 17.2242 8.3253C17.1213 8.22218 16.9991 8.14037 16.8645 8.08455C16.7299 8.02873 16.5857 8 16.44 8C16.2943 8 16.1501 8.02873 16.0155 8.08455C15.8809 8.14037 15.7587 8.22218 15.6558 8.3253L8.3253 15.6558C8.22218 15.7587 8.14037 15.8809 8.08455 16.0155C8.02873 16.1501 8 16.2943 8 16.44C8 16.5857 8.02873 16.7299 8.08455 16.8645C8.14037 16.9991 8.22218 17.1213 8.3253 17.2242L15.6558 24.5547C15.7588 24.6577 15.881 24.7394 16.0156 24.7951C16.1501 24.8508 16.2943 24.8795 16.44 24.8795C16.5856 24.8795 16.7299 24.8508 16.8644 24.7951C16.999 24.7394 17.1212 24.6577 17.2242 24.5547C17.3272 24.4517 17.4089 24.3294 17.4646 24.1949C17.5204 24.0603 17.549 23.9161 17.549 23.7705C17.549 23.6248 17.5204 23.4806 17.4646 23.346C17.4089 23.2115 17.3272 23.0892 17.2242 22.9862L11.7959 17.5579H24.221C24.8328 17.5579 25.3333 17.0574 25.3333 16.4456C25.3333 15.8338 24.8328 15.3332 24.221 15.3332Z" fill="#74767E" stroke="#74767E" stroke-width="0.541667"/>
<path d="M2.34315 29.6569L3.19167 28.8083L2.34315 29.6569ZM29.6569 29.6569L28.8083 28.8083L29.6569 29.6569ZM29.6569 2.34315L28.8083 3.19167L29.6569 2.34315ZM2.34315 2.34315L1.49462 1.49462L2.34315 2.34315ZM16 30.8C12.1948 30.8 9.46169 30.7975 7.38172 30.5178C5.33628 30.2428 4.10312 29.7198 3.19167 28.8083L1.49462 30.5054C2.92631 31.9371 4.75035 32.5856 7.06193 32.8964C9.33899 33.2025 12.2627 33.2 16 33.2V30.8ZM-1.2 16C-1.2 19.7373 -1.20255 22.661 -0.896406 24.9381C-0.585623 27.2496 0.0629219 29.0737 1.49462 30.5054L3.19167 28.8083C2.28022 27.8969 1.7572 26.6637 1.48219 24.6183C1.20255 22.5383 1.2 19.8052 1.2 16H-1.2ZM30.8 16C30.8 19.8052 30.7975 22.5383 30.5178 24.6183C30.2428 26.6637 29.7198 27.8969 28.8083 28.8083L30.5054 30.5054C31.9371 29.0737 32.5856 27.2496 32.8964 24.9381C33.2025 22.661 33.2 19.7373 33.2 16H30.8ZM16 33.2C19.7373 33.2 22.661 33.2025 24.9381 32.8964C27.2496 32.5856 29.0737 31.9371 30.5054 30.5054L28.8083 28.8083C27.8969 29.7198 26.6637 30.2428 24.6183 30.5178C22.5383 30.7975 19.8052 30.8 16 30.8V33.2ZM16 1.2C19.8052 1.2 22.5383 1.20255 24.6183 1.48219C26.6637 1.7572 27.8969 2.28022 28.8083 3.19167L30.5054 1.49462C29.0737 0.0629219 27.2496 -0.585623 24.9381 -0.896406C22.661 -1.20255 19.7373 -1.2 16 -1.2V1.2ZM33.2 16C33.2 12.2627 33.2025 9.33899 32.8964 7.06193C32.5856 4.75035 31.9371 2.92631 30.5054 1.49462L28.8083 3.19167C29.7198 4.10312 30.2428 5.33628 30.5178 7.38172C30.7975 9.46169 30.8 12.1948 30.8 16H33.2ZM16 -1.2C12.2627 -1.2 9.33899 -1.20255 7.06193 -0.896406C4.75035 -0.585623 2.92631 0.0629219 1.49462 1.49462L3.19167 3.19167C4.10312 2.28022 5.33628 1.7572 7.38172 1.48219C9.46169 1.20255 12.1948 1.2 16 1.2V-1.2ZM1.2 16C1.2 12.1948 1.20255 9.46169 1.48219 7.38172C1.7572 5.33628 2.28022 4.10312 3.19167 3.19167L1.49462 1.49462C0.0629219 2.92631 -0.585623 4.75035 -0.896406 7.06193C-1.20255 9.33899 -1.2 12.2627 -1.2 16H1.2Z" fill="#BBBDC2"/>
</svg>
