<svg width="16" height="16" viewBox="0 0 16 16" fill="none" xmlns="http://www.w3.org/2000/svg">
<mask id="mask0" mask-type="alpha" maskUnits="userSpaceOnUse" x="3" y="5" width="10" height="7">
<path d="M3 5H13V11.6667H3V5Z" fill="white"/>
</mask>
<g mask="url(#mask0)">
<path d="M13.0003 5.52988C13.0003 5.62879 12.9664 5.72629 12.9003 5.81248L8.55224 11.4193C8.43226 11.5733 8.22447 11.6673 8.00015 11.6673C7.77584 11.6673 7.56805 11.5733 7.44806 11.4193L3.10003 5.81248C2.97396 5.64928 2.96614 5.44298 3.08177 5.27412C3.19654 5.10456 3.41477 5 3.65212 5H12.3482C12.5855 5 12.8038 5.10456 12.9185 5.27412C12.9733 5.35396 13.0003 5.44227 13.0003 5.52988Z" fill="#BBBDC2"/>
</g>
</svg>
