<svg width="24" height="24" viewBox="0 0 24 24" fill="none" xmlns="http://www.w3.org/2000/svg">
<path d="M18.1657 11.4999H8.84691L12.9182 7.42864C13.2435 7.10328 13.2435 6.56934 12.9182 6.24398C12.841 6.16664 12.7493 6.10528 12.6484 6.06341C12.5474 6.02155 12.4393 6 12.33 6C12.2207 6 12.1125 6.02155 12.0116 6.06341C11.9107 6.10528 11.819 6.16664 11.7418 6.24398L6.24398 11.7418C6.16664 11.819 6.10528 11.9107 6.06341 12.0116C6.02155 12.1125 6 12.2207 6 12.33C6 12.4393 6.02155 12.5474 6.06341 12.6484C6.10528 12.7493 6.16664 12.841 6.24398 12.9182L11.7418 18.416C11.8191 18.4932 11.9108 18.5545 12.0117 18.5963C12.1126 18.6381 12.2208 18.6596 12.33 18.6596C12.4392 18.6596 12.5474 18.6381 12.6483 18.5963C12.7492 18.5545 12.8409 18.4932 12.9182 18.416C12.9954 18.3388 13.0567 18.2471 13.0985 18.1462C13.1403 18.0452 13.1618 17.9371 13.1618 17.8278C13.1618 17.7186 13.1403 17.6105 13.0985 17.5095C13.0567 17.4086 12.9954 17.3169 12.9182 17.2397L8.84691 13.1684H18.1657C18.6246 13.1684 19 12.793 19 12.3342C19 11.8753 18.6246 11.4999 18.1657 11.4999Z" fill="#74767E" stroke="#74767E" stroke-width="0.541667"/>
<rect x="0.6" y="0.6" width="22.8" height="22.8" rx="7.4" stroke="#BBBDC2" stroke-width="1.2"/>
</svg>
