<svg width="24" height="24" viewBox="0 0 24 24" fill="none" xmlns="http://www.w3.org/2000/svg">
<path d="M10 4H14V21H10V4Z" fill="#DEE0E4"/>
<path d="M22.5 12C22.5 17.799 17.799 22.5 12 22.5C6.20101 22.5 1.5 17.799 1.5 12C1.5 6.20101 6.20101 1.5 12 1.5C17.799 1.5 22.5 6.20101 22.5 12Z" fill="#0DD83A"/>
<path d="M16.5721 8.88787C16.2151 8.53087 15.6271 8.53087 15.2701 8.88787L10.9336 13.2244L9.09612 11.3869C8.73912 11.0299 8.15112 11.0299 7.79412 11.3869C7.43712 11.7439 7.43712 12.3214 7.79412 12.6889L10.2931 15.1774C10.4716 15.3559 10.7026 15.4399 10.9336 15.4399C11.1751 15.4399 11.4061 15.3559 11.5846 15.1774L16.5721 10.1899C16.9291 9.83287 16.9291 9.25537 16.5721 8.88787Z" fill="white"/>
</svg>
