<svg width="16" height="20" viewBox="0 0 16 20" fill="none" xmlns="http://www.w3.org/2000/svg">
<path d="M14.9651 15.1166L15.3279 15.6C15.3784 15.6674 15.4092 15.7475 15.4168 15.8314C15.4243 15.9152 15.4084 15.9996 15.3707 16.0749C15.3331 16.1502 15.2752 16.2136 15.2035 16.2579C15.1319 16.3021 15.0493 16.3256 14.9651 16.3256H0.453489C0.36927 16.3256 0.286716 16.3021 0.215076 16.2579C0.143435 16.2136 0.0855397 16.1502 0.0478762 16.0749C0.0102127 15.9996 -0.00573064 15.9152 0.00183262 15.8314C0.00939589 15.7475 0.0401669 15.6674 0.0906978 15.6L0.453489 15.1166V7.25581C0.453489 5.33145 1.21794 3.48591 2.57867 2.12518C3.9394 0.76445 5.78494 0 7.7093 0C9.63366 0 11.4792 0.76445 12.8399 2.12518C14.2007 3.48591 14.9651 5.33145 14.9651 7.25581V15.1166ZM5.44186 17.2326H9.97674C9.97674 17.8339 9.73785 18.4107 9.31263 18.8359C8.8874 19.2611 8.31067 19.5 7.7093 19.5C7.10794 19.5 6.53121 19.2611 6.10598 18.8359C5.68075 18.4107 5.44186 17.8339 5.44186 17.2326Z" fill="#74767E"/>
</svg>
