<svg width="30" height="30" viewBox="0 0 30 30" fill="none" xmlns="http://www.w3.org/2000/svg">
<path d="M10.1254 3.82009V0.87891C10.1254 0.393517 9.73183 0 9.24644 0H6.20313C5.71774 0 5.32422 0.393517 5.32422 0.87891V3.82009H10.1254Z" fill="#6A423F"/>
<path d="M13.6209 12.3041C13.4395 10.707 12.5198 9.27094 11.1016 8.4045L10.1251 7.80796V5.57793H5.3239V7.80796L4.34743 8.4045C2.92916 9.27094 2.00947 10.707 1.82812 12.3041H13.6209Z" fill="#6A423F"/>
<path d="M24.6761 3.82009V0.87891C24.6761 0.393517 24.2826 0 23.7972 0H20.7539C20.2685 0 19.875 0.393517 19.875 0.87891V3.82009H24.6761Z" fill="#6A423F"/>
<path d="M19.8708 5.57793V7.80796L18.8943 8.4045C17.476 9.27099 16.5563 10.707 16.375 12.3041H28.1677C27.9863 10.707 27.0666 9.27094 25.6484 8.4045L24.6719 7.80796V5.57793H19.8708Z" fill="#6A423F"/>
<path d="M29.1212 14.062H0.87891C0.393517 14.062 0 14.4555 0 14.9409V29.1211C0 29.6065 0.393517 30 0.87891 30H29.1212C29.6066 30 30.0001 29.6065 30.0001 29.1211V14.9409C30.0001 14.4555 29.6066 14.062 29.1212 14.062ZM18.1517 23.1936H11.8484C10.3945 23.1936 9.21156 22.0107 9.21156 20.5568C9.21156 19.1028 10.3945 17.9199 11.8484 17.9199H18.1517C19.6057 17.9199 20.7886 19.1028 20.7886 20.5568C20.7886 22.0107 19.6057 23.1936 18.1517 23.1936Z" fill="#6A423F"/>
<path d="M11.8478 19.6777C11.3631 19.6777 10.9688 20.072 10.9688 20.5567C10.9688 21.0414 11.3631 21.4357 11.8478 21.4357H18.0925C18.5772 21.4357 18.9715 21.0414 18.9715 20.5567C18.9715 20.072 18.5772 19.6777 18.0925 19.6777H11.8478Z" fill="#6A423F"/>
</svg>
