<svg width="30" height="30" viewBox="0 0 30 30" fill="none" xmlns="http://www.w3.org/2000/svg">
<path d="M21.285 0.000152588H8.715C3.255 0.000152588 0 3.25515 0 8.71515V21.2852C0 26.7452 3.255 30.0002 8.715 30.0002H21.285C26.745 30.0002 30 26.7452 30 21.2852V8.71515C30 3.25515 26.745 0.000152588 21.285 0.000152588ZM11.955 19.3502L8.58 22.7252C8.355 22.9501 8.07 23.0552 7.785 23.0552C7.5 23.0552 7.2 22.9501 6.99 22.7252L5.865 21.6002C5.415 21.1651 5.415 20.4452 5.865 20.0102C6.3 19.5752 7.005 19.5752 7.455 20.0102L7.785 20.3402L10.365 17.7602C10.8 17.3252 11.505 17.3252 11.955 17.7602C12.39 18.1952 12.39 18.9151 11.955 19.3502ZM11.955 8.85015L8.58 12.2252C8.355 12.4502 8.07 12.5552 7.785 12.5552C7.5 12.5552 7.2 12.4502 6.99 12.2252L5.865 11.1002C5.415 10.6652 5.415 9.94515 5.865 9.51015C6.3 9.07515 7.005 9.07515 7.455 9.51015L7.785 9.84015L10.365 7.26015C10.8 6.82515 11.505 6.82515 11.955 7.26015C12.39 7.69515 12.39 8.41515 11.955 8.85015ZM23.34 21.9302H15.465C14.85 21.9302 14.34 21.4202 14.34 20.8052C14.34 20.1902 14.85 19.6802 15.465 19.6802H23.34C23.97 19.6802 24.465 20.1902 24.465 20.8052C24.465 21.4202 23.97 21.9302 23.34 21.9302ZM23.34 11.4302H15.465C14.85 11.4302 14.34 10.9202 14.34 10.3052C14.34 9.69015 14.85 9.18015 15.465 9.18015H23.34C23.97 9.18015 24.465 9.69015 24.465 10.3052C24.465 10.9202 23.97 11.4302 23.34 11.4302Z" fill="#6A423F"/>
</svg>
