<svg width="40" height="40" viewBox="0 0 40 40" fill="none" xmlns="http://www.w3.org/2000/svg">
<g clip-path="url(#clip0_3505:40654)">
<g opacity="0.2">
<path d="M27.0312 25.9375C26.9386 25.9375 25.9277 25.9375 24.4866 25.9375C24.6163 25.5709 24.6875 25.1766 24.6875 24.7656V22.0937C24.6936 22.082 24.6987 22.0723 24.7048 22.0605C26.603 20.7238 27.8585 18.6687 28.1327 16.375C29.5391 15.9062 30.5469 14.5938 30.5469 13.0469C30.5469 11.5234 29.5626 10.2109 28.2031 9.74211C27.5702 9.08594 25.4375 6.48438 20 6.48438C14.539 6.48438 12.4765 9.06242 11.7969 9.74211C10.4374 10.2109 9.45312 11.5234 9.45312 13.0469C9.45312 14.5937 10.4609 15.9062 11.8438 16.375C12.1016 18.5077 13.1563 20.4063 14.8438 21.7421C14.9844 21.8594 15.1484 21.9766 15.3125 22.0937V24.7656C15.3125 25.1766 15.3837 25.5709 15.5134 25.9375C14.0474 25.9375 13.028 25.9375 12.9688 25.9375C11.0302 25.9375 9.45312 27.5145 9.45312 29.4531V40H30.5469V29.4531C30.5469 27.5145 28.9699 25.9375 27.0312 25.9375Z" fill="#F49C00"/>
</g>
<path d="M16.0486 14.7854L16.0638 14.7812C18.64 14.0657 21.3626 14.0657 23.9388 14.7812L23.954 14.7854C24.4471 14.9224 24.9721 14.7234 25.2506 14.2941L28.2044 9.74211V5.85938C28.2044 2.62336 25.5811 0 22.3451 0H17.6576C14.4215 0 11.7982 2.62336 11.7982 5.85938V9.74211L14.752 14.2941C15.0305 14.7234 15.5555 14.9224 16.0486 14.7854ZM37.5559 38.5937L35.9153 30.4375C35.3997 27.8125 33.6419 25.6328 31.2045 24.5547L25.0887 21.834C24.9161 21.9461 24.8615 21.9816 24.6889 22.0938V22.4219C24.6889 24.3635 23.1149 25.9375 21.1733 25.9375H18.8295C16.8879 25.9375 15.3139 24.3635 15.3139 22.4219V22.0938C15.1498 21.9766 14.9858 21.8594 14.8451 21.7421L9.5249 23.4999C6.68888 24.4375 4.57951 26.8516 4.04045 29.8281L2.4467 38.6171C2.37631 38.9687 2.47013 39.3202 2.70451 39.5781C2.91552 39.8359 3.24349 40 3.59513 40H11.7983V29.4531C11.7983 28.8059 12.3229 28.2813 12.9701 28.2813H16.4858V35.3125C16.4858 35.7188 16.6963 36.0953 17.0419 36.3093C17.3876 36.5245 17.8179 36.5416 18.1818 36.3608L20.0014 35.4509L21.821 36.3608C21.9869 36.4432 22.1654 36.4844 22.3451 36.4844C22.5591 36.4844 22.7732 36.426 22.9608 36.3093C23.3065 36.0953 23.517 35.7188 23.517 35.3125V28.2813H27.0326C27.6798 28.2813 28.2045 28.8059 28.2045 29.4531V40H36.4076C36.7593 40 37.0872 39.8359 37.3217 39.5781C37.5325 39.2969 37.6263 38.9453 37.5559 38.5937Z" fill="#F49C00"/>
</g>
<defs>
<clipPath id="clip0_3505:40654">
<rect width="40" height="40" fill="white"/>
</clipPath>
</defs>
</svg>
