<svg width="32" height="32" viewBox="0 0 32 32" fill="none" xmlns="http://www.w3.org/2000/svg">
<g clip-path="url(#clip0_9337_8925)">
<path opacity="0.15" d="M26 32H6C2.686 32 0 29.314 0 26V6C0 2.686 2.686 0 6 0H26C29.314 0 32 2.686 32 6V26C32 29.314 29.314 32 26 32Z" fill="#737373"/>
<g clip-path="url(#clip1_9337_8925)">
<path d="M19.5156 18.9688C19.4693 18.9688 18.9638 18.9688 18.2433 18.9688C18.3081 18.7854 18.3437 18.5883 18.3437 18.3828V17.0469C18.3468 17.041 18.3493 17.0361 18.3524 17.0302C19.3015 16.3619 19.9293 15.3343 20.0664 14.1875C20.7695 13.9531 21.2734 13.2969 21.2734 12.5234C21.2734 11.7617 20.7813 11.1054 20.1016 10.8711C19.7851 10.543 18.7187 9.24219 16 9.24219C13.2695 9.24219 12.2382 10.5312 11.8984 10.8711C11.2187 11.1054 10.7266 11.7617 10.7266 12.5234C10.7266 13.2968 11.2305 13.9531 11.9219 14.1875C12.0508 15.2539 12.5782 16.2032 13.4219 16.8711C13.4922 16.9297 13.5742 16.9883 13.6562 17.0469V18.3828C13.6562 18.5883 13.6919 18.7854 13.7567 18.9688C13.0237 18.9688 12.514 18.9688 12.4844 18.9688C11.5151 18.9688 10.7266 19.7573 10.7266 20.7266V26H21.2734V20.7266C21.2734 19.7573 20.485 18.9688 19.5156 18.9688V18.9688Z" fill="#737373"/>
<path d="M14.0238 13.3927L14.0314 13.3906C15.3195 13.0329 16.6808 13.0329 17.9689 13.3906L17.9765 13.3927C18.2231 13.4612 18.4856 13.3617 18.6248 13.1471L20.1017 10.8711V8.92969C20.1017 7.31168 18.79 6 17.172 6H14.8283C13.2103 6 11.8986 7.31168 11.8986 8.92969V10.8711L13.3755 13.1471C13.5148 13.3617 13.7773 13.4612 14.0238 13.3927ZM24.7775 25.2968L23.9572 21.2188C23.6994 19.9063 22.8205 18.8164 21.6018 18.2773L18.5439 16.917C18.4576 16.973 18.4302 16.9908 18.344 17.0469V17.2109C18.344 18.1818 17.557 18.9688 16.5861 18.9688H15.4143C14.4434 18.9688 13.6565 18.1818 13.6565 17.2109V17.0469C13.5744 16.9883 13.4924 16.9297 13.4221 16.8711L10.762 17.75C9.34395 18.2188 8.28927 19.4258 8.01973 20.914L7.22286 25.3086C7.18766 25.4843 7.23458 25.6601 7.35177 25.7891C7.45727 25.918 7.62126 26 7.79708 26H11.8986V20.7266C11.8986 20.403 12.161 20.1406 12.4846 20.1406H14.2424V23.6563C14.2424 23.8594 14.3477 24.0477 14.5205 24.1546C14.6933 24.2622 14.9084 24.2708 15.0904 24.1804L16.0002 23.7255L16.91 24.1804C16.993 24.2216 17.0822 24.2422 17.1721 24.2422C17.2791 24.2422 17.3861 24.213 17.4799 24.1546C17.6527 24.0477 17.758 23.8594 17.758 23.6563V20.1406H19.5158C19.8394 20.1406 20.1018 20.403 20.1018 20.7266V26H24.2033C24.3791 26 24.5431 25.918 24.6604 25.7891C24.7658 25.6484 24.8127 25.4727 24.7775 25.2968Z" fill="#BFBFBF"/>
</g>
</g>
<defs>
<clipPath id="clip0_9337_8925">
<rect width="32" height="32" fill="white"/>
</clipPath>
<clipPath id="clip1_9337_8925">
<rect width="20" height="20" fill="white" transform="translate(6 6)"/>
</clipPath>
</defs>
</svg>
