<svg width="27" height="21" viewBox="0 0 27 21" fill="none" xmlns="http://www.w3.org/2000/svg">
<path d="M12.6723 17.7686C11.7798 17.7686 11.0565 18.4915 11.0565 19.3842C11.0565 20.2767 11.7798 20.9998 12.6723 20.9998C13.5652 20.9998 14.2883 20.2767 14.2883 19.3842C14.2883 18.4915 13.5651 17.7686 12.6723 17.7686ZM12.6723 20.0865C12.2843 20.0865 11.9699 19.7721 11.9699 19.3841C11.9699 18.9959 12.2843 18.6817 12.6723 18.6817C13.0603 18.6817 13.375 18.9958 13.375 19.3841C13.3749 19.7721 13.0603 20.0865 12.6723 20.0865Z" fill="#808080"/>
<path d="M21.1893 17.7686C20.2968 17.7686 19.5735 18.4915 19.5735 19.3842C19.5735 20.2767 20.2968 20.9998 21.1893 20.9998C22.0821 20.9998 22.8053 20.2767 22.8053 19.3842C22.8052 18.4915 22.0821 17.7686 21.1893 17.7686ZM21.1893 20.0865C20.8013 20.0865 20.4869 19.7721 20.4869 19.3841C20.4869 18.9959 20.8012 18.6817 21.1893 18.6817C21.5774 18.6817 21.892 18.9958 21.892 19.3841C21.8919 19.7721 21.5773 20.0865 21.1893 20.0865Z" fill="#808080"/>
<path d="M24.3562 15.2148C23.7638 15.0607 23.4247 14.9639 23.192 14.5146L22.4141 12.9395C22.1814 12.4902 21.5771 12.1226 21.071 12.1226H19.8639V10.6605C19.8639 10.1485 19.445 9.72949 18.9328 9.72949H9.91598C9.40395 9.72949 8.98499 10.1485 8.98499 10.6605V18.5516C8.98499 19.0637 9.40395 19.4826 9.91598 19.4826H10.5666C10.5652 19.4503 10.5642 19.4177 10.5642 19.3851C10.5642 18.2241 11.5088 17.2798 12.6697 17.2798C13.8307 17.2798 14.7752 18.2242 14.7752 19.3851C14.7752 19.4178 14.7742 19.4504 14.7728 19.4826H18.9331C18.9855 19.4826 19.0366 19.4778 19.0868 19.4693C19.0856 19.4413 19.0847 19.4133 19.0847 19.385C19.0847 18.224 20.0293 17.2796 21.1902 17.2796C22.3514 17.2796 23.2958 18.2241 23.2958 19.385C23.2958 19.4177 23.2948 19.4502 23.2933 19.4825H25.2163C25.7223 19.4825 26.1362 19.0685 26.1362 18.5625V16.8146C26.136 15.3427 24.8482 15.3427 24.3562 15.2148ZM17.7624 15.614C17.7624 15.9373 17.4979 16.2017 17.1746 16.2017H11.4453C11.1221 16.2017 10.8576 15.9371 10.8576 15.614V11.8924C10.8576 11.5692 11.1221 11.3048 11.4453 11.3048H17.1747C17.498 11.3048 17.7625 11.5692 17.7625 11.8924V15.614H17.7624ZM19.8641 15.1329V12.7622H20.7442C21.1945 12.7622 21.7322 13.0893 21.9392 13.4891L22.6314 14.8906C22.6821 14.9884 22.7385 15.0673 22.8025 15.1329H19.8641V15.1329Z" fill="#808080"/>
<path d="M7.55652 9.38606C7.55652 8.90316 7.95164 8.50804 8.43454 8.50804H18.3269H19.2049C20.0097 8.50804 20.1494 7.43567 19.5152 6.94007L18.0204 5.77194C17.9985 5.75302 17.9756 5.73518 17.9519 5.71849L11.1095 0.371653C10.4753 -0.123884 9.43757 -0.123884 8.80337 0.371653L1.96093 5.71849C1.93715 5.73518 1.91444 5.75302 1.89248 5.77194L0.397624 6.94013C-0.236579 7.43567 -0.0968992 8.50811 0.707934 8.50811H1.58595V18.5804C1.58595 19.0633 1.98107 19.4584 2.46397 19.4584C2.46397 19.4584 5.59762 19.4584 6.73675 19.4584C7.28331 19.4584 7.55645 19.0881 7.55645 18.5407C7.55652 18.2952 7.55652 9.38606 7.55652 9.38606Z" fill="#808080"/>
</svg>
