<svg width="16" height="16" viewBox="0 0 16 16" fill="none" xmlns="http://www.w3.org/2000/svg">
<path fill-rule="evenodd" clip-rule="evenodd" d="M8 15C4.13401 15 1 11.866 1 8C1 4.13401 4.13401 1 8 1C11.866 1 15 4.13401 15 8C15 11.866 11.866 15 8 15ZM7.125 7.12465C7.125 7.6079 7.51675 7.99965 8 7.99965C8.48325 7.99965 8.875 7.6079 8.875 7.12465V5.37465C8.875 4.8914 8.48325 4.49965 8 4.49965C7.51675 4.49965 7.125 4.8914 7.125 5.37465V7.12465ZM7.125 10.6247C7.125 11.1079 7.51675 11.4997 8 11.4997C8.48325 11.4997 8.875 11.1079 8.875 10.6247C8.875 10.1414 8.48325 9.74965 8 9.74965C7.51675 9.74965 7.125 10.1414 7.125 10.6247Z" fill="#FF0000"/>
</svg>
