<svg width="16" height="16" viewBox="0 0 16 16" fill="none" xmlns="http://www.w3.org/2000/svg">
<path d="M8 14.5625C4.37563 14.5625 1.4375 11.6244 1.4375 8C1.4375 4.37563 4.37563 1.4375 8 1.4375C11.6244 1.4375 14.5625 4.37563 14.5625 8C14.5625 11.6244 11.6244 14.5625 8 14.5625Z" stroke="#D82C0D" stroke-width="0.875"/>
<path d="M7.125 5.375C7.125 4.89175 7.51675 4.5 8 4.5C8.48325 4.5 8.875 4.89175 8.875 5.375V7.125C8.875 7.60825 8.48325 8 8 8C7.51675 8 7.125 7.60825 7.125 7.125V5.375Z" fill="#D82C0D"/>
<path d="M8.875 10.625C8.875 11.1082 8.48325 11.5 8 11.5C7.51675 11.5 7.125 11.1082 7.125 10.625C7.125 10.1418 7.51675 9.75 8 9.75C8.48325 9.75 8.875 10.1418 8.875 10.625Z" fill="#D82C0D"/>
</svg>
