<svg width="24" height="24" viewBox="0 0 24 24" fill="none" xmlns="http://www.w3.org/2000/svg">
<path d="M23 12C23 18.0751 18.0751 23 12 23C5.92487 23 1 18.0751 1 12C1 5.92487 5.92487 1 12 1C18.0751 1 23 5.92487 23 12Z" fill="white"/>
<path d="M13.2219 6.65279C13.2219 7.24343 12.7431 7.72223 12.1525 7.72223C11.5618 7.72223 11.083 7.24343 11.083 6.65279C11.083 6.06215 11.5618 5.58334 12.1525 5.58334C12.7431 5.58334 13.2219 6.06215 13.2219 6.65279Z" fill="#B11F24"/>
<path d="M11.0825 10.9305C11.0825 10.3399 11.5613 9.86105 12.152 9.86105C12.7426 9.86105 13.2214 10.3399 13.2214 10.9305V17.3472C13.2214 17.9378 12.7426 18.4166 12.152 18.4166C11.5613 18.4166 11.0825 17.9378 11.0825 17.3472V10.9305Z" fill="#B11F24"/>
</svg>
