<svg width="16" height="16" viewBox="0 0 16 16" fill="none" xmlns="http://www.w3.org/2000/svg">
<path d="M15.3327 7.99984C15.3327 12.0499 12.0494 15.3332 7.99935 15.3332C3.94926 15.3332 0.666016 12.0499 0.666016 7.99984C0.666016 3.94975 3.94926 0.666504 7.99935 0.666504C12.0494 0.666504 15.3327 3.94975 15.3327 7.99984Z" fill="white"/>
<path d="M8.8146 4.43513C8.8146 4.82889 8.49539 5.14809 8.10163 5.14809C7.70788 5.14809 7.38867 4.82889 7.38867 4.43513C7.38867 4.04137 7.70788 3.72217 8.10163 3.72217C8.49539 3.72217 8.8146 4.04137 8.8146 4.43513Z" fill="#0DD83A"/>
<path d="M7.38867 7.28669C7.38867 6.89293 7.70788 6.57373 8.10163 6.57373C8.49539 6.57373 8.8146 6.89293 8.8146 7.28669V11.5645C8.8146 11.9582 8.49539 12.2774 8.10163 12.2774C7.70788 12.2774 7.38867 11.9582 7.38867 11.5645V7.28669Z" fill="#0DD83A"/>
</svg>
