<svg width="152" height="41" viewBox="0 0 152 41" fill="none" xmlns="http://www.w3.org/2000/svg">
<path d="M68.3306 14.481C69.8542 13.8636 70.4193 13.0294 70.4193 11.9982C70.4193 10.1985 68.8493 9.39718 66.2745 9.39718H61.6704C61.9593 9.83724 62.2351 10.3102 62.2351 11.0195V14.5927C60.8822 14.862 59.6671 15.0919 58.5241 15.3678C57.4993 12.5434 56.3567 9.39718 56.3567 9.39718H53.493C53.5389 9.79126 53.4994 10.2116 53.289 10.7831L50.0837 19.716C50.0837 19.716 49.8738 20.3465 49.4336 20.9114H51.7786C51.7327 20.6027 51.7917 20.1954 51.8703 19.9458C52.107 19.243 52.7439 18.7767 53.4203 18.4746C54.3007 18.0739 55.8312 17.5944 56.5535 17.3776L57.3157 19.5583C57.3157 19.5583 57.6242 20.3793 57.4602 20.9114H60.7705C60.2713 20.2348 60.1004 19.7291 60.1004 19.716C60.0218 19.5058 59.588 18.2972 59.0297 16.7733C60.0414 16.5303 61.0989 16.3267 62.2351 16.1034V19.2759C62.2351 19.8867 61.9857 20.4253 61.6704 20.9048H66.0447C66.7606 20.9048 67.3979 20.8654 67.8772 20.78C69.756 20.4516 71.1025 19.4926 71.1025 17.4499C71.1089 15.8866 70.0581 14.9539 68.3306 14.481ZM53.5389 16.8587C53.2627 16.9901 52.9083 17.2069 52.7044 17.4105C53.3353 15.5714 54.2021 13.0426 54.6224 11.8471L56.0674 15.972C55.3383 16.1822 54.2153 16.5369 53.5389 16.8587ZM64.7904 10.8356C65.2433 10.8093 65.4077 10.8093 65.703 10.8093C67.1154 10.8093 67.7722 11.4005 67.7722 12.2347C67.7722 13.0294 67.2467 13.522 66.3731 13.7848C66.0055 13.8965 65.3946 14.0212 64.7904 14.1263V10.8356ZM65.8543 19.4795H64.7967V15.6436C65.191 15.5517 65.8216 15.44 66.2354 15.394C67.5097 15.6896 68.4487 16.215 68.4487 17.5156C68.4423 19.0329 67.3321 19.4795 65.8543 19.4795Z" fill="#B31F24"/>
<path d="M72.2969 20.9113C72.8616 20.064 72.8616 19.2955 72.8616 19.2823V11.0326C72.8616 11.0194 72.8616 10.2575 72.2969 9.40367H75.9947C75.4296 10.2575 75.4296 11.0194 75.4296 11.0326V19.2823C75.4296 19.2955 75.4296 20.064 75.9947 20.9113H72.2969Z" fill="#431512"/>
<path d="M113.69 12.8061H111.213C111.424 13.1476 111.338 13.6928 111.122 14.2445L109.519 18.5205L107.857 14.2445C107.634 13.6928 107.555 13.1476 107.765 12.8061H104.566C105.006 13.2724 105.282 13.8701 105.44 14.2445L108.192 20.9113H110.333C110.333 20.9113 110.386 20.3661 110.629 19.7553L112.842 14.2445C112.993 13.8635 113.309 13.2067 113.69 12.8061Z" fill="#431512"/>
<path d="M104.89 17.0951C105.048 15.4004 104.581 12.4513 100.838 12.4513C97.7832 12.4513 96.6602 14.5794 96.6602 16.655C96.6602 19.2954 98.0984 21.1083 101.54 21.1083C102.939 21.1083 104.069 20.6945 104.739 20.2873L104.049 18.7634C103.399 19.0918 102.604 19.3808 101.718 19.3808C100.181 19.3808 99.235 18.8422 99.0311 17.3184H102.355C103.577 17.3249 104.568 17.2527 104.89 17.0951ZM99.0378 15.9259C99.1887 14.6188 99.7733 13.9554 100.838 13.9554C101.941 13.9554 102.486 14.8093 102.532 15.9128C102.532 15.9128 102.046 15.9259 101.416 15.9259H99.0378Z" fill="#431512"/>
<path d="M82.3141 20.9113H85.5917C85.0924 20.1625 85.0924 19.4794 85.0924 19.4729V15.1444C85.0924 13.5943 84.258 12.6419 82.4977 12.6419C81.3747 12.6419 80.4484 13.1476 79.7656 13.7651V12.8061H76.9805C77.4797 13.5614 77.4797 14.238 77.4797 14.2445V19.4663C77.4797 19.4794 77.4797 20.156 76.9805 20.9048H80.2645C79.7656 20.156 79.7656 19.4729 79.7656 19.4663V15.1444C80.1858 14.7109 80.7836 14.3956 81.4405 14.3956C82.4454 14.3956 82.8129 14.9539 82.8129 15.8209V19.4663C82.8129 19.4794 82.8129 20.156 82.3141 20.9113Z" fill="#431512"/>
<path d="M90.8059 15.4793C92.4218 15.4793 93.3085 16.2675 93.3085 17.5418C93.3085 18.6846 92.6253 19.5188 90.7664 19.5188H89.6566V15.4793H90.8059ZM90.5629 10.7962C91.9752 10.7962 92.6317 11.3479 92.6317 12.3857C92.6317 13.4169 92.0407 14.0343 90.681 14.0343C90.4184 14.0343 89.9388 14.0409 89.6566 14.0343V10.7962H90.5629ZM90.8586 20.9113C91.5746 20.9113 92.2378 20.8719 92.7171 20.7865C94.5628 20.4646 95.9293 19.5188 95.9293 17.4826C95.9293 15.8472 94.8849 14.9998 93.2427 14.5269C94.7141 13.9686 95.2065 13.1673 95.2065 12.123C95.2065 10.3233 93.7419 9.40367 91.1017 9.40367H86.6875C86.9964 9.87002 87.1013 10.5465 87.1013 11.0326V19.2824C87.1013 19.821 87.0028 20.3858 86.6875 20.9113H90.8586Z" fill="#431512"/>
<path d="M52.8215 33.1394C53.0532 33.1394 53.2812 33.1249 53.5056 33.096C53.7373 33.067 53.9436 33.0091 54.1246 32.9222C54.5589 32.7557 54.8919 32.4625 55.1236 32.0427C55.3625 31.6156 55.4819 31.0726 55.4819 30.4139C55.4819 29.7913 55.3588 29.2737 55.1127 28.8611C54.8666 28.4484 54.5263 28.1589 54.092 27.9924C53.9327 27.9127 53.7373 27.8584 53.5056 27.8295C53.2812 27.8005 53.0315 27.786 52.7564 27.786H51.9745V33.1394H52.8215ZM52.9084 26.6676C53.2848 26.6676 53.6287 26.6857 53.94 26.7219C54.2585 26.7581 54.5481 26.8196 54.8087 26.9065C55.5688 27.1599 56.1551 27.5978 56.5678 28.2204C56.9876 28.8357 57.1976 29.5705 57.1976 30.4247C57.1976 31.3079 57.0021 32.0463 56.6112 32.6399C56.2203 33.2335 55.6737 33.6715 54.9715 33.9538C54.682 34.0696 54.3562 34.1529 53.9943 34.2035C53.6323 34.247 53.2559 34.2687 52.865 34.2687H50.3023V27.8186C50.3023 27.6159 50.2806 27.4096 50.2371 27.1997C50.2009 26.9825 50.143 26.8051 50.0634 26.6676H52.9084ZM58.3052 34.2687V29.9904C58.3052 29.7877 58.2835 29.5813 58.24 29.3714C58.2038 29.1542 58.1459 28.9769 58.0663 28.8393H59.8145V34.2687H58.3052ZM58.1749 27.2105C58.1749 26.9716 58.2581 26.7689 58.4246 26.6024C58.5984 26.4359 58.8047 26.3527 59.0436 26.3527C59.2752 26.3527 59.4743 26.4359 59.6408 26.6024C59.8145 26.7689 59.9014 26.9716 59.9014 27.2105C59.9014 27.4494 59.8145 27.6521 59.6408 27.8186C59.4743 27.9851 59.2752 28.0684 59.0436 28.0684C58.8047 28.0684 58.5984 27.9851 58.4246 27.8186C58.2581 27.6521 58.1749 27.4494 58.1749 27.2105ZM63.2072 34.3773C62.7077 34.3773 62.2553 34.3121 61.8499 34.1818C61.4445 34.0515 61.0898 33.8705 60.7857 33.6389L61.4915 32.8462C61.7449 32.991 62.0127 33.1032 62.2951 33.1828C62.5846 33.2625 62.8851 33.3023 63.1963 33.3023C63.5004 33.3023 63.7139 33.2661 63.837 33.1937C63.9673 33.1141 64.0325 33.0091 64.0325 32.8788C64.0325 32.734 63.9601 32.6182 63.8153 32.5313C63.6705 32.4372 63.4859 32.3503 63.2615 32.2707C63.0443 32.1911 62.8054 32.1078 62.5448 32.0209C62.2915 31.9341 62.0526 31.8219 61.8281 31.6843C61.611 31.5395 61.43 31.3586 61.2852 31.1414C61.1404 30.9242 61.068 30.6491 61.068 30.3161C61.068 29.8601 61.2526 29.4836 61.6218 29.1868C61.9983 28.8828 62.5267 28.7307 63.2072 28.7307C63.7067 28.7307 64.1338 28.7995 64.4885 28.9371C64.8433 29.0674 65.1328 29.2194 65.3572 29.3931L64.4885 30.3704C64.4017 30.2184 64.2496 30.0845 64.0325 29.9686C63.8225 29.8456 63.5547 29.784 63.2289 29.784C63.0045 29.784 62.8235 29.8239 62.686 29.9035C62.5557 29.9759 62.4905 30.0772 62.4905 30.2075C62.4905 30.3523 62.5629 30.4718 62.7077 30.5659C62.8597 30.66 63.0443 30.7505 63.2615 30.8373C63.4859 30.917 63.7284 31.0038 63.989 31.098C64.2496 31.1921 64.4885 31.3079 64.7057 31.4454C64.9301 31.583 65.1147 31.7531 65.2595 31.9558C65.4115 32.1585 65.4875 32.4155 65.4875 32.7268C65.4875 33.248 65.2921 33.6534 64.9012 33.9429C64.5103 34.2325 63.9456 34.3773 63.2072 34.3773ZM70.3015 34.0407C70.135 34.1348 69.9396 34.2108 69.7151 34.2687C69.4907 34.3266 69.2265 34.3556 68.9225 34.3556C68.1768 34.3556 67.6303 34.1565 67.2828 33.7583C66.9353 33.3602 66.7616 32.7992 66.7616 32.0752V29.9578H66.1861V28.8393H66.7616V27.71L68.2927 27.2214V28.8393H70.1386L69.8455 29.9578H68.2927V31.9449C68.2927 32.3576 68.3795 32.6725 68.5533 32.8896C68.727 33.0996 69.0093 33.2045 69.4002 33.2045C69.5088 33.2045 69.6174 33.1973 69.726 33.1828C69.8418 33.1683 69.9396 33.1503 70.0192 33.1285L70.3015 34.0407ZM74.3313 30.0664C73.7304 30.0302 73.2852 30.175 72.9957 30.5007C72.7061 30.8192 72.5613 31.3513 72.5613 32.097V34.2687H71.0302V30.0447C71.0302 29.5741 70.9506 29.1723 70.7913 28.8393H72.3007C72.3514 28.9552 72.3876 29.1144 72.4093 29.3171C72.4383 29.5126 72.46 29.708 72.4744 29.9035C72.6699 29.4619 72.8907 29.1579 73.1368 28.9914C73.3902 28.8176 73.6761 28.7307 73.9947 28.7307C74.1105 28.7307 74.2227 28.7416 74.3313 28.7633C74.4399 28.785 74.5231 28.8104 74.581 28.8393L74.3313 30.0664ZM75.3568 34.2687V29.9904C75.3568 29.7877 75.335 29.5813 75.2916 29.3714C75.2554 29.1542 75.1975 28.9769 75.1179 28.8393H76.8661V34.2687H75.3568ZM75.2265 27.2105C75.2265 26.9716 75.3097 26.7689 75.4762 26.6024C75.6499 26.4359 75.8563 26.3527 76.0952 26.3527C76.3268 26.3527 76.5259 26.4359 76.6924 26.6024C76.8661 26.7689 76.953 26.9716 76.953 27.2105C76.953 27.4494 76.8661 27.6521 76.6924 27.8186C76.5259 27.9851 76.3268 28.0684 76.0952 28.0684C75.8563 28.0684 75.6499 27.9851 75.4762 27.8186C75.3097 27.6521 75.2265 27.4494 75.2265 27.2105ZM79.8353 33.0742C79.9584 33.1394 80.0814 33.1901 80.2045 33.2263C80.3348 33.2625 80.5158 33.2806 80.7474 33.2806C81.0153 33.2806 81.2433 33.2371 81.4315 33.1503C81.6198 33.0634 81.7718 32.9439 81.8876 32.7919C82.0107 32.6327 82.0975 32.4481 82.1482 32.2381C82.2061 32.0209 82.2351 31.7857 82.2351 31.5323C82.2351 31.0111 82.112 30.6057 81.8659 30.3161C81.627 30.0266 81.2687 29.8818 80.7909 29.8818C80.5665 29.8818 80.3782 29.9035 80.2262 29.9469C80.0814 29.9904 79.9511 30.041 79.8353 30.0989V33.0742ZM79.8353 26.6676V29.0348C80.0018 28.9624 80.19 28.8936 80.4 28.8285C80.6099 28.7633 80.8741 28.7307 81.1926 28.7307C81.5908 28.7307 81.9491 28.7923 82.2677 28.9153C82.5934 29.0384 82.8685 29.2194 83.0929 29.4583C83.3246 29.6972 83.5019 29.994 83.625 30.3487C83.7553 30.6962 83.8205 31.0943 83.8205 31.5432C83.8205 31.9558 83.7481 32.3395 83.6033 32.6942C83.4585 33.0417 83.2486 33.3421 82.9735 33.5955C82.7056 33.8416 82.3726 34.037 81.9745 34.1818C81.5836 34.3194 81.1347 34.3881 80.628 34.3881C80.0778 34.3881 79.6109 34.323 79.2272 34.1927C78.8435 34.0551 78.5431 33.9104 78.3259 33.7583V27.8186C78.3259 27.6159 78.3042 27.4096 78.2608 27.1997C78.2246 26.9825 78.1667 26.8051 78.0871 26.6676H79.8353ZM89.9817 32.9005C89.9817 33.1104 90.036 33.2516 90.1446 33.324C90.2532 33.3891 90.3943 33.4036 90.5681 33.3674V34.2035C90.4884 34.2253 90.4016 34.2434 90.3074 34.2578C90.2133 34.2796 90.1084 34.294 89.9925 34.3013C89.8767 34.3158 89.7464 34.323 89.6016 34.323C89.2976 34.323 89.0623 34.2651 88.8958 34.1493C88.7293 34.0334 88.6062 33.885 88.5266 33.704C88.3384 33.8923 88.1031 34.0479 87.8208 34.171C87.5457 34.2868 87.2055 34.3447 86.8001 34.3447C86.2065 34.3447 85.7359 34.1818 85.3884 33.8561C85.0482 33.5303 84.8781 33.096 84.8781 32.553V29.9904C84.8781 29.4909 84.7985 29.1072 84.6392 28.8393H86.4092V32.173C86.4092 32.4915 86.4852 32.7376 86.6372 32.9114C86.7892 33.0851 87.0281 33.172 87.3539 33.172C87.5783 33.172 87.781 33.1358 87.962 33.0634C88.1429 32.991 88.3058 32.8969 88.4506 32.7811V28.8393H89.9817V32.9005ZM95.3487 34.0407C95.1822 34.1348 94.9867 34.2108 94.7623 34.2687C94.5379 34.3266 94.2737 34.3556 93.9696 34.3556C93.224 34.3556 92.6774 34.1565 92.33 33.7583C91.9825 33.3602 91.8087 32.7992 91.8087 32.0752V29.9578H91.2332V28.8393H91.8087V27.71L93.3398 27.2214V28.8393H95.1858L94.8926 29.9578H93.3398V31.9449C93.3398 32.3576 93.4267 32.6725 93.6004 32.8896C93.7742 33.0996 94.0565 33.2045 94.4474 33.2045C94.556 33.2045 94.6646 33.1973 94.7732 33.1828C94.889 33.1683 94.9867 33.1503 95.0664 33.1285L95.3487 34.0407ZM98.6401 34.3773C98.1695 34.3773 97.7533 34.3049 97.3913 34.1601C97.0294 34.0153 96.7253 33.8163 96.4792 33.5629C96.2331 33.3095 96.0448 33.0091 95.9145 32.6616C95.7915 32.3141 95.7299 31.9413 95.7299 31.5432C95.7299 31.145 95.7915 30.7758 95.9145 30.4356C96.0448 30.0881 96.2331 29.7913 96.4792 29.5452C96.7253 29.2918 97.0294 29.0927 97.3913 28.9479C97.7533 28.8031 98.1695 28.7307 98.6401 28.7307C99.1106 28.7307 99.5269 28.8031 99.8888 28.9479C100.251 29.0927 100.555 29.2918 100.801 29.5452C101.047 29.7913 101.232 30.0881 101.355 30.4356C101.485 30.7758 101.55 31.145 101.55 31.5432C101.55 31.9413 101.485 32.3141 101.355 32.6616C101.232 33.0091 101.047 33.3095 100.801 33.5629C100.555 33.8163 100.251 34.0153 99.8888 34.1601C99.5269 34.3049 99.1106 34.3773 98.6401 34.3773ZM98.6401 29.8601C98.2274 29.8601 97.9053 30.0157 97.6736 30.327C97.442 30.631 97.3262 31.0364 97.3262 31.5432C97.3262 32.0571 97.442 32.4698 97.6736 32.7811C97.9053 33.0923 98.2274 33.248 98.6401 33.248C99.0599 33.248 99.3857 33.0923 99.6174 32.7811C99.849 32.4698 99.9648 32.0571 99.9648 31.5432C99.9648 31.0364 99.849 30.631 99.6174 30.327C99.3857 30.0157 99.0599 29.8601 98.6401 29.8601ZM105.964 30.0664C105.363 30.0302 104.918 30.175 104.628 30.5007C104.339 30.8192 104.194 31.3513 104.194 32.097V34.2687H102.663V30.0447C102.663 29.5741 102.583 29.1723 102.424 28.8393H103.933C103.984 28.9552 104.02 29.1144 104.042 29.3171C104.071 29.5126 104.092 29.708 104.107 29.9035C104.302 29.4619 104.523 29.1579 104.769 28.9914C105.023 28.8176 105.309 28.7307 105.627 28.7307C105.743 28.7307 105.855 28.7416 105.964 28.7633C106.072 28.785 106.156 28.8104 106.213 28.8393L105.964 30.0664Z" fill="#B31F24"/>
<path d="M115.733 33.7692C115.451 33.9574 115.107 34.1022 114.701 34.2035C114.303 34.2977 113.822 34.3447 113.257 34.3447C112.635 34.3447 112.07 34.2542 111.563 34.0732C111.064 33.8923 110.637 33.6353 110.282 33.3023C109.934 32.962 109.667 32.5494 109.478 32.0644C109.29 31.5794 109.196 31.0364 109.196 30.4356C109.196 29.8854 109.283 29.375 109.457 28.9045C109.63 28.4339 109.884 28.0249 110.217 27.6775C110.55 27.33 110.955 27.0585 111.433 26.863C111.918 26.6604 112.468 26.559 113.083 26.559C113.699 26.559 114.227 26.6386 114.669 26.7979C115.11 26.9572 115.509 27.1888 115.863 27.4929L114.94 28.6113C114.933 28.5896 114.893 28.5317 114.821 28.4376C114.748 28.3435 114.64 28.2421 114.495 28.1335C114.35 28.0249 114.162 27.9308 113.93 27.8512C113.699 27.7643 113.416 27.7209 113.083 27.7209C112.765 27.7209 112.472 27.786 112.204 27.9163C111.936 28.0394 111.704 28.2168 111.509 28.4484C111.321 28.6801 111.172 28.966 111.064 29.3063C110.962 29.6393 110.912 30.0157 110.912 30.4356C110.912 30.8627 110.97 31.2464 111.085 31.5866C111.209 31.9196 111.375 32.2019 111.585 32.4336C111.802 32.6652 112.063 32.8426 112.367 32.9657C112.671 33.0887 113.007 33.1503 113.377 33.1503C113.731 33.1503 114.039 33.1213 114.3 33.0634C114.56 32.9982 114.806 32.9041 115.038 32.7811L115.733 33.7692ZM121.529 31.7712C121.428 31.8291 121.229 31.8689 120.932 31.8906C120.635 31.9124 120.288 31.9232 119.89 31.9232H117.696C117.732 32.1621 117.801 32.3684 117.902 32.5422C118.011 32.7087 118.145 32.8426 118.304 32.9439C118.471 33.0453 118.655 33.1213 118.858 33.172C119.068 33.2154 119.292 33.2371 119.531 33.2371C119.951 33.2371 120.349 33.1647 120.726 33.0199L121.269 33.9212C121.044 34.0588 120.769 34.1674 120.443 34.247C120.118 34.3266 119.756 34.3664 119.358 34.3664C118.8 34.3664 118.319 34.2977 117.913 34.1601C117.508 34.0153 117.171 33.8163 116.903 33.5629C116.643 33.3023 116.447 32.9946 116.317 32.6399C116.194 32.2852 116.132 31.8943 116.132 31.4671C116.132 31.1269 116.18 30.7939 116.274 30.4681C116.375 30.1424 116.534 29.8528 116.751 29.5994C116.969 29.3388 117.251 29.1289 117.598 28.9696C117.946 28.8104 118.369 28.7307 118.869 28.7307C119.477 28.7307 119.962 28.8393 120.324 29.0565C120.686 29.2664 120.961 29.5271 121.149 29.8383C121.337 30.1496 121.453 30.4826 121.497 30.8373C121.547 31.1848 121.558 31.4961 121.529 31.7712ZM119.955 31.0111C119.94 30.6419 119.843 30.3415 119.662 30.1098C119.488 29.8782 119.22 29.7623 118.858 29.7623C118.518 29.7623 118.25 29.8709 118.054 30.0881C117.859 30.3053 117.743 30.6129 117.707 31.0111H119.955ZM122.609 34.2687V29.9904C122.609 29.4909 122.53 29.1072 122.37 28.8393H123.891C123.927 28.9334 123.956 29.0312 123.977 29.1325C124.006 29.2339 124.028 29.3461 124.043 29.4691C124.274 29.2592 124.549 29.0855 124.868 28.9479C125.194 28.8031 125.545 28.7307 125.921 28.7307C126.515 28.7307 126.953 28.8792 127.235 29.176C127.525 29.4728 127.669 29.8818 127.669 30.403V34.2687H126.16V30.9134C126.16 30.6165 126.091 30.3849 125.954 30.2184C125.816 30.0447 125.577 29.9578 125.237 29.9578C125.027 29.9578 124.821 30.0012 124.618 30.0881C124.415 30.175 124.249 30.2799 124.119 30.403V34.2687H122.609ZM132.792 34.0407C132.626 34.1348 132.43 34.2108 132.206 34.2687C131.981 34.3266 131.717 34.3556 131.413 34.3556C130.668 34.3556 130.121 34.1565 129.773 33.7583C129.426 33.3602 129.252 32.7992 129.252 32.0752V29.9578H128.677V28.8393H129.252V27.71L130.783 27.2214V28.8393H132.629L132.336 29.9578H130.783V31.9449C130.783 32.3576 130.87 32.6725 131.044 32.8896C131.218 33.0996 131.5 33.2045 131.891 33.2045C132 33.2045 132.108 33.1973 132.217 33.1828C132.333 33.1683 132.43 33.1503 132.51 33.1285L132.792 34.0407ZM136.822 30.0664C136.221 30.0302 135.776 30.175 135.486 30.5007C135.197 30.8192 135.052 31.3513 135.052 32.097V34.2687H133.521V30.0447C133.521 29.5741 133.441 29.1723 133.282 28.8393H134.791C134.842 28.9552 134.878 29.1144 134.9 29.3171C134.929 29.5126 134.951 29.708 134.965 29.9035C135.161 29.4619 135.381 29.1579 135.628 28.9914C135.881 28.8176 136.167 28.7307 136.485 28.7307C136.601 28.7307 136.713 28.7416 136.822 28.7633C136.931 28.785 137.014 28.8104 137.072 28.8393L136.822 30.0664ZM140.553 31.7603C140.437 31.7893 140.322 31.8182 140.206 31.8472C140.097 31.8762 139.985 31.9087 139.869 31.9449C139.761 31.9739 139.656 32.0065 139.554 32.0427C139.323 32.1368 139.149 32.2381 139.033 32.3467C138.917 32.4481 138.859 32.5856 138.859 32.7593C138.859 32.9114 138.91 33.0344 139.011 33.1285C139.12 33.2226 139.286 33.2697 139.511 33.2697C139.692 33.2697 139.876 33.2371 140.065 33.172C140.26 33.0996 140.423 33.0018 140.553 32.8788V31.7603ZM142.063 32.9222C142.063 33.1322 142.121 33.2661 142.236 33.324C142.352 33.3747 142.49 33.3819 142.649 33.3457V34.1818C142.577 34.2108 142.497 34.2325 142.41 34.247C142.323 34.2687 142.222 34.2868 142.106 34.3013C141.998 34.3158 141.867 34.323 141.715 34.323C141.389 34.323 141.151 34.2651 140.999 34.1493C140.846 34.0262 140.738 33.8778 140.673 33.704C140.492 33.8778 140.264 34.0334 139.989 34.171C139.714 34.3013 139.388 34.3664 139.011 34.3664C138.432 34.3664 138.009 34.2361 137.741 33.9755C137.473 33.7077 137.339 33.3566 137.339 32.9222C137.339 32.6906 137.375 32.4879 137.448 32.3141C137.527 32.1404 137.632 31.992 137.763 31.8689C137.893 31.7386 138.041 31.63 138.208 31.5432C138.382 31.4491 138.559 31.3767 138.74 31.326C138.928 31.2681 139.127 31.221 139.337 31.1848C139.554 31.1414 139.753 31.1052 139.934 31.0762C140.144 31.04 140.351 31.0111 140.553 30.9894V30.9242C140.553 30.6057 140.481 30.3559 140.336 30.175C140.199 29.9867 139.916 29.8926 139.489 29.8926C139.243 29.8926 139.011 29.9252 138.794 29.9904C138.577 30.0555 138.374 30.1279 138.186 30.2075L137.654 29.3606C137.893 29.2158 138.204 29.0818 138.588 28.9588C138.979 28.8357 139.391 28.7742 139.826 28.7742C140.26 28.7742 140.618 28.8249 140.901 28.9262C141.19 29.0203 141.422 29.1651 141.596 29.3606C141.769 29.5488 141.889 29.7877 141.954 30.0772C142.026 30.3596 142.063 30.6889 142.063 31.0654V32.9222ZM143.648 34.2687V27.8186C143.648 27.6159 143.626 27.4096 143.583 27.1997C143.547 26.9825 143.489 26.8051 143.409 26.6676H145.157V34.2687H143.648Z" fill="#431512"/>
<path d="M25.5352 31.782V40.507L33.5504 35.1631V26.4381L25.5352 31.782Z" fill="#431512"/>
<path d="M24.1772 29.1075L31.4266 25.0299L24.1771 20.7664L16.9688 25.0997L24.1772 29.1075Z" fill="#B31F24"/>
<path d="M14.8477 26.4381V35.1631L22.8629 40.507V31.782L14.8477 26.4381Z" fill="#431512"/>
<path d="M30.318 15.4837H28.0938V24.3809H30.318V15.4837Z" fill="#B31F24"/>
<path d="M25.4167 8.81093H23.0898V24.3809H25.4167V8.81093Z" fill="#B31F24"/>
<path d="M20.3063 15.4837H18.082V24.3809H20.3063V15.4837Z" fill="#B31F24"/>
<path d="M20.3044 15.2521H14.8867V16.9003H20.3044V15.2521Z" fill="#B31F24"/>
<path d="M33.6007 15.2057H28.0938V16.8538H33.6007V15.2057Z" fill="#B31F24"/>
<g clip-path="url(#clip0_4561_11455)">
<path d="M9.35156 13.4448V14.1858H10.2075V13.4448C10.0729 13.4894 9.92898 13.5136 9.77949 13.5136C9.63007 13.5136 9.48619 13.4894 9.35156 13.4448Z" fill="#B31F24"/>
<path d="M8.63496 12.89C8.3154 13.0621 8.09766 13.3997 8.09766 13.7873V14.1858H8.90931V13.1986C8.80308 13.1104 8.7104 13.0063 8.63496 12.89Z" fill="#B31F24"/>
<path d="M11.4601 13.7873C11.4601 13.3997 11.2424 13.0621 10.9228 12.89C10.8474 13.0063 10.7547 13.1104 10.6484 13.1986V14.1858H11.4601V13.7873Z" fill="#B31F24"/>
<path d="M11.4232 15.9568H8.17435C8.10754 16.1452 7.95793 16.2948 7.76953 16.3616V16.6355H11.828V16.3616C11.6396 16.2948 11.49 16.1452 11.4232 15.9568Z" fill="#B31F24"/>
<path d="M9.77706 13.0707C10.286 13.0707 10.6987 12.6581 10.6987 12.1491C10.6987 11.6401 10.286 11.2275 9.77706 11.2275C9.2681 11.2275 8.85547 11.6401 8.85547 12.1491C8.85547 12.6581 9.2681 13.0707 9.77706 13.0707Z" fill="#B31F24"/>
<path d="M13.335 14.6285H13.2168H6.38379H6.22139C6.09911 14.6285 6 14.7276 6 14.8499C6 14.9517 6.06882 15.0372 6.16246 15.0631V16.4142C6.16246 16.5364 6.26157 16.6356 6.38379 16.6356H7.3283V16.1782C7.3283 16.0559 7.42748 15.9568 7.5497 15.9568C7.67179 15.9568 7.77109 15.8575 7.77109 15.7354C7.77109 15.6132 7.8702 15.5141 7.99242 15.5141H11.6082C11.7304 15.5141 11.8295 15.6132 11.8295 15.7354C11.8295 15.8575 11.9288 15.9568 12.0509 15.9568C12.1732 15.9568 12.2723 16.0559 12.2723 16.1782V16.6356H13.2168C13.3391 16.6356 13.4382 16.5364 13.4382 16.4142V15.0457C13.5085 15.0086 13.5564 14.9349 13.5564 14.8499C13.5564 14.7276 13.4573 14.6285 13.335 14.6285Z" fill="#B31F24"/>
<path d="M12.6562 11.8119V14.8155H13.099V11.8121C13.0274 11.8267 12.9534 11.8344 12.8776 11.8344C12.8027 11.8344 12.7285 11.8267 12.6562 11.8119Z" fill="#B31F24"/>
<path d="M6.67974 10.7619C6.84976 10.7619 7.00491 10.6976 7.12253 10.5923C7.24009 10.6976 7.39531 10.7619 7.56526 10.7619C7.73521 10.7619 7.89042 10.6976 8.00799 10.5923C8.12561 10.6976 8.28076 10.7619 8.45071 10.7619C8.62072 10.7619 8.77588 10.6976 8.8935 10.5923C9.01106 10.6976 9.16627 10.7619 9.33622 10.7619C9.50617 10.7619 9.66139 10.6976 9.77895 10.5923C9.89658 10.6976 10.0517 10.7619 10.2217 10.7619C10.3917 10.7619 10.5468 10.6976 10.6645 10.5923C10.782 10.6976 10.9372 10.7619 11.1072 10.7619C11.2771 10.7619 11.4324 10.6977 11.5499 10.5923C11.6675 10.6977 11.8227 10.7619 11.9926 10.7619C12.1627 10.7619 12.3178 10.6976 12.4354 10.5923C12.553 10.6976 12.7082 10.7619 12.8782 10.7619C13.2444 10.7619 13.5423 10.464 13.5423 10.0978V9.30088C13.5423 9.1786 13.4432 9.07948 13.3209 9.07948H6.23702C6.11474 9.07948 6.01562 9.1786 6.01562 9.30088V10.0978C6.01562 10.464 6.31359 10.7619 6.67974 10.7619Z" fill="#B31F24"/>
<path d="M6.45703 11.8121V14.8155H6.89982V11.8119C6.82747 11.8267 6.75336 11.8344 6.67843 11.8344C6.60268 11.8344 6.52863 11.8267 6.45703 11.8121Z" fill="#B31F24"/>
</g>
<path d="M21.0796 8.0745H21.193H27.7502H27.9061C28.0234 8.0745 28.1185 7.95805 28.1185 7.81445C28.1185 7.69482 28.0525 7.59427 27.9626 7.56394V5.97647C27.9626 5.83279 27.8675 5.71634 27.7502 5.71634H26.8438V6.25376C26.8438 6.39736 26.7487 6.51381 26.6314 6.51381C26.5142 6.51381 26.4189 6.63048 26.4189 6.77394C26.4189 6.91762 26.3238 7.03407 26.2065 7.03407H22.7367C22.6194 7.03407 22.5243 6.91762 22.5243 6.77394C22.5243 6.63048 22.429 6.51381 22.3118 6.51381C22.1946 6.51381 22.0994 6.39736 22.0994 6.25376V5.71634H21.193C21.0757 5.71634 20.9806 5.83279 20.9806 5.97647V7.58443C20.9132 7.62801 20.8672 7.71457 20.8672 7.81445C20.8672 7.95813 20.9623 8.0745 21.0796 8.0745Z" fill="#B31F24"/>
<path fill-rule="evenodd" clip-rule="evenodd" d="M20.9851 3.9957C20.92 3.9957 20.8672 3.94291 20.8672 3.87779V0.710465C20.8672 0.65631 20.9111 0.612408 20.9652 0.612408H21.0632C21.0633 0.612408 21.0633 0.612361 21.0633 0.612302C21.0633 0.612244 21.0633 0.612196 21.0634 0.612196H21.3737H23.1066C23.1717 0.612196 23.2245 0.664985 23.2245 0.730104V1.14679C23.2245 1.17148 23.2164 1.19528 23.2038 1.21649C23.1222 1.35333 23.0564 1.60702 23.0199 1.92365C23.0129 1.98426 22.9622 2.03083 22.9012 2.03083H21.4916C21.4265 2.03083 21.3737 2.08362 21.3737 2.14874V3.87779C21.3737 3.94291 21.3209 3.9957 21.2558 3.9957H20.9851Z" fill="#B31F24"/>
<path fill-rule="evenodd" clip-rule="evenodd" d="M27.8235 3.9957C27.8886 3.9957 27.9414 3.94291 27.9414 3.87779V0.711131C27.9414 0.656608 27.8972 0.612408 27.8427 0.612408H27.7441C27.744 0.612408 27.744 0.612361 27.744 0.612302C27.744 0.612244 27.7439 0.612196 27.7439 0.612196H27.4349H25.7007C25.6356 0.612196 25.5828 0.664985 25.5828 0.730104V1.14679C25.5828 1.17148 25.5908 1.19528 25.6035 1.21649C25.685 1.35333 25.7509 1.60702 25.7873 1.92365C25.7943 1.98426 25.8451 2.03083 25.9061 2.03083H27.317C27.3821 2.03083 27.4349 2.08362 27.4349 2.14874V3.87779C27.4349 3.94291 27.4877 3.9957 27.5528 3.9957H27.8235Z" fill="#B31F24"/>
<path d="M23.7181 4.85258C23.5997 4.82132 23.5081 4.73827 23.4667 4.62468C23.4546 4.59166 23.4303 4.56804 23.4001 4.56009C23.3697 4.55205 23.3367 4.56051 23.3094 4.5832C23.216 4.6612 23.0944 4.68802 22.976 4.65687L22.6273 4.56587L22.4844 5.0909L22.8328 5.18561C22.9509 5.21698 23.0422 5.29992 23.0835 5.41331C23.0956 5.44642 23.1199 5.46995 23.1503 5.47799C23.1805 5.48594 23.2135 5.47758 23.2408 5.45478C23.3341 5.37689 23.4555 5.35006 23.5737 5.38112L23.9393 5.47459L24.0841 4.94244L23.7202 4.8531C23.7194 4.85299 23.7188 4.85278 23.7181 4.85258Z" fill="#B31F24"/>
<path d="M23.5099 5.61478C23.4687 5.60395 23.4313 5.6122 23.3987 5.63934C23.3105 5.7129 23.1936 5.73993 23.0859 5.71155C22.9783 5.68318 22.8908 5.60219 22.8517 5.495C22.8372 5.45538 22.809 5.4299 22.7679 5.41896C22.7675 5.41896 22.7672 5.41886 22.767 5.41876L22.4201 5.32446L22.3523 5.57341C22.3194 5.69443 22.3365 5.82112 22.4004 5.93017C22.4643 6.03912 22.5672 6.11711 22.6901 6.14951L23.2222 6.28982C23.2634 6.30076 23.3049 6.30591 23.3456 6.30591C23.5565 6.30591 23.7501 6.16715 23.8072 5.9573L23.875 5.70815L23.5108 5.61499C23.5105 5.61499 23.5102 5.61488 23.5099 5.61478Z" fill="#B31F24"/>
<path d="M24.1656 2.79185L23.6518 2.65629C23.5863 2.63906 23.519 2.67734 23.5014 2.74182C23.4925 2.77473 23.4982 2.80805 23.5147 2.83508L23.1962 3.71306C22.9953 3.72533 22.8195 3.86193 22.7653 4.06084L22.6914 4.33228L23.0398 4.42317C23.0814 4.43411 23.1188 4.42586 23.1513 4.39872C23.2396 4.32506 23.3566 4.29803 23.4642 4.3265C23.5718 4.35488 23.6594 4.43586 23.6985 4.54306C23.7127 4.58226 23.7406 4.60775 23.7813 4.61878L24.1483 4.70885L24.2202 4.44463C24.2742 4.24572 24.1912 4.04083 24.0235 3.93126L24.1935 3.01419C24.2215 2.99881 24.2434 2.97281 24.2524 2.9399C24.2699 2.87542 24.2311 2.80908 24.1656 2.79185Z" fill="#B31F24"/>
<path d="M25.6226 5.45483C25.6498 5.47753 25.6828 5.48599 25.7132 5.47805C25.7435 5.47 25.7678 5.44648 25.7799 5.41336C25.8212 5.29977 25.9128 5.21672 26.0312 5.18546C26.0321 5.18525 26.0329 5.18504 26.0337 5.18484L26.3817 5.10075L26.2316 4.5491L25.8928 4.65527C25.891 4.65578 25.8892 4.6564 25.8874 4.65681C25.7691 4.68808 25.6475 4.66125 25.5539 4.58325C25.5267 4.56056 25.4937 4.5521 25.4634 4.56014C25.433 4.56809 25.4088 4.59161 25.3968 4.62473C25.3554 4.73832 25.2637 4.82137 25.1453 4.85263C25.1423 4.85345 25.1391 4.85407 25.136 4.85469L24.7734 4.92103L24.9231 5.47062L25.2904 5.38096C25.4084 5.35022 25.5294 5.37714 25.6226 5.45483Z" fill="#B31F24"/>
<path d="M25.1676 4.54306C25.2067 4.43586 25.2942 4.35488 25.4019 4.3265C25.5095 4.29813 25.6264 4.32506 25.7146 4.39872C25.7466 4.42534 25.7832 4.4338 25.8234 4.42379L26.1699 4.31526L26.1008 4.06084C26.0466 3.86193 25.8707 3.72533 25.6698 3.71306L25.3513 2.83508C25.3677 2.80805 25.3735 2.77473 25.3646 2.74182C25.347 2.67734 25.2797 2.63906 25.2142 2.65629L24.7004 2.79185C24.6349 2.80919 24.596 2.87542 24.6136 2.9399C24.6225 2.97281 24.6445 2.99881 24.6725 3.01419L24.8425 3.93136C24.6747 4.04083 24.5917 4.24572 24.6459 4.44463L24.7117 4.68667L25.0877 4.61786C25.1268 4.60651 25.1537 4.58133 25.1676 4.54306Z" fill="#B31F24"/>
<path d="M26.5081 5.57328L26.443 5.33424L26.0915 5.41915C26.0508 5.43018 26.0231 5.45567 26.0087 5.49487C25.9697 5.60207 25.8821 5.68305 25.7745 5.71143C25.6669 5.7398 25.5499 5.71287 25.4617 5.63921C25.4291 5.61207 25.3917 5.60382 25.3505 5.61465C25.3497 5.61486 25.349 5.61507 25.3483 5.61527L24.9844 5.704L25.0532 5.95718C25.1103 6.16702 25.3039 6.30589 25.5148 6.30579C25.5555 6.30579 25.597 6.30063 25.6383 6.2898L26.1703 6.14938C26.2932 6.11699 26.3961 6.03909 26.46 5.93004C26.5239 5.82099 26.541 5.6943 26.5081 5.57328Z" fill="#B31F24"/>
<path d="M24.4314 2.1791C24.3636 2.1791 24.3086 2.23327 24.3086 2.30002V2.41185C24.3086 2.4786 24.3636 2.53277 24.4314 2.53277C24.4992 2.53277 24.5542 2.4786 24.5542 2.41185V2.30002C24.5542 2.23327 24.4992 2.1791 24.4314 2.1791Z" fill="#B31F24"/>
<path d="M23.8936 2.52222C23.9176 2.54584 23.949 2.55771 23.9804 2.55771C24.0119 2.55771 24.0433 2.54584 24.0673 2.52222C24.1152 2.47507 24.1152 2.39852 24.0673 2.35127L23.9284 2.21446C23.8804 2.16731 23.8026 2.16731 23.7547 2.21446C23.7068 2.26172 23.7068 2.33827 23.7547 2.38542L23.8936 2.52222Z" fill="#B31F24"/>
<path d="M24.8845 2.55771C24.9159 2.55771 24.9474 2.54584 24.9713 2.52222L25.1102 2.38542C25.1582 2.33827 25.1582 2.26172 25.1102 2.21446C25.0623 2.16731 24.9846 2.16731 24.9366 2.21446L24.7976 2.35127C24.7497 2.39852 24.7497 2.47507 24.7976 2.52222C24.8216 2.54584 24.8531 2.55771 24.8845 2.55771Z" fill="#B31F24"/>
<path fill-rule="evenodd" clip-rule="evenodd" d="M37.1201 11.2177C37.1612 11.2177 37.1975 11.1911 37.2099 11.152L37.5455 10.0933C37.5579 10.0542 37.5942 10.0276 37.6353 10.0276H38.2547C38.3118 10.0276 38.3558 10.078 38.3481 10.1346L38.2147 11.1108C38.2069 11.1674 38.2509 11.2177 38.308 11.2177H39.1646C39.2216 11.2177 39.2655 11.1676 39.258 11.1111L39.1277 10.1343C39.1201 10.0778 39.164 10.0276 39.221 10.0276H39.8636C39.9053 10.0276 39.9421 10.0552 39.9539 10.0953L40.2638 11.1501C40.2756 11.1902 40.3124 11.2177 40.3542 11.2177H41.2436C41.313 11.2177 41.3586 11.1453 41.3285 11.0827L40.8307 10.047C40.8246 10.0342 40.8214 10.0203 40.8214 10.0062V9.23823C40.8214 9.18622 40.7792 9.14404 40.7272 9.14404H36.7689C36.7169 9.14404 36.6747 9.18622 36.6747 9.23823V10.0054C36.6747 10.02 36.6713 10.0344 36.6648 10.0475L36.1477 11.0814C36.1164 11.144 36.1619 11.2177 36.2319 11.2177H37.1201ZM36.0715 11.2361H36.0708L36.0715 11.2348V11.2361ZM40.8159 11.8037C40.6551 11.8037 40.5104 11.7384 40.4055 11.6329C40.351 11.578 40.2425 11.5779 40.188 11.6327C40.0826 11.7383 39.9375 11.8037 39.7769 11.8037C39.6162 11.8037 39.4709 11.7383 39.3654 11.6326C39.3108 11.5779 39.2023 11.578 39.1477 11.6327C39.0424 11.7384 38.897 11.8037 38.7361 11.8037C38.5755 11.8037 38.4301 11.7384 38.3246 11.6327C38.27 11.578 38.1614 11.578 38.1068 11.6327C38.0013 11.7384 37.8559 11.8037 37.6952 11.8037C37.5345 11.8037 37.3891 11.7384 37.2836 11.6327C37.229 11.578 37.1202 11.5779 37.0654 11.6324C36.959 11.7382 36.8119 11.8037 36.6511 11.8037C36.603 11.8037 36.5571 11.7978 36.5125 11.7868C36.4445 11.7699 36.3699 11.8156 36.3699 11.8857V13.8102C36.3699 13.8623 36.3277 13.9044 36.2757 13.9044H36.1589C36.1069 13.9044 36.0647 13.9466 36.0647 13.9986V14.3872C36.0647 14.4118 36.0741 14.4342 36.0895 14.4509H35.2391C35.1137 14.4509 35.0119 14.5719 35.0119 14.7211V16.3913C34.9398 16.4365 34.8906 16.5264 34.8906 16.6302C34.8906 16.7794 34.9924 16.9003 35.1179 16.9003H35.2391H42.2529H42.4196C42.5451 16.9003 42.6469 16.7793 42.6469 16.6302C42.6469 16.5059 42.5762 16.4015 42.4801 16.37V14.7211C42.4801 14.5719 42.3784 14.4509 42.2529 14.4509H41.3715C41.3869 14.4342 41.3964 14.4118 41.3964 14.3872V13.9986C41.3964 13.9466 41.3542 13.9044 41.3022 13.9044H41.2032C41.1512 13.9044 41.109 13.8623 41.109 13.8102V11.8851C41.109 11.8127 41.0294 11.7665 40.9595 11.7851C40.9139 11.7972 40.8663 11.8037 40.8159 11.8037ZM41.2834 14.4814V14.4509H41.3715C41.3543 14.4697 41.3296 14.4814 41.3022 14.4814H41.2834ZM41.2834 14.4814V15.0091C41.2834 15.1583 41.1816 15.2792 41.0562 15.2792C40.9308 15.2792 40.8289 15.4004 40.8289 15.5494C40.8289 15.6987 40.7272 15.8196 40.6017 15.8196H36.8903C36.7649 15.8196 36.6631 15.6987 36.6631 15.5494C36.6631 15.4004 36.5612 15.2792 36.4359 15.2792C36.3104 15.2792 36.2086 15.1583 36.2086 15.0091V14.4814H41.2834ZM36.2086 14.4814H36.1589C36.1314 14.4814 36.1067 14.4697 36.0895 14.4509H36.2086V14.4814ZM38.7392 12.2134C38.7392 12.1614 38.7814 12.1192 38.8334 12.1192H40.4224C40.4744 12.1192 40.5166 12.1614 40.5166 12.2134V12.9086C40.5166 12.9606 40.4744 13.0028 40.4224 13.0028H38.8334C38.7814 13.0028 38.7392 12.9606 38.7392 12.9086V12.2134ZM36.9622 12.2134C36.9622 12.1614 37.0044 12.1192 37.0564 12.1192H38.0528C38.1048 12.1192 38.147 12.1614 38.147 12.2134V13.5037C38.147 13.5557 38.1048 13.5979 38.0528 13.5979H37.0564C37.0044 13.5979 36.9622 13.5557 36.9622 13.5037V12.2134Z" fill="#B31F24"/>
<defs>
<clipPath id="clip0_4561_11455">
<rect width="7.55637" height="7.55606" fill="white" transform="translate(6 9.07948)"/>
</clipPath>
</defs>
</svg>
