<svg width="361" height="103" viewBox="0 0 361 103" fill="none" xmlns="http://www.w3.org/2000/svg">
<path d="M160.727 35.7618C164.656 34.1697 166.113 32.0187 166.113 29.3597C166.113 24.719 162.065 22.6527 155.426 22.6527H143.553C144.299 23.7874 145.01 25.0069 145.01 26.8361V36.0497C141.521 36.7441 138.388 37.3369 135.441 38.0483C132.798 30.7655 129.852 22.6527 129.852 22.6527H122.467C122.586 23.6689 122.484 24.7529 121.942 26.2264L113.676 49.2604C113.676 49.2604 113.135 50.8863 112 52.3429H118.047C117.928 51.5468 118.081 50.4968 118.283 49.8531C118.894 48.0409 120.536 46.8385 122.28 46.0594C124.55 45.0262 128.497 43.7898 130.359 43.2308L132.325 48.8539C132.325 48.8539 133.12 50.971 132.697 52.3429H141.233C139.946 50.5984 139.505 49.2943 139.505 49.2604C139.303 48.7184 138.184 45.6021 136.744 41.6727C139.353 41.0461 142.08 40.521 145.01 39.9451V48.1256C145.01 49.7007 144.366 51.0895 143.553 52.3259H154.833C156.679 52.3259 158.322 52.2244 159.558 52.0041C164.403 51.1573 167.875 48.6846 167.875 43.4172C167.891 39.3863 165.182 36.9812 160.727 35.7618ZM122.586 41.8929C121.874 42.2317 120.96 42.7905 120.434 43.3155C122.061 38.5733 124.296 32.0526 125.38 28.9701L129.106 39.6065C127.226 40.1484 124.33 41.063 122.586 41.8929ZM151.599 26.3619C152.766 26.2941 153.19 26.2941 153.952 26.2941C157.594 26.2941 159.288 27.8184 159.288 29.9694C159.288 32.0187 157.932 33.289 155.68 33.9665C154.732 34.2544 153.157 34.5762 151.599 34.8472V26.3619ZM154.342 48.6507H151.615V38.7596C152.632 38.5225 154.258 38.2345 155.325 38.116C158.61 38.8781 161.032 40.233 161.032 43.5866C161.015 47.499 158.152 48.6507 154.342 48.6507Z" fill="#B31F24"/>
<path d="M170.958 52.3427C172.414 50.1578 172.414 48.1762 172.414 48.1423V26.8698C172.414 26.8358 172.414 24.8712 170.958 22.6694H180.493C179.036 24.8712 179.036 26.8358 179.036 26.8698V48.1423C179.036 48.1762 179.036 50.1578 180.493 52.3427H170.958Z" fill="#431512"/>
<path d="M277.69 31.4428H271.305C271.847 32.3235 271.627 33.7293 271.068 35.1519L266.935 46.1778L262.651 35.1519C262.074 33.7293 261.87 32.3235 262.413 31.4428H254.165C255.299 32.6453 256.011 34.1866 256.418 35.1519L263.514 52.3427H269.035C269.035 52.3427 269.17 50.937 269.797 49.3619L275.505 35.1519C275.894 34.1696 276.707 32.4759 277.69 31.4428Z" fill="#431512"/>
<path d="M255.005 42.5023C255.412 38.1325 254.209 30.5279 244.555 30.5279C236.679 30.5279 233.783 36.0155 233.783 41.3675C233.783 48.1761 237.492 52.8506 246.367 52.8506C249.974 52.8506 252.887 51.7836 254.615 50.7336L252.837 46.8042C251.161 47.6511 249.111 48.3963 246.824 48.3963C242.861 48.3963 240.423 47.0074 239.897 43.0781H248.468C251.618 43.095 254.175 42.9087 255.005 42.5023ZM239.914 39.4875C240.303 36.1171 241.811 34.4065 244.555 34.4065C247.401 34.4065 248.806 36.6082 248.925 39.4536C248.925 39.4536 247.671 39.4875 246.045 39.4875H239.914Z" fill="#431512"/>
<path d="M196.787 52.3427H205.239C203.951 50.412 203.951 48.6505 203.951 48.6337V37.4723C203.951 33.4752 201.8 31.0194 197.261 31.0194C194.365 31.0194 191.977 32.3235 190.216 33.9156V31.4428H183.034C184.322 33.3905 184.322 35.135 184.322 35.152V48.6167C184.322 48.6505 184.322 50.3951 183.034 52.3259H191.502C190.216 50.3951 190.216 48.6337 190.216 48.6167V37.4723C191.299 36.3544 192.841 35.5415 194.535 35.5415C197.126 35.5415 198.074 36.9811 198.074 39.2168V48.6167C198.074 48.6505 198.074 50.3951 196.787 52.3427Z" fill="#431512"/>
<path d="M218.689 38.336C222.856 38.336 225.142 40.3684 225.142 43.6542C225.142 46.6011 223.38 48.7521 218.587 48.7521H215.725V38.336H218.689ZM218.062 26.2601C221.704 26.2601 223.397 27.6827 223.397 30.3588C223.397 33.0178 221.873 34.6099 218.367 34.6099C217.69 34.6099 216.453 34.6268 215.725 34.6099V26.2601H218.062ZM218.825 52.3427C220.671 52.3427 222.381 52.2411 223.617 52.0209C228.376 51.191 231.9 48.7521 231.9 43.5017C231.9 39.2844 229.207 37.0996 224.972 35.8802C228.766 34.4405 230.036 32.3742 230.036 29.6813C230.036 25.0407 226.26 22.6694 219.452 22.6694H208.069C208.866 23.872 209.136 25.6164 209.136 26.8698V48.1424C209.136 49.5312 208.882 50.9877 208.069 52.3427H218.825Z" fill="#431512"/>
<path d="M120.736 84.088C121.333 84.088 121.921 84.0507 122.5 83.976C123.097 83.9013 123.629 83.752 124.096 83.528C125.216 83.0987 126.075 82.3427 126.672 81.26C127.288 80.1587 127.596 78.7587 127.596 77.06C127.596 75.4547 127.279 74.12 126.644 73.056C126.009 71.992 125.132 71.2453 124.012 70.816C123.601 70.6107 123.097 70.4707 122.5 70.396C121.921 70.3213 121.277 70.284 120.568 70.284H118.552V84.088H120.736ZM120.96 67.4C121.931 67.4 122.817 67.4467 123.62 67.54C124.441 67.6333 125.188 67.792 125.86 68.016C127.82 68.6693 129.332 69.7987 130.396 71.404C131.479 72.9907 132.02 74.8853 132.02 77.088C132.02 79.3653 131.516 81.2693 130.508 82.8C129.5 84.3307 128.091 85.46 126.28 86.188C125.533 86.4867 124.693 86.7013 123.76 86.832C122.827 86.944 121.856 87 120.848 87H114.24V70.368C114.24 69.8453 114.184 69.3133 114.072 68.772C113.979 68.212 113.829 67.7547 113.624 67.4H120.96ZM134.876 87V75.968C134.876 75.4453 134.82 74.9133 134.708 74.372C134.615 73.812 134.465 73.3547 134.26 73H138.768V87H134.876ZM134.54 68.8C134.54 68.184 134.755 67.6613 135.184 67.232C135.632 66.8027 136.164 66.588 136.78 66.588C137.377 66.588 137.891 66.8027 138.32 67.232C138.768 67.6613 138.992 68.184 138.992 68.8C138.992 69.416 138.768 69.9387 138.32 70.368C137.891 70.7973 137.377 71.012 136.78 71.012C136.164 71.012 135.632 70.7973 135.184 70.368C134.755 69.9387 134.54 69.416 134.54 68.8ZM147.516 87.28C146.228 87.28 145.062 87.112 144.016 86.776C142.971 86.44 142.056 85.9733 141.272 85.376L143.092 83.332C143.746 83.7053 144.436 83.9947 145.164 84.2C145.911 84.4053 146.686 84.508 147.488 84.508C148.272 84.508 148.823 84.4147 149.14 84.228C149.476 84.0227 149.644 83.752 149.644 83.416C149.644 83.0427 149.458 82.744 149.084 82.52C148.711 82.2773 148.235 82.0533 147.656 81.848C147.096 81.6427 146.48 81.428 145.808 81.204C145.155 80.98 144.539 80.6907 143.96 80.336C143.4 79.9627 142.934 79.496 142.56 78.936C142.187 78.376 142 77.6667 142 76.808C142 75.632 142.476 74.6613 143.428 73.896C144.399 73.112 145.762 72.72 147.516 72.72C148.804 72.72 149.906 72.8973 150.82 73.252C151.735 73.588 152.482 73.98 153.06 74.428L150.82 76.948C150.596 76.556 150.204 76.2107 149.644 75.912C149.103 75.5947 148.412 75.436 147.572 75.436C146.994 75.436 146.527 75.5387 146.172 75.744C145.836 75.9307 145.668 76.192 145.668 76.528C145.668 76.9013 145.855 77.2093 146.228 77.452C146.62 77.6947 147.096 77.928 147.656 78.152C148.235 78.3573 148.86 78.5813 149.532 78.824C150.204 79.0667 150.82 79.3653 151.38 79.72C151.959 80.0747 152.435 80.5133 152.808 81.036C153.2 81.5587 153.396 82.2213 153.396 83.024C153.396 84.368 152.892 85.4133 151.884 86.16C150.876 86.9067 149.42 87.28 147.516 87.28ZM165.809 86.412C165.38 86.6547 164.876 86.8507 164.297 87C163.719 87.1493 163.037 87.224 162.253 87.224C160.331 87.224 158.921 86.7107 158.025 85.684C157.129 84.6573 156.681 83.2107 156.681 81.344V75.884H155.197V73H156.681V70.088L160.629 68.828V73H165.389L164.633 75.884H160.629V81.008C160.629 82.072 160.853 82.884 161.301 83.444C161.749 83.9853 162.477 84.256 163.485 84.256C163.765 84.256 164.045 84.2373 164.325 84.2C164.624 84.1627 164.876 84.116 165.081 84.06L165.809 86.412ZM176.201 76.164C174.651 76.0707 173.503 76.444 172.757 77.284C172.01 78.1053 171.637 79.4773 171.637 81.4V87H167.689V76.108C167.689 74.8947 167.483 73.8587 167.073 73H170.965C171.095 73.2987 171.189 73.7093 171.245 74.232C171.319 74.736 171.375 75.24 171.413 75.744C171.917 74.6053 172.486 73.8213 173.121 73.392C173.774 72.944 174.511 72.72 175.333 72.72C175.631 72.72 175.921 72.748 176.201 72.804C176.481 72.86 176.695 72.9253 176.845 73L176.201 76.164ZM178.845 87V75.968C178.845 75.4453 178.789 74.9133 178.677 74.372C178.583 73.812 178.434 73.3547 178.229 73H182.737V87H178.845ZM178.509 68.8C178.509 68.184 178.723 67.6613 179.153 67.232C179.601 66.8027 180.133 66.588 180.749 66.588C181.346 66.588 181.859 66.8027 182.289 67.232C182.737 67.6613 182.961 68.184 182.961 68.8C182.961 69.416 182.737 69.9387 182.289 70.368C181.859 70.7973 181.346 71.012 180.749 71.012C180.133 71.012 179.601 70.7973 179.153 70.368C178.723 69.9387 178.509 69.416 178.509 68.8ZM190.393 83.92C190.71 84.088 191.028 84.2187 191.345 84.312C191.681 84.4053 192.148 84.452 192.745 84.452C193.436 84.452 194.024 84.34 194.509 84.116C194.994 83.892 195.386 83.584 195.685 83.192C196.002 82.7813 196.226 82.3053 196.357 81.764C196.506 81.204 196.581 80.5973 196.581 79.944C196.581 78.6 196.264 77.5547 195.629 76.808C195.013 76.0613 194.089 75.688 192.857 75.688C192.278 75.688 191.793 75.744 191.401 75.856C191.028 75.968 190.692 76.0987 190.393 76.248V83.92ZM190.393 67.4V73.504C190.822 73.3173 191.308 73.14 191.849 72.972C192.39 72.804 193.072 72.72 193.893 72.72C194.92 72.72 195.844 72.8787 196.665 73.196C197.505 73.5133 198.214 73.98 198.793 74.596C199.39 75.212 199.848 75.9773 200.165 76.892C200.501 77.788 200.669 78.8147 200.669 79.972C200.669 81.036 200.482 82.0253 200.109 82.94C199.736 83.836 199.194 84.6107 198.485 85.264C197.794 85.8987 196.936 86.4027 195.909 86.776C194.901 87.1307 193.744 87.308 192.437 87.308C191.018 87.308 189.814 87.14 188.825 86.804C187.836 86.4493 187.061 86.076 186.501 85.684V70.368C186.501 69.8453 186.445 69.3133 186.333 68.772C186.24 68.212 186.09 67.7547 185.885 67.4H190.393ZM216.556 83.472C216.556 84.0133 216.696 84.3773 216.976 84.564C217.256 84.732 217.62 84.7693 218.068 84.676V86.832C217.863 86.888 217.639 86.9347 217.396 86.972C217.153 87.028 216.883 87.0653 216.584 87.084C216.285 87.1213 215.949 87.14 215.576 87.14C214.792 87.14 214.185 86.9907 213.756 86.692C213.327 86.3933 213.009 86.0107 212.804 85.544C212.319 86.0293 211.712 86.4307 210.984 86.748C210.275 87.0467 209.397 87.196 208.352 87.196C206.821 87.196 205.608 86.776 204.712 85.936C203.835 85.096 203.396 83.976 203.396 82.576V75.968C203.396 74.68 203.191 73.6907 202.78 73H207.344V81.596C207.344 82.4173 207.54 83.052 207.932 83.5C208.324 83.948 208.94 84.172 209.78 84.172C210.359 84.172 210.881 84.0787 211.348 83.892C211.815 83.7053 212.235 83.4627 212.608 83.164V73H216.556V83.472ZM230.395 86.412C229.966 86.6547 229.462 86.8507 228.883 87C228.305 87.1493 227.623 87.224 226.839 87.224C224.917 87.224 223.507 86.7107 222.611 85.684C221.715 84.6573 221.267 83.2107 221.267 81.344V75.884H219.783V73H221.267V70.088L225.215 68.828V73H229.975L229.219 75.884H225.215V81.008C225.215 82.072 225.439 82.884 225.887 83.444C226.335 83.9853 227.063 84.256 228.071 84.256C228.351 84.256 228.631 84.2373 228.911 84.2C229.21 84.1627 229.462 84.116 229.667 84.06L230.395 86.412ZM238.882 87.28C237.669 87.28 236.596 87.0933 235.662 86.72C234.729 86.3467 233.945 85.8333 233.31 85.18C232.676 84.5267 232.19 83.752 231.854 82.856C231.537 81.96 231.378 80.9987 231.378 79.972C231.378 78.9453 231.537 77.9933 231.854 77.116C232.19 76.22 232.676 75.4547 233.31 74.82C233.945 74.1667 234.729 73.6533 235.662 73.28C236.596 72.9067 237.669 72.72 238.882 72.72C240.096 72.72 241.169 72.9067 242.102 73.28C243.036 73.6533 243.82 74.1667 244.454 74.82C245.089 75.4547 245.565 76.22 245.882 77.116C246.218 77.9933 246.386 78.9453 246.386 79.972C246.386 80.9987 246.218 81.96 245.882 82.856C245.565 83.752 245.089 84.5267 244.454 85.18C243.82 85.8333 243.036 86.3467 242.102 86.72C241.169 87.0933 240.096 87.28 238.882 87.28ZM238.882 75.632C237.818 75.632 236.988 76.0333 236.39 76.836C235.793 77.62 235.494 78.6653 235.494 79.972C235.494 81.2973 235.793 82.3613 236.39 83.164C236.988 83.9667 237.818 84.368 238.882 84.368C239.965 84.368 240.805 83.9667 241.402 83.164C242 82.3613 242.298 81.2973 242.298 79.972C242.298 78.6653 242 77.62 241.402 76.836C240.805 76.0333 239.965 75.632 238.882 75.632ZM257.767 76.164C256.218 76.0707 255.07 76.444 254.323 77.284C253.576 78.1053 253.203 79.4773 253.203 81.4V87H249.255V76.108C249.255 74.8947 249.05 73.8587 248.639 73H252.531C252.662 73.2987 252.755 73.7093 252.811 74.232C252.886 74.736 252.942 75.24 252.979 75.744C253.483 74.6053 254.052 73.8213 254.687 73.392C255.34 72.944 256.078 72.72 256.899 72.72C257.198 72.72 257.487 72.748 257.767 72.804C258.047 72.86 258.262 72.9253 258.411 73L257.767 76.164Z" fill="#B31F24"/>
<path d="M282.958 85.712C282.23 86.1973 281.343 86.5707 280.298 86.832C279.271 87.0747 278.03 87.196 276.574 87.196C274.968 87.196 273.512 86.9627 272.206 86.496C270.918 86.0293 269.816 85.3667 268.902 84.508C268.006 83.6307 267.315 82.5667 266.83 81.316C266.344 80.0653 266.102 78.6653 266.102 77.116C266.102 75.6973 266.326 74.3813 266.774 73.168C267.222 71.9547 267.875 70.9 268.734 70.004C269.592 69.108 270.638 68.408 271.87 67.904C273.12 67.3813 274.539 67.12 276.126 67.12C277.712 67.12 279.075 67.3253 280.214 67.736C281.352 68.1467 282.379 68.744 283.294 69.528L280.914 72.412C280.895 72.356 280.792 72.2067 280.606 71.964C280.419 71.7213 280.139 71.46 279.766 71.18C279.392 70.9 278.907 70.6573 278.31 70.452C277.712 70.228 276.984 70.116 276.126 70.116C275.304 70.116 274.548 70.284 273.858 70.62C273.167 70.9373 272.57 71.3947 272.066 71.992C271.58 72.5893 271.198 73.3267 270.918 74.204C270.656 75.0627 270.526 76.0333 270.526 77.116C270.526 78.2173 270.675 79.2067 270.974 80.084C271.291 80.9427 271.72 81.6707 272.262 82.268C272.822 82.8653 273.494 83.3227 274.278 83.64C275.062 83.9573 275.93 84.116 276.882 84.116C277.796 84.116 278.59 84.0413 279.262 83.892C279.934 83.724 280.568 83.4813 281.166 83.164L282.958 85.712ZM297.904 80.56C297.642 80.7093 297.129 80.812 296.364 80.868C295.598 80.924 294.702 80.952 293.676 80.952H288.02C288.113 81.568 288.29 82.1 288.552 82.548C288.832 82.9773 289.177 83.3227 289.588 83.584C290.017 83.8453 290.493 84.0413 291.016 84.172C291.557 84.284 292.136 84.34 292.752 84.34C293.834 84.34 294.861 84.1533 295.832 83.78L297.232 86.104C296.653 86.4587 295.944 86.7387 295.104 86.944C294.264 87.1493 293.33 87.252 292.304 87.252C290.866 87.252 289.625 87.0747 288.58 86.72C287.534 86.3467 286.666 85.8333 285.976 85.18C285.304 84.508 284.8 83.7147 284.464 82.8C284.146 81.8853 283.988 80.8773 283.988 79.776C283.988 78.8987 284.109 78.04 284.352 77.2C284.613 76.36 285.024 75.6133 285.584 74.96C286.144 74.288 286.872 73.7467 287.768 73.336C288.664 72.9253 289.756 72.72 291.044 72.72C292.612 72.72 293.862 73 294.796 73.56C295.729 74.1013 296.438 74.7733 296.924 75.576C297.409 76.3787 297.708 77.2373 297.82 78.152C297.95 79.048 297.978 79.8507 297.904 80.56ZM293.844 78.6C293.806 77.648 293.554 76.8733 293.088 76.276C292.64 75.6787 291.949 75.38 291.016 75.38C290.138 75.38 289.448 75.66 288.944 76.22C288.44 76.78 288.141 77.5733 288.048 78.6H293.844ZM300.689 87V75.968C300.689 74.68 300.483 73.6907 300.073 73H303.993C304.086 73.2427 304.161 73.4947 304.217 73.756C304.291 74.0173 304.347 74.3067 304.385 74.624C304.982 74.0827 305.691 73.6347 306.513 73.28C307.353 72.9067 308.258 72.72 309.229 72.72C310.759 72.72 311.889 73.1027 312.617 73.868C313.363 74.6333 313.737 75.688 313.737 77.032V87H309.845V78.348C309.845 77.5827 309.667 76.9853 309.313 76.556C308.958 76.108 308.342 75.884 307.465 75.884C306.923 75.884 306.391 75.996 305.869 76.22C305.346 76.444 304.917 76.7147 304.581 77.032V87H300.689ZM326.946 86.412C326.517 86.6547 326.013 86.8507 325.434 87C324.855 87.1493 324.174 87.224 323.39 87.224C321.467 87.224 320.058 86.7107 319.162 85.684C318.266 84.6573 317.818 83.2107 317.818 81.344V75.884H316.334V73H317.818V70.088L321.766 68.828V73H326.526L325.77 75.884H321.766V81.008C321.766 82.072 321.99 82.884 322.438 83.444C322.886 83.9853 323.614 84.256 324.622 84.256C324.902 84.256 325.182 84.2373 325.462 84.2C325.761 84.1627 326.013 84.116 326.218 84.06L326.946 86.412ZM337.337 76.164C335.788 76.0707 334.64 76.444 333.893 77.284C333.147 78.1053 332.773 79.4773 332.773 81.4V87H328.825V76.108C328.825 74.8947 328.62 73.8587 328.209 73H332.101C332.232 73.2987 332.325 73.7093 332.381 74.232C332.456 74.736 332.512 75.24 332.549 75.744C333.053 74.6053 333.623 73.8213 334.257 73.392C334.911 72.944 335.648 72.72 336.469 72.72C336.768 72.72 337.057 72.748 337.337 72.804C337.617 72.86 337.832 72.9253 337.981 73L337.337 76.164ZM346.959 80.532C346.66 80.6067 346.361 80.6813 346.063 80.756C345.783 80.8307 345.493 80.9147 345.195 81.008C344.915 81.0827 344.644 81.1667 344.383 81.26C343.785 81.5027 343.337 81.764 343.039 82.044C342.74 82.3053 342.591 82.66 342.591 83.108C342.591 83.5 342.721 83.8173 342.983 84.06C343.263 84.3027 343.692 84.424 344.271 84.424C344.737 84.424 345.213 84.34 345.699 84.172C346.203 83.9853 346.623 83.7333 346.959 83.416V80.532ZM350.851 83.528C350.851 84.0693 351 84.4147 351.299 84.564C351.597 84.6947 351.952 84.7133 352.363 84.62V86.776C352.176 86.8507 351.971 86.9067 351.747 86.944C351.523 87 351.261 87.0467 350.963 87.084C350.683 87.1213 350.347 87.14 349.955 87.14C349.115 87.14 348.499 86.9907 348.107 86.692C347.715 86.3747 347.435 85.992 347.267 85.544C346.8 85.992 346.212 86.3933 345.503 86.748C344.793 87.084 343.953 87.252 342.983 87.252C341.489 87.252 340.397 86.916 339.707 86.244C339.016 85.5533 338.671 84.648 338.671 83.528C338.671 82.9307 338.764 82.408 338.951 81.96C339.156 81.512 339.427 81.1293 339.763 80.812C340.099 80.476 340.481 80.196 340.911 79.972C341.359 79.7293 341.816 79.5427 342.283 79.412C342.768 79.2627 343.281 79.1413 343.823 79.048C344.383 78.936 344.896 78.8427 345.363 78.768C345.904 78.6747 346.436 78.6 346.959 78.544V78.376C346.959 77.5547 346.772 76.9107 346.399 76.444C346.044 75.9587 345.316 75.716 344.215 75.716C343.58 75.716 342.983 75.8 342.423 75.968C341.863 76.136 341.34 76.3227 340.855 76.528L339.483 74.344C340.099 73.9707 340.901 73.6253 341.891 73.308C342.899 72.9907 343.963 72.832 345.083 72.832C346.203 72.832 347.127 72.9627 347.855 73.224C348.601 73.4667 349.199 73.84 349.647 74.344C350.095 74.8293 350.403 75.4453 350.571 76.192C350.757 76.92 350.851 77.7693 350.851 78.74V83.528ZM354.939 87V70.368C354.939 69.8453 354.883 69.3133 354.771 68.772C354.677 68.212 354.528 67.7547 354.323 67.4H358.831V87H354.939Z" fill="#431512"/>
<path d="M50.3711 80.3736V102.872L71.039 89.092V66.5938L50.3711 80.3736Z" fill="#431512"/>
<path d="M46.8687 73.4772L65.5619 62.9628L46.8686 51.9691L28.2812 63.1427L46.8687 73.4772Z" fill="#B31F24"/>
<path d="M22.8135 66.5938V89.092L43.4814 102.872V80.3736L22.8135 66.5938Z" fill="#431512"/>
<path d="M62.7052 38.3473H56.9697V61.2892H62.7052V38.3473Z" fill="#B31F24"/>
<path d="M50.0693 21.141H44.0693V61.2894H50.0693V21.141Z" fill="#B31F24"/>
<path d="M36.8888 38.3473H31.1533V61.2892H36.8888V38.3473Z" fill="#B31F24"/>
<path d="M36.8899 37.75H22.9199V42H36.8899V37.75Z" fill="#B31F24"/>
<path d="M71.1697 37.6303H56.9697V41.8803H71.1697V37.6303Z" fill="#B31F24"/>
<g clip-path="url(#clip0_4561_1626)">
<path d="M8.63867 33.0898V35.0005H10.8457V33.0898C10.4986 33.2048 10.1276 33.2671 9.74212 33.2671C9.35682 33.2671 8.98581 33.2048 8.63867 33.0898Z" fill="#B31F24"/>
<path d="M6.7888 31.6593C5.96479 32.1029 5.40332 32.9735 5.40332 33.973V35.0005H7.49623V32.4551C7.22232 32.2274 6.98331 31.959 6.7888 31.6593Z" fill="#B31F24"/>
<path d="M14.0802 33.973C14.0802 32.9735 13.5188 32.1029 12.6947 31.6593C12.5002 31.959 12.2612 32.2274 11.9873 32.4551V35.0005H14.0802V33.973Z" fill="#B31F24"/>
<path d="M13.9877 39.5672H5.61027C5.43799 40.053 5.05221 40.4388 4.56641 40.6111V41.3174H15.0316V40.6111C14.5456 40.4388 14.1598 40.053 13.9877 39.5672Z" fill="#B31F24"/>
<path d="M9.74163 32.1252C11.054 32.1252 12.118 31.0612 12.118 29.7488C12.118 28.4364 11.054 27.3724 9.74163 27.3724C8.42922 27.3724 7.36523 28.4364 7.36523 29.7488C7.36523 31.0612 8.42922 32.1252 9.74163 32.1252Z" fill="#B31F24"/>
<path d="M18.9138 36.1421H18.609H0.989626H0.570882C0.255566 36.1421 0 36.3977 0 36.713C0 36.9755 0.177466 37.196 0.418905 37.2626V40.7467C0.418905 41.0618 0.674472 41.3174 0.989626 41.3174H3.42513V40.1381C3.42513 39.8228 3.68085 39.5672 3.99601 39.5672C4.31084 39.5672 4.56688 39.3112 4.56688 38.9963C4.56688 38.6812 4.82245 38.4256 5.13761 38.4256H14.461C14.7763 38.4256 15.0319 38.6812 15.0319 38.9963C15.0319 39.3112 15.288 39.5672 15.6028 39.5672C15.9179 39.5672 16.1735 39.8228 16.1735 40.1381V41.3174H18.609C18.9243 41.3174 19.1799 41.0618 19.1799 40.7467V37.2178C19.3611 37.1221 19.4846 36.932 19.4846 36.713C19.4846 36.3977 19.2291 36.1421 18.9138 36.1421Z" fill="#B31F24"/>
<path d="M17.1631 28.8793V36.6244H18.3047V28.8798C18.1202 28.9175 17.9293 28.9373 17.7338 28.9373C17.5406 28.9373 17.3495 28.9175 17.1631 28.8793Z" fill="#B31F24"/>
<path d="M1.75154 26.1718C2.18993 26.1718 2.59001 26.006 2.89331 25.7344C3.19644 26.006 3.59668 26.1718 4.0349 26.1718C4.47313 26.1718 4.87337 26.006 5.17651 25.7344C5.47981 26.006 5.87988 26.1718 6.3181 26.1718C6.75649 26.1718 7.15657 26.006 7.45987 25.7344C7.76301 26.006 8.16324 26.1718 8.60147 26.1718C9.03969 26.1718 9.43993 26.006 9.74307 25.7344C10.0464 26.006 10.4464 26.1718 10.8847 26.1718C11.3231 26.1718 11.7231 26.006 12.0264 25.7344C12.3296 26.006 12.7298 26.1718 13.168 26.1718C13.6063 26.1718 14.0065 26.0062 14.3096 25.7344C14.6129 26.0062 15.013 26.1718 15.4512 26.1718C15.8896 26.1718 16.2897 26.006 16.593 25.7344C16.8961 26.006 17.2964 26.1718 17.7346 26.1718C18.6789 26.1718 19.4471 25.4036 19.4471 24.4593V22.4044C19.4471 22.0891 19.1915 21.8335 18.8762 21.8335H0.609945C0.294629 21.8335 0.0390625 22.0891 0.0390625 22.4044V24.4593C0.0390625 25.4036 0.80738 26.1718 1.75154 26.1718Z" fill="#B31F24"/>
<path d="M1.17969 28.8798V36.6244H2.32145V28.8793C2.13489 28.9175 1.94379 28.9373 1.75057 28.9373C1.55524 28.9373 1.3643 28.9175 1.17969 28.8798Z" fill="#B31F24"/>
</g>
<path d="M38.8808 19.2421H39.1731H56.0813H56.4833C56.7858 19.2421 57.0311 18.9418 57.0311 18.5715C57.0311 18.263 56.8608 18.0038 56.6291 17.9256V13.8322C56.6291 13.4617 56.3838 13.1614 56.0813 13.1614H53.7441V14.5472C53.7441 14.9175 53.4988 15.2177 53.1964 15.2177C52.8943 15.2177 52.6486 15.5186 52.6486 15.8885C52.6486 16.259 52.4033 16.5593 52.1007 16.5593H43.1537C42.8513 16.5593 42.606 16.259 42.606 15.8885C42.606 15.5186 42.3603 15.2177 42.0582 15.2177C41.7557 15.2177 41.5103 14.9175 41.5103 14.5472V13.1614H39.1731C38.8707 13.1614 38.6255 13.4617 38.6255 13.8322V17.9784C38.4516 18.0908 38.333 18.314 38.333 18.5715C38.333 18.942 38.5783 19.2421 38.8808 19.2421Z" fill="#B31F24"/>
<path fill-rule="evenodd" clip-rule="evenodd" d="M38.637 8.7246C38.4691 8.7246 38.333 8.58848 38.333 8.42057V0.254397C38.333 0.1142 38.4467 0.000547706 38.5869 0.000547706H38.8404C38.8406 0.000547706 38.8407 0.000425098 38.8407 0.000273853C38.8407 0.000122608 38.8408 0 38.841 0H39.6391H44.1094C44.2773 0 44.4135 0.136121 44.4135 0.304034V1.37848C44.4135 1.44214 44.3927 1.50353 44.3601 1.55822C44.1498 1.91106 43.98 2.56521 43.886 3.38167C43.868 3.53795 43.7372 3.65804 43.5799 3.65804H39.9431C39.7752 3.65804 39.6391 3.79416 39.6391 3.96207V8.42057C39.6391 8.58848 39.503 8.7246 39.335 8.7246H38.637Z" fill="#B31F24"/>
<path fill-rule="evenodd" clip-rule="evenodd" d="M56.2712 8.7246C56.4391 8.7246 56.5752 8.58848 56.5752 8.42057V0.254403C56.5752 0.114203 56.4615 0.000547706 56.3213 0.000547706H56.0678C56.0676 0.000547706 56.0675 0.000425098 56.0675 0.000273853C56.0675 0.000122608 56.0674 0 56.0672 0H55.2691H50.7988C50.6309 0 50.4947 0.136121 50.4947 0.304034V1.37848C50.4947 1.44214 50.5155 1.50353 50.5481 1.55822C50.7584 1.91106 50.9282 2.56521 51.0222 3.38167C51.0402 3.53795 51.171 3.65804 51.3283 3.65804H54.9651C55.133 3.65804 55.2691 3.79416 55.2691 3.96207V8.42057C55.2691 8.58848 55.4052 8.7246 55.5732 8.7246H56.2712Z" fill="#B31F24"/>
<path d="M45.6841 10.9341C45.3788 10.8535 45.1426 10.6394 45.0359 10.3465C45.0048 10.2613 44.9422 10.2004 44.8641 10.1799C44.7857 10.1592 44.7006 10.181 44.6304 10.2395C44.3894 10.4406 44.0759 10.5098 43.7706 10.4295L42.8715 10.1948L42.5029 11.5487L43.4013 11.7929C43.7058 11.8737 43.9414 12.0876 44.0478 12.38C44.0789 12.4654 44.1416 12.5261 44.22 12.5468C44.2981 12.5673 44.3832 12.5457 44.4534 12.4869C44.6941 12.2861 45.007 12.2169 45.3118 12.297L46.2545 12.538L46.6279 11.1658L45.6895 10.9355C45.6876 10.9352 45.686 10.9347 45.6841 10.9341Z" fill="#B31F24"/>
<path d="M45.1492 12.8995C45.0431 12.8716 44.9466 12.8929 44.8626 12.9628C44.6351 13.1525 44.3336 13.2222 44.0558 13.1491C43.7783 13.0759 43.5527 12.8671 43.452 12.5907C43.4147 12.4885 43.342 12.4228 43.2358 12.3946C43.235 12.3946 43.2342 12.3943 43.2336 12.3941L42.3391 12.1509L42.1643 12.7928C42.0794 13.1049 42.1234 13.4316 42.2883 13.7128C42.4531 13.9937 42.7184 14.1948 43.0353 14.2784L44.4073 14.6402C44.5135 14.6684 44.6205 14.6817 44.7256 14.6817C45.2695 14.6817 45.7685 14.3238 45.9158 13.7827L46.0906 13.1403L45.1514 12.9C45.1509 12.9 45.1501 12.8998 45.1492 12.8995Z" fill="#B31F24"/>
<path d="M46.8364 5.6204L45.5117 5.27084C45.3428 5.22641 45.1691 5.32511 45.1237 5.49138C45.1007 5.57624 45.1156 5.66217 45.158 5.73187L44.3369 7.99579C43.8187 8.02745 43.3653 8.37967 43.2256 8.89258L43.0352 9.59251L43.9335 9.82688C44.0408 9.85508 44.1373 9.83379 44.221 9.76383C44.4488 9.57388 44.7503 9.50418 45.0278 9.57761C45.3053 9.65077 45.5311 9.8596 45.6319 10.136C45.6687 10.2371 45.7405 10.3028 45.8456 10.3313L46.7918 10.5635L46.9772 9.88221C47.1166 9.36931 46.9026 8.84097 46.47 8.55844L46.9085 6.1937C46.9807 6.15406 47.0371 6.08702 47.0604 6.00216C47.1055 5.83589 47.0053 5.66483 46.8364 5.6204Z" fill="#B31F24"/>
<path d="M50.5987 12.4871C50.669 12.5456 50.7541 12.5674 50.8325 12.5469C50.9105 12.5262 50.9732 12.4655 51.0043 12.3801C51.111 12.0872 51.3472 11.8731 51.6525 11.7925C51.6546 11.7919 51.6568 11.7914 51.659 11.7909L52.5562 11.5741L52.1691 10.1516L51.2956 10.4253C51.291 10.4267 51.2864 10.4283 51.2815 10.4293C50.9765 10.5099 50.6631 10.4408 50.4218 10.2397C50.3515 10.1811 50.2664 10.1593 50.1883 10.1801C50.11 10.2005 50.0476 10.2612 50.0165 10.3466C49.9098 10.6395 49.6734 10.8536 49.3681 10.9343C49.3602 10.9364 49.3521 10.938 49.344 10.9396L48.4092 11.1106L48.795 12.5278L49.7423 12.2966C50.0465 12.2173 50.3585 12.2868 50.5987 12.4871Z" fill="#B31F24"/>
<path d="M49.4189 10.136C49.5197 9.8596 49.7453 9.65077 50.023 9.57761C50.3005 9.50445 50.602 9.57388 50.8295 9.76383C50.9119 9.83247 51.0062 9.85428 51.11 9.82847L52.0035 9.54861L51.8251 8.89258C51.6855 8.37967 51.2318 8.02745 50.7139 7.99579L49.8925 5.73187C49.9349 5.66217 49.9498 5.57624 49.9268 5.49138C49.8814 5.32511 49.708 5.22641 49.5391 5.27084L48.2141 5.6204C48.0453 5.6651 47.945 5.83589 47.9904 6.00216C48.0134 6.08702 48.0701 6.15406 48.1423 6.1937L48.5805 8.55871C48.1479 8.84097 47.9339 9.36931 48.0736 9.88221L48.2433 10.5063L49.213 10.3289C49.3138 10.2996 49.383 10.2347 49.4189 10.136Z" fill="#B31F24"/>
<path d="M52.8851 12.7925L52.7173 12.1761L51.8108 12.3951C51.706 12.4235 51.6344 12.4892 51.5974 12.5903C51.4969 12.8667 51.271 13.0756 50.9935 13.1487C50.7161 13.2219 50.4143 13.1524 50.1868 12.9625C50.1027 12.8925 50.0063 12.8713 49.9001 12.8992C49.8982 12.8997 49.8963 12.9003 49.8944 12.9008L48.9561 13.1296L49.1336 13.7824C49.2808 14.3235 49.7799 14.6816 50.3237 14.6813C50.4288 14.6813 50.5358 14.668 50.6423 14.6401L52.014 14.278C52.331 14.1945 52.5963 13.9936 52.7611 13.7124C52.9259 13.4312 52.9699 13.1046 52.8851 12.7925Z" fill="#B31F24"/>
<path d="M47.5276 4.04037C47.3528 4.04037 47.2109 4.18004 47.2109 4.35216V4.64054C47.2109 4.81266 47.3528 4.95233 47.5276 4.95233C47.7024 4.95233 47.8442 4.81266 47.8442 4.64054V4.35216C47.8442 4.18004 47.7024 4.04037 47.5276 4.04037Z" fill="#B31F24"/>
<path d="M46.1373 4.92513C46.1992 4.98605 46.2803 5.01664 46.3613 5.01664C46.4424 5.01664 46.5234 4.98605 46.5853 4.92513C46.7088 4.80355 46.7088 4.60616 46.5853 4.48432L46.227 4.13156C46.1033 4.00998 45.9028 4.00998 45.7793 4.13156C45.6556 4.2534 45.6556 4.4508 45.7793 4.57237L46.1373 4.92513Z" fill="#B31F24"/>
<path d="M48.6906 5.01664C48.7717 5.01664 48.8527 4.98605 48.9143 4.92513L49.2726 4.57237C49.3963 4.4508 49.3963 4.2534 49.2726 4.13156C49.1491 4.00998 48.9486 4.00998 48.8249 4.13156L48.4666 4.48432C48.3432 4.60616 48.3432 4.80355 48.4666 4.92513C48.5285 4.98605 48.6096 5.01664 48.6906 5.01664Z" fill="#B31F24"/>
<path fill-rule="evenodd" clip-rule="evenodd" d="M80.2472 27.3471C80.3531 27.3471 80.4468 27.2786 80.4787 27.1777L81.3441 24.4478C81.3761 24.3469 81.4698 24.2784 81.5756 24.2784H83.1729C83.3202 24.2784 83.4335 24.4083 83.4136 24.5541L83.0696 27.0714C83.0497 27.2172 83.1631 27.3471 83.3103 27.3471H85.5192C85.6661 27.3471 85.7793 27.2178 85.7599 27.0722L85.4238 24.5533C85.4044 24.4077 85.5177 24.2784 85.6646 24.2784H87.3214C87.4292 24.2784 87.5241 24.3494 87.5544 24.4528L88.3534 27.1727C88.3838 27.2761 88.4787 27.3471 88.5865 27.3471H90.88C91.0589 27.3471 91.1764 27.1603 91.0989 26.9991L89.8153 24.3282C89.7995 24.2954 89.7913 24.2594 89.7913 24.223V22.2429C89.7913 22.1087 89.6826 22 89.5484 22H79.3417C79.2076 22 79.0988 22.1087 79.0988 22.2429V24.221C79.0988 24.2587 79.0901 24.2959 79.0732 24.3296L77.7397 26.9956C77.659 27.1571 77.7764 27.3471 77.957 27.3471H80.2472ZM77.5411 27.3926H77.5404L77.5411 27.3913V27.3926ZM89.7764 28.8581C89.3616 28.8581 88.9886 28.6898 88.718 28.4176C88.5775 28.2763 88.2978 28.276 88.1571 28.4171C87.8855 28.6896 87.5114 28.8581 87.0972 28.8581C86.6829 28.8581 86.3082 28.6895 86.0362 28.417C85.8954 28.2759 85.6155 28.2762 85.4748 28.4173C85.2032 28.6896 84.8283 28.8581 84.4134 28.8581C83.9993 28.8581 83.6244 28.6896 83.3525 28.4173C83.2116 28.2762 82.9316 28.2762 82.7907 28.4172C82.5188 28.6896 82.1438 28.8581 81.7294 28.8581C81.315 28.8581 80.94 28.6896 80.668 28.4172C80.5272 28.2762 80.2467 28.276 80.1054 28.4165C79.8311 28.6893 79.4518 28.8581 79.0371 28.8581C78.913 28.8581 78.7947 28.843 78.6798 28.8145C78.5043 28.7709 78.3119 28.8887 78.3119 29.0695V34.0321C78.3119 34.1662 78.2032 34.275 78.069 34.275H77.7679C77.6338 34.275 77.525 34.3837 77.525 34.5179V35.5199C77.525 35.5833 77.5493 35.641 77.589 35.6842H75.3986C75.0751 35.6842 74.8128 35.9961 74.8128 36.3809V40.6875C74.6268 40.8042 74.5 41.036 74.5 41.3035C74.5 41.6883 74.7623 42 75.086 42H75.3986H93.484H93.914C94.2377 42 94.5 41.6881 94.5 41.3035C94.5 40.9831 94.3178 40.7138 94.07 40.6326V36.3809C94.07 35.9961 93.8077 35.6842 93.484 35.6842H91.2091C91.2488 35.641 91.2731 35.5833 91.2731 35.5199V34.5179C91.2731 34.3837 91.1643 34.275 91.0302 34.275H90.7751C90.6409 34.275 90.5322 34.1662 90.5322 34.0321V29.0679C90.5322 28.8813 90.327 28.7622 90.1466 28.8102C90.0291 28.8415 89.9063 28.8581 89.7764 28.8581ZM90.9841 35.7628V35.6842H91.2091C91.1647 35.7325 91.101 35.7628 91.0302 35.7628H90.9841ZM90.9841 35.7628V37.1235C90.9841 37.5082 90.7218 37.82 90.3983 37.82C90.0751 37.82 89.8123 38.1325 89.8123 38.5167C89.8123 38.9015 89.55 39.2134 89.2263 39.2134H79.6563C79.3328 39.2134 79.0705 38.9015 79.0705 38.5167C79.0705 38.1325 78.8077 37.82 78.4845 37.82C78.161 37.82 77.8986 37.5082 77.8986 37.1235V35.7628H90.9841ZM77.8986 35.7628H77.7679C77.6971 35.7628 77.6334 35.7325 77.589 35.6842H77.8986V35.7628ZM84.4214 29.9146C84.4214 29.7805 84.5302 29.6717 84.6643 29.6717H88.7616C88.8957 29.6717 89.0045 29.7805 89.0045 29.9146V31.7072C89.0045 31.8413 88.8957 31.9501 88.7616 31.9501H84.6643C84.5302 31.9501 84.4214 31.8413 84.4214 31.7072V29.9146ZM79.8394 29.9146C79.8394 29.7805 79.9481 29.6717 80.0823 29.6717H82.6515C82.7857 29.6717 82.8944 29.7805 82.8944 29.9146V33.2417C82.8944 33.3758 82.7857 33.4845 82.6515 33.4845H80.0823C79.9481 33.4845 79.8394 33.3758 79.8394 33.2417V29.9146Z" fill="#B31F24"/>
<defs>
<clipPath id="clip0_4561_1626">
<rect width="19.4846" height="19.4838" fill="white" transform="translate(0 21.8335)"/>
</clipPath>
</defs>
</svg>
