<svg width="16" height="16" viewBox="0 0 16 16" fill="none" xmlns="http://www.w3.org/2000/svg">
<path d="M15 8C15 11.866 11.866 15 8 15C4.13401 15 1 11.866 1 8C1 4.13401 4.13401 1 8 1C11.866 1 15 4.13401 15 8Z" fill="#0DD83A"/>
<path d="M11.0481 5.9249C10.8101 5.6869 10.4181 5.6869 10.1801 5.9249L7.28908 8.8159L6.06408 7.5909C5.82608 7.3529 5.43408 7.3529 5.19608 7.5909C4.95808 7.8289 4.95808 8.2139 5.19608 8.4589L6.86208 10.1179C6.98108 10.2369 7.13508 10.2929 7.28908 10.2929C7.45008 10.2929 7.60408 10.2369 7.72308 10.1179L11.0481 6.7929C11.2861 6.5549 11.2861 6.1699 11.0481 5.9249Z" fill="white"/>
</svg>
