<svg width="128" height="128" viewBox="0 0 128 128" fill="none" xmlns="http://www.w3.org/2000/svg">
<g filter="url(#filter0_d_5031_94275)">
<path d="M99 120H29C17.401 120 8 110.599 8 99V29C8 17.401 17.401 8 29 8H99C110.599 8 120 17.401 120 29V99C120 110.599 110.599 120 99 120Z" fill="white"/>
<path d="M56.2013 46.1121V41.4063C56.2013 40.6296 55.5717 40 54.7951 40H49.9258C49.1492 40 48.5195 40.6296 48.5195 41.4063V46.1121H56.2013Z" fill="#DEE0E4"/>
<path d="M61.7942 59.6865C61.504 57.1312 60.0325 54.8335 57.7633 53.4472L56.2009 52.4927V48.9247H48.519V52.4927L46.9567 53.4472C44.6874 54.8335 43.2159 57.1312 42.9258 59.6865H61.7942Z" fill="#DEE0E4"/>
<path d="M79.4787 46.1121V41.4063C79.4787 40.6296 78.8491 40 78.0724 40H73.2031C72.4265 40 71.7969 40.6296 71.7969 41.4063V46.1121H79.4787Z" fill="#DEE0E4"/>
<path d="M71.7964 48.9247V52.4927L70.234 53.4472C67.9647 54.8336 66.4933 57.1312 66.2031 59.6865H85.0714C84.7813 57.1311 83.3098 54.8335 81.0405 53.4472L79.4782 52.4927V48.9247H71.7964Z" fill="#DEE0E4"/>
<path d="M86.5939 62.4992H41.4063C40.6296 62.4992 40 63.1288 40 63.9055V86.5938C40 87.3704 40.6296 88.0001 41.4063 88.0001H86.5939C87.3706 88.0001 88.0002 87.3704 88.0002 86.5938V63.9055C88.0002 63.1288 87.3706 62.4992 86.5939 62.4992ZM69.0427 77.1098H58.9575C56.6311 77.1098 54.7385 75.2172 54.7385 72.8909C54.7385 70.5646 56.6311 68.6719 58.9575 68.6719H69.0427C71.3691 68.6719 73.2617 70.5646 73.2617 72.8909C73.2617 75.2172 71.3691 77.1098 69.0427 77.1098Z" fill="#DEE0E4"/>
<path d="M58.9533 71.4843C58.1778 71.4843 57.5469 72.1152 57.5469 72.8907C57.5469 73.6662 58.1778 74.2971 58.9533 74.2971H68.9448C69.7203 74.2971 70.3513 73.6662 70.3513 72.8907C70.3513 72.1152 69.7203 71.4843 68.9448 71.4843H58.9533Z" fill="#DEE0E4"/>
</g>
<defs>
<filter id="filter0_d_5031_94275" x="-5.05683" y="-3.79263" width="138.114" height="138.114" filterUnits="userSpaceOnUse" color-interpolation-filters="sRGB">
<feFlood flood-opacity="0" result="BackgroundImageFix"/>
<feColorMatrix in="SourceAlpha" type="matrix" values="0 0 0 0 0 0 0 0 0 0 0 0 0 0 0 0 0 0 127 0" result="hardAlpha"/>
<feOffset dy="1.26421"/>
<feGaussianBlur stdDeviation="2.52842"/>
<feColorMatrix type="matrix" values="0 0 0 0 0 0 0 0 0 0 0 0 0 0 0 0 0 0 0.25 0"/>
<feBlend mode="normal" in2="BackgroundImageFix" result="effect1_dropShadow_5031_94275"/>
<feBlend mode="normal" in="SourceGraphic" in2="effect1_dropShadow_5031_94275" result="shape"/>
</filter>
</defs>
</svg>
