<svg width="155" height="152" viewBox="0 0 155 152" fill="none" xmlns="http://www.w3.org/2000/svg">
<g clip-path="url(#clip0)" filter="url(#filter0_d)">
<path d="M130.369 46.9732H26.8969C21.9835 46.9732 18 50.9566 18 55.8701V120.895C18 125.808 21.9835 129.792 26.8969 129.792H97.603L106.727 142.515C108.147 144.495 111.092 144.495 112.511 142.515L121.636 129.792H130.368C135.282 129.792 139.265 125.808 139.265 120.895V55.8701C139.266 50.9566 135.282 46.9732 130.369 46.9732Z" fill="white"/>
<path d="M58.1761 89.0362C58.1761 94.4332 53.8015 98.8078 48.4045 98.8078C43.0075 98.8078 38.6328 94.4332 38.6328 89.0362C38.6328 83.6392 43.0075 79.2645 48.4045 79.2645C53.8015 79.2645 58.1761 83.6392 58.1761 89.0362Z" fill="#DEE0E4"/>
<path d="M88.4046 89.0362C88.4046 94.4332 84.03 98.8078 78.633 98.8078C73.236 98.8078 68.8613 94.4332 68.8613 89.0362C68.8613 83.6392 73.236 79.2645 78.633 79.2645C84.03 79.2645 88.4046 83.6392 88.4046 89.0362Z" fill="#DEE0E4"/>
<path d="M118.633 89.0362C118.633 94.4332 114.258 98.8078 108.861 98.8078C103.464 98.8078 99.0898 94.4332 99.0898 89.0362C99.0898 83.6392 103.464 79.2645 108.861 79.2645C114.258 79.2645 118.633 83.6392 118.633 89.0362Z" fill="#DEE0E4"/>
<g filter="url(#filter1_d)">
<path d="M44.106 67.7162C57.7891 61.5498 63.8826 45.4586 57.7162 31.7755C51.5498 18.0924 35.4586 11.9989 21.7755 18.1653C8.09236 24.3317 1.99886 40.4229 8.16527 54.106C14.3317 67.7892 30.4229 73.8827 44.106 67.7162Z" fill="#B11F24"/>
</g>
<path d="M44.6079 51.5276L45.2125 52.3333C45.2967 52.4455 45.348 52.5791 45.3606 52.7189C45.3732 52.8587 45.3467 52.9992 45.2839 53.1248C45.2211 53.2503 45.1246 53.3559 45.0052 53.4297C44.8858 53.5035 44.7482 53.5426 44.6079 53.5426H20.4218C20.2815 53.5426 20.1439 53.5035 20.0245 53.4297C19.9051 53.3559 19.8086 53.2503 19.7458 53.1248C19.683 52.9992 19.6565 52.8587 19.6691 52.7189C19.6817 52.5791 19.733 52.4455 19.8172 52.3333L20.4218 51.5276V38.4263C20.4218 35.219 21.6959 32.1431 23.9638 29.8752C26.2317 27.6073 29.3076 26.3333 32.5149 26.3333C35.7221 26.3333 38.798 27.6073 41.0659 29.8752C43.3338 32.1431 44.6079 35.219 44.6079 38.4263V51.5276ZM28.7358 55.0542H36.2939C36.2939 56.0565 35.8958 57.0177 35.1871 57.7264C34.4783 58.4351 33.5171 58.8333 32.5149 58.8333C31.5126 58.8333 30.5514 58.4351 29.8426 57.7264C29.1339 57.0177 28.7358 56.0565 28.7358 55.0542Z" fill="#FFAB00"/>
</g>
<defs>
<filter id="filter0_d" x="-2.05683" y="-3.79263" width="162.114" height="162.114" filterUnits="userSpaceOnUse" color-interpolation-filters="sRGB">
<feFlood flood-opacity="0" result="BackgroundImageFix"/>
<feColorMatrix in="SourceAlpha" type="matrix" values="0 0 0 0 0 0 0 0 0 0 0 0 0 0 0 0 0 0 127 0"/>
<feOffset dy="1.26421"/>
<feGaussianBlur stdDeviation="2.52842"/>
<feColorMatrix type="matrix" values="0 0 0 0 0 0 0 0 0 0 0 0 0 0 0 0 0 0 0.25 0"/>
<feBlend mode="normal" in2="BackgroundImageFix" result="effect1_dropShadow"/>
<feBlend mode="normal" in="SourceGraphic" in2="effect1_dropShadow" result="shape"/>
</filter>
<filter id="filter1_d" x="0.702931" y="11.9663" width="64.4773" height="64.4774" filterUnits="userSpaceOnUse" color-interpolation-filters="sRGB">
<feFlood flood-opacity="0" result="BackgroundImageFix"/>
<feColorMatrix in="SourceAlpha" type="matrix" values="0 0 0 0 0 0 0 0 0 0 0 0 0 0 0 0 0 0 127 0"/>
<feOffset dy="1.26421"/>
<feGaussianBlur stdDeviation="2.52842"/>
<feColorMatrix type="matrix" values="0 0 0 0 0 0 0 0 0 0 0 0 0 0 0 0 0 0 0.25 0"/>
<feBlend mode="normal" in2="BackgroundImageFix" result="effect1_dropShadow"/>
<feBlend mode="normal" in="SourceGraphic" in2="effect1_dropShadow" result="shape"/>
</filter>
<clipPath id="clip0">
<rect width="152" height="152" fill="white" transform="translate(3)"/>
</clipPath>
</defs>
</svg>
