<svg width="40" height="40" viewBox="0 0 40 40" fill="none" xmlns="http://www.w3.org/2000/svg">
<path d="M0.5 4C0.5 2.067 2.067 0.5 4 0.5H39.5V39.5H4C2.067 39.5 0.5 37.933 0.5 36V4Z" fill="white"/>
<path fill-rule="evenodd" clip-rule="evenodd" d="M23.0004 29.0004C22.6164 29.0004 22.2324 28.8534 21.9399 28.5609L14.4399 21.0609C13.8534 20.4744 13.8534 19.5264 14.4399 18.9399L21.9399 11.4399C22.5264 10.8534 23.4744 10.8534 24.0609 11.4399C24.6474 12.0264 24.6474 12.9744 24.0609 13.5609L17.6214 20.0004L24.0609 26.4399C24.6474 27.0264 24.6474 27.9744 24.0609 28.5609C23.7684 28.8534 23.3844 29.0004 23.0004 29.0004Z" fill="#4D4D4D"/>
<path d="M0.5 4C0.5 2.067 2.067 0.5 4 0.5H39.5V39.5H4C2.067 39.5 0.5 37.933 0.5 36V4Z" stroke="#BFBFBF"/>
</svg>
