<svg width="40" height="40" viewBox="0 0 40 40" fill="none" xmlns="http://www.w3.org/2000/svg">
<path d="M0.5 0.5H36C37.933 0.5 39.5 2.067 39.5 4V36C39.5 37.933 37.933 39.5 36 39.5H0.5V0.5Z" fill="white"/>
<path fill-rule="evenodd" clip-rule="evenodd" d="M17.0004 29.0004C16.6164 29.0004 16.2324 28.8534 15.9399 28.5609C15.3534 27.9744 15.3534 27.0264 15.9399 26.4399L22.3794 20.0004L15.9399 13.5609C15.3534 12.9744 15.3534 12.0264 15.9399 11.4399C16.5264 10.8534 17.4744 10.8534 18.0609 11.4399L25.5609 18.9399C26.1474 19.5264 26.1474 20.4744 25.5609 21.0609L18.0609 28.5609C17.7684 28.8534 17.3844 29.0004 17.0004 29.0004Z" fill="#4D4D4D"/>
<path d="M0.5 0.5H36C37.933 0.5 39.5 2.067 39.5 4V36C39.5 37.933 37.933 39.5 36 39.5H0.5V0.5Z" stroke="#BFBFBF"/>
</svg>
