<svg width="40" height="40" viewBox="0 0 40 40" fill="none" xmlns="http://www.w3.org/2000/svg">
<path d="M32.9844 7.0332C28.0511 2.11654 20.0511 2.11654 15.1511 7.0332C11.7011 10.4499 10.6677 15.3665 12.0011 19.6999L4.16772 27.5332C3.61772 28.0999 3.23439 29.2165 3.35106 30.0165L3.85106 33.6499C4.03439 34.8499 5.15106 35.9832 6.35106 36.1499L9.98439 36.6499C10.7844 36.7665 11.9011 36.3999 12.4677 35.8165L13.8344 34.4499C14.1677 34.1332 14.1677 33.5999 13.8344 33.2665L10.6011 30.0332C10.1177 29.5499 10.1177 28.7499 10.6011 28.2665C11.0844 27.7832 11.8844 27.7832 12.3677 28.2665L15.6177 31.5165C15.9344 31.8332 16.4677 31.8332 16.7844 31.5165L20.3177 27.9999C24.6344 29.3499 29.5511 28.2999 32.9844 24.8832C37.9011 19.9665 37.9011 11.9499 32.9844 7.0332ZM24.1677 19.9999C21.8677 19.9999 20.0011 18.1332 20.0011 15.8332C20.0011 13.5332 21.8677 11.6665 24.1677 11.6665C26.4677 11.6665 28.3344 13.5332 28.3344 15.8332C28.3344 18.1332 26.4677 19.9999 24.1677 19.9999Z" fill="#F49C00"/>
</svg>
