<svg width="48" height="48" viewBox="0 0 48 48" fill="none" xmlns="http://www.w3.org/2000/svg">
<g filter="url(#filter0_d)">
<circle cx="24" cy="24" r="20" fill="#F49C00"/>
<circle cx="24" cy="24" r="19.5" stroke="white"/>
</g>
<path d="M23.7223 27.8045C28.543 27.8045 32.6111 28.5878 32.6111 31.61C32.6111 34.6334 28.5163 35.389 23.7223 35.389C18.9027 35.389 14.8334 34.6056 14.8334 31.5834C14.8334 28.56 18.9282 27.8045 23.7223 27.8045ZM23.7223 13.1667C26.9879 13.1667 29.6045 15.7823 29.6045 19.0457C29.6045 22.3091 26.9879 24.9258 23.7223 24.9258C20.4577 24.9258 17.8401 22.3091 17.8401 19.0457C17.8401 15.7823 20.4577 13.1667 23.7223 13.1667Z" fill="white"/>
<defs>
<filter id="filter0_d" x="0" y="0" width="48" height="48" filterUnits="userSpaceOnUse" color-interpolation-filters="sRGB">
<feFlood flood-opacity="0" result="BackgroundImageFix"/>
<feColorMatrix in="SourceAlpha" type="matrix" values="0 0 0 0 0 0 0 0 0 0 0 0 0 0 0 0 0 0 127 0"/>
<feOffset/>
<feGaussianBlur stdDeviation="2"/>
<feColorMatrix type="matrix" values="0 0 0 0 0.0352941 0 0 0 0 0.0431373 0 0 0 0 0.0901961 0 0 0 0.3 0"/>
<feBlend mode="normal" in2="BackgroundImageFix" result="effect1_dropShadow"/>
<feBlend mode="normal" in="SourceGraphic" in2="effect1_dropShadow" result="shape"/>
</filter>
</defs>
</svg>
