<svg width="14" height="14" viewBox="0 0 14 14" fill="none" xmlns="http://www.w3.org/2000/svg">
<path fill-rule="evenodd" clip-rule="evenodd" d="M7 14C3.13401 14 0 10.866 0 7C0 3.13401 3.13401 0 7 0C10.866 0 14 3.13401 14 7C14 10.866 10.866 14 7 14ZM6.125 6.12465C6.125 6.6079 6.51675 6.99965 7 6.99965C7.48325 6.99965 7.875 6.6079 7.875 6.12465V4.37465C7.875 3.8914 7.48325 3.49965 7 3.49965C6.51675 3.49965 6.125 3.8914 6.125 4.37465V6.12465ZM6.125 9.62465C6.125 10.1079 6.51675 10.4997 7 10.4997C7.48325 10.4997 7.875 10.1079 7.875 9.62465C7.875 9.1414 7.48325 8.74965 7 8.74965C6.51675 8.74965 6.125 9.1414 6.125 9.62465Z" fill="#D82C0D"/>
</svg>
