<svg width="80" height="24" viewBox="0 0 80 24" fill="none" xmlns="http://www.w3.org/2000/svg">
<rect width="80" height="24" fill="white"/>
<path d="M29.0297 11.8466C30.2975 11.3288 30.7706 10.6325 30.7706 9.77543C30.7706 8.27559 29.4583 7.60602 27.3156 7.60602H23.4767C23.7178 7.97205 23.9499 8.36487 23.9499 8.96302V11.9448C22.825 12.168 21.8073 12.3644 20.852 12.5876C19.995 10.2307 19.0486 7.60602 19.0486 7.60602H16.656C16.6917 7.93634 16.665 8.28452 16.4864 8.75768L13.817 16.2033C13.817 16.2033 13.6385 16.7301 13.2725 17.2032H15.2276C15.1919 16.9443 15.2365 16.6051 15.308 16.3997C15.5044 15.8105 16.04 15.4266 16.6025 15.1766C17.3345 14.8463 18.6112 14.4446 19.2183 14.266L19.8521 16.0873C19.8521 16.0873 20.111 16.7747 19.9682 17.2121H22.7268C22.3072 16.6497 22.1644 16.2301 22.1644 16.2123C22.1019 16.0337 21.7359 15.0338 21.2716 13.7572C22.1108 13.5518 22.9947 13.3822 23.941 13.1947V15.8373C23.941 16.3462 23.7356 16.7925 23.4678 17.1943H27.1192C27.7174 17.1943 28.2441 17.1586 28.6458 17.0872C30.2082 16.8104 31.3331 16.0158 31.3331 14.3107C31.342 13.0251 30.4671 12.2395 29.0297 11.8466ZM16.7007 13.8286C16.4686 13.9357 16.1739 14.1232 16.0043 14.2928C16.531 12.7573 17.2542 10.6503 17.6024 9.65044L18.8076 13.0876C18.2005 13.2661 17.2631 13.5607 16.7007 13.8286ZM26.0747 8.81125C26.4496 8.79339 26.5925 8.79339 26.8335 8.79339C28.012 8.79339 28.5566 9.28441 28.5566 9.98077C28.5566 10.6414 28.1191 11.0521 27.387 11.2753C27.0835 11.3646 26.5746 11.4717 26.0658 11.561C26.0747 11.552 26.0747 8.81125 26.0747 8.81125ZM26.9674 16.0158H26.0836V12.8198C26.4139 12.7394 26.9407 12.6501 27.2799 12.6144C28.3423 12.8644 29.1279 13.3018 29.1279 14.3821C29.119 15.6409 28.1995 16.0158 26.9674 16.0158Z" fill="#B31F24"/>
<path d="M32.333 17.2115C32.8062 16.5062 32.8062 15.8634 32.8062 15.8545V8.98023C32.8062 8.9713 32.8062 8.33744 32.333 7.62323H35.413C34.9399 8.33744 34.9399 8.9713 34.9399 8.98023V15.8545C34.9399 15.8634 34.9399 16.5062 35.413 17.2115H32.333Z" fill="#431512"/>
<path d="M66.8379 10.454H64.7756C64.9542 10.7397 64.8828 11.195 64.6953 11.6503L63.3561 15.2124L61.9724 11.6503C61.7849 11.186 61.7224 10.7397 61.892 10.454H59.2227C59.5887 10.8468 59.8208 11.3378 59.9547 11.6503L62.2491 17.2122H64.0346C64.0346 17.2122 64.0793 16.7569 64.2846 16.248L66.1326 11.6503C66.2576 11.3378 66.5255 10.7843 66.8379 10.454Z" fill="#431512"/>
<path d="M59.5088 14.025C59.6427 12.6145 59.2499 10.1505 56.1341 10.1505C53.5897 10.1505 52.6523 11.9271 52.6523 13.659C52.6523 15.8641 53.8486 17.3729 56.7233 17.3729C57.8929 17.3729 58.8303 17.0247 59.3927 16.6855L58.8213 15.4178C58.2767 15.6945 57.6161 15.9356 56.8751 15.9356C55.5895 15.9356 54.8039 15.4892 54.6343 14.2125H57.4018C58.4107 14.2215 59.2409 14.159 59.5088 14.025ZM54.6254 13.0519C54.7503 11.9628 55.2414 11.4092 56.1252 11.4092C57.0447 11.4092 57.5 12.1235 57.5358 13.043C57.5358 13.043 57.134 13.0519 56.6073 13.0519H54.6254V13.0519Z" fill="#431512"/>
<path d="M40.6891 17.2122H43.421C43.0014 16.5873 43.0014 16.0159 43.0014 16.0159V12.4091C43.0014 11.1146 42.305 10.3201 40.8409 10.3201C39.9035 10.3201 39.1357 10.7397 38.5643 11.2575V10.454H36.2432C36.6628 11.0878 36.6628 11.6503 36.6628 11.6503V16.007C36.6628 16.0159 36.6628 16.5783 36.2432 17.2033H38.9839C38.5643 16.5783 38.5643 16.007 38.5643 16.007V12.4002C38.9125 12.0431 39.4125 11.7753 39.9571 11.7753C40.7963 11.7753 41.0998 12.2395 41.0998 12.9626V15.998C41.0998 16.0159 41.0998 16.5783 40.6891 17.2122Z" fill="#431512"/>
<path d="M47.769 12.677C49.1171 12.677 49.8581 13.3376 49.8581 14.4C49.8581 15.3552 49.2867 16.0516 47.7422 16.0516H46.8138V12.6859C46.8138 12.677 47.769 12.677 47.769 12.677ZM47.5637 8.77558C48.7421 8.77558 49.2867 9.23982 49.2867 10.0969C49.2867 10.9539 48.7957 11.4717 47.6619 11.4717C47.4387 11.4717 47.0459 11.4807 46.8048 11.4717V8.77558H47.5637ZM47.8137 17.2122C48.4118 17.2122 48.9653 17.1765 49.3671 17.1051C50.9026 16.8372 52.0454 16.0516 52.0454 14.3464C52.0454 12.9805 51.1705 12.2752 49.8045 11.8824C51.0276 11.4182 51.4383 10.7486 51.4383 9.88261C51.4383 8.38277 50.2152 7.61499 48.019 7.61499H44.3408C44.5997 8.00781 44.689 8.57025 44.689 8.97199V15.8463C44.689 16.2926 44.6086 16.7658 44.3408 17.2033H47.8137V17.2122Z" fill="#431512"/>
</svg>
