<svg width="178" height="178" viewBox="0 0 178 178" fill="none" xmlns="http://www.w3.org/2000/svg">
<path d="M89.0001 141.381C117.929 141.381 141.381 117.929 141.381 89C141.381 60.0708 117.929 36.619 89.0001 36.619C60.0709 36.619 36.6191 60.0708 36.6191 89C36.6191 117.929 60.0709 141.381 89.0001 141.381Z" fill="white" fill-opacity="0.15"/>
<path d="M141.631 89C141.631 88.34 141.619 87.6829 141.595 87.0289L141.345 87.0381C141.321 86.3828 141.285 85.7305 141.237 85.0815L141.486 85.0631C141.389 83.7458 141.243 82.4421 141.05 81.1536L140.803 81.1905C140.706 80.5421 140.597 79.8975 140.477 79.2571L140.722 79.2109C140.478 77.9143 140.187 76.6345 139.85 75.3733L139.608 75.4378C139.439 74.8057 139.259 74.1782 139.067 73.5558L139.306 73.4821C138.918 72.2224 138.484 70.9829 138.006 69.7655L137.773 69.8569C137.534 69.2482 137.284 68.645 137.023 68.0476L137.252 67.9475C136.725 66.7416 136.154 65.5591 135.541 64.4023L135.32 64.5193C135.014 63.9415 134.698 63.3701 134.371 62.8053L134.587 62.6801C133.929 61.5423 133.229 60.4314 132.49 59.3495L132.284 59.4905C131.915 58.9509 131.537 58.4185 131.149 57.8937L131.35 57.745C130.569 56.6888 129.75 55.6627 128.894 54.669L128.704 54.8322C128.278 54.3373 127.843 53.8504 127.398 53.3719L127.582 53.2018C126.689 52.2399 125.76 51.3114 124.798 50.4185L124.628 50.6017C124.15 50.1575 123.663 49.7221 123.168 49.2958L123.331 49.1064C122.337 48.2505 121.311 47.4311 120.255 46.6502L120.106 46.8512C119.582 46.4632 119.049 46.0848 118.51 45.7162L118.651 45.5097C117.569 44.7707 116.458 44.071 115.32 43.4127L115.195 43.6291C114.63 43.3023 114.059 42.9858 113.481 42.6798L113.598 42.4588C112.441 41.8462 111.259 41.2754 110.053 40.7485L109.952 40.9776C109.355 40.7166 108.752 40.4664 108.143 40.2273L108.235 39.9946C107.017 39.5164 105.778 39.0822 104.518 38.6941L104.444 38.933C103.822 38.7412 103.194 38.5607 102.562 38.3917L102.627 38.1502C101.366 37.8131 100.086 37.5216 98.7892 37.2777L98.743 37.5234C98.1025 37.403 97.458 37.2942 96.8095 37.1972L96.8465 36.95C95.558 36.7574 94.2542 36.6115 92.937 36.5141L92.9185 36.7634C92.2696 36.7154 91.6173 36.6792 90.962 36.6551L90.9712 36.4052C90.3171 36.3812 89.66 36.369 89.0001 36.369C88.3402 36.369 87.6831 36.3812 87.029 36.4052L87.0382 36.6551C86.3829 36.6792 85.7306 36.7154 85.0816 36.7634L85.0632 36.5141C83.746 36.6115 82.4422 36.7574 81.1537 36.95L81.1907 37.1972C80.5422 37.2942 79.8977 37.403 79.2572 37.5234L79.211 37.2777C77.9144 37.5216 76.6346 37.8131 75.3734 38.1502L75.438 38.3917C74.8058 38.5607 74.1784 38.7412 73.5559 38.933L73.4823 38.6941C72.2226 39.0822 70.983 39.5164 69.7656 39.9946L69.857 40.2273C69.2483 40.4664 68.6451 40.7165 68.0478 40.9775L67.9477 40.7485C66.7417 41.2754 65.5593 41.8462 64.4024 42.4588L64.5194 42.6798C63.9416 42.9858 63.3702 43.3023 62.8054 43.6291L62.6802 43.4127C61.5424 44.071 60.4315 44.7707 59.3497 45.5097L59.4907 45.7162C58.951 46.0848 58.4187 46.4632 57.8938 46.8512L57.7452 46.6502C56.6889 47.431 55.6629 48.2505 54.6692 49.1064L54.8323 49.2958C54.3374 49.7221 53.8505 50.1575 53.372 50.6017L53.2019 50.4185C52.24 51.3114 51.3115 52.2399 50.4186 53.2018L50.6018 53.3719C50.1576 53.8504 49.7222 54.3373 49.2959 54.8322L49.1065 54.669C48.2506 55.6627 47.4312 56.6887 46.6503 57.745L46.8514 57.8936C46.4634 58.4185 46.0849 58.9509 45.7163 59.4905L45.5099 59.3495C44.7709 60.4314 44.0711 61.5423 43.4128 62.6801L43.6292 62.8053C43.3024 63.3701 42.9859 63.9415 42.6799 64.5193L42.459 64.4023C41.8463 65.5591 41.2755 66.7415 40.7486 67.9475L40.9777 68.0476C40.7167 68.645 40.4665 69.2482 40.2274 69.8569L39.9947 69.7655C39.5165 70.9829 39.0823 72.2224 38.6942 73.4821L38.9331 73.5558C38.7413 74.1783 38.5608 74.8057 38.3918 75.4379L38.1503 75.3733C37.8132 76.6345 37.5218 77.9143 37.2779 79.2109L37.5236 79.2571C37.4031 79.8975 37.2943 80.5421 37.1973 81.1905L36.9501 81.1536C36.7575 82.4421 36.6116 83.7459 36.5142 85.0631L36.7635 85.0815C36.7155 85.7305 36.6793 86.3828 36.6552 87.0381L36.4054 87.0289C36.3813 87.683 36.3691 88.34 36.3691 89C36.3691 89.6599 36.3813 90.317 36.4054 90.971L36.6552 90.9618C36.6793 91.6172 36.7155 92.2694 36.7635 92.9184L36.5142 92.9369C36.6116 94.2541 36.7575 95.5578 36.9501 96.8464L37.1973 96.8094C37.2943 97.4578 37.4031 98.1024 37.5236 98.7428L37.2779 98.789C37.5218 100.086 37.8132 101.365 38.1503 102.627L38.3919 102.562C38.5608 103.194 38.7413 103.822 38.9331 104.444L38.6942 104.518C39.0824 105.777 39.5165 107.017 39.9947 108.234L40.2274 108.143C40.4665 108.752 40.7167 109.355 40.9777 109.952L40.7486 110.052C41.2755 111.258 41.8463 112.441 42.459 113.598L42.6799 113.481C42.9859 114.058 43.3024 114.63 43.6292 115.195L43.4128 115.32C44.0711 116.458 44.7708 117.569 45.5099 118.65L45.7163 118.509C46.0849 119.049 46.4634 119.581 46.8514 120.106L46.6503 120.255C47.4312 121.311 48.2506 122.337 49.1065 123.331L49.2959 123.168C49.7222 123.663 50.1576 124.15 50.6018 124.628L50.4186 124.798C51.3115 125.76 52.24 126.689 53.2019 127.581L53.372 127.398C53.8505 127.842 54.3374 128.278 54.8323 128.704L54.6692 128.894C55.6628 129.749 56.6889 130.569 57.7452 131.35L57.8938 131.149C58.4187 131.537 58.951 131.915 59.4907 132.284L59.3497 132.49C60.4315 133.229 61.5424 133.929 62.6802 134.587L62.8054 134.371C63.3702 134.698 63.9416 135.014 64.5194 135.32L64.4024 135.541C65.5593 136.154 66.7417 136.725 67.9477 137.251L68.0478 137.022C68.6451 137.283 69.2483 137.534 69.857 137.773L69.7656 138.005C70.983 138.484 72.2226 138.918 73.4823 139.306L73.5559 139.067C74.1784 139.259 74.8058 139.439 75.438 139.608L75.3734 139.85C76.6346 140.187 77.9144 140.478 79.211 140.722L79.2572 140.476C79.8977 140.597 80.5422 140.706 81.1907 140.803L81.1537 141.05C82.4422 141.243 83.746 141.388 85.0632 141.486L85.0817 141.237C85.7306 141.285 86.3829 141.321 87.0382 141.345L87.029 141.595C87.6831 141.619 88.3402 141.631 89.0001 141.631C89.66 141.631 90.3171 141.619 90.9712 141.595L90.962 141.345C91.6173 141.321 92.2696 141.285 92.9186 141.237L92.937 141.486C94.2542 141.388 95.558 141.243 96.8465 141.05L96.8096 140.803C97.458 140.706 98.1025 140.597 98.743 140.476L98.7892 140.722C100.086 140.478 101.366 140.187 102.627 139.85L102.562 139.608C103.194 139.439 103.822 139.259 104.444 139.067L104.518 139.306C105.778 138.918 107.017 138.484 108.235 138.005L108.143 137.773C108.752 137.534 109.355 137.283 109.952 137.022L110.053 137.251C111.259 136.725 112.441 136.154 113.598 135.541L113.481 135.32C114.059 135.014 114.63 134.698 115.195 134.371L115.32 134.587C116.458 133.929 117.569 133.229 118.651 132.49L118.51 132.284C119.049 131.915 119.582 131.537 120.106 131.149L120.255 131.35C121.311 130.569 122.337 129.749 123.331 128.894L123.168 128.704C123.663 128.278 124.15 127.842 124.628 127.398L124.798 127.581C125.76 126.689 126.689 125.76 127.582 124.798L127.398 124.628C127.843 124.15 128.278 123.663 128.704 123.168L128.894 123.331C129.75 122.337 130.569 121.311 131.35 120.255L131.149 120.106C131.537 119.581 131.915 119.049 132.284 118.509L132.49 118.65C133.229 117.569 133.929 116.458 134.587 115.32L134.371 115.195C134.698 114.63 135.014 114.058 135.32 113.481L135.541 113.598C136.154 112.441 136.725 111.258 137.252 110.052L137.023 109.952C137.284 109.355 137.534 108.752 137.773 108.143L138.006 108.234C138.484 107.017 138.918 105.777 139.306 104.518L139.067 104.444C139.259 103.822 139.439 103.194 139.608 102.562L139.85 102.627C140.187 101.365 140.478 100.086 140.722 98.789L140.477 98.7428C140.597 98.1024 140.706 97.4578 140.803 96.8094L141.05 96.8464C141.243 95.5578 141.389 94.2541 141.486 92.9368L141.237 92.9184C141.285 92.2694 141.321 91.6172 141.345 90.9618L141.595 90.971C141.619 90.317 141.631 89.6599 141.631 89Z" stroke="white" stroke-opacity="0.5" stroke-width="0.5" stroke-dasharray="4 2"/>
<path d="M88.9998 160.238C128.344 160.238 160.238 128.344 160.238 88.9999C160.238 49.6562 128.344 17.7618 88.9998 17.7618C49.6561 17.7618 17.7617 49.6562 17.7617 88.9999C17.7617 128.344 49.6561 160.238 88.9998 160.238Z" fill="white" fill-opacity="0.15"/>
<path d="M160.488 88.9999C160.488 88.3394 160.479 87.681 160.461 87.0248L160.211 87.0316C160.193 86.3767 160.167 85.7241 160.132 85.0737L160.381 85.0601C160.309 83.741 160.202 82.4314 160.06 81.1322L159.811 81.1594C159.74 80.5068 159.66 79.8569 159.571 79.2097L159.818 79.1756C159.639 77.8687 159.424 76.5729 159.174 75.2895L158.929 75.3372C158.804 74.6932 158.67 74.0523 158.528 73.4146L158.772 73.3601C158.485 72.0733 158.163 70.7996 157.807 69.5399L157.567 69.6078C157.389 68.9777 157.202 68.3511 157.008 67.7282L157.246 67.6536C156.853 66.3958 156.427 65.1529 155.967 63.926L155.733 64.0137C155.503 63.3999 155.265 62.79 155.019 62.1843L155.25 62.0902C154.754 60.8708 154.226 59.6681 153.666 58.4833L153.44 58.5902C153.16 57.9978 152.872 57.4098 152.576 56.8265L152.799 56.7134C152.204 55.54 151.577 54.3851 150.921 53.25L150.704 53.3752C150.376 52.8085 150.041 52.2468 149.698 51.6901L149.911 51.559C149.221 50.4392 148.501 49.34 147.753 48.2623L147.547 48.4049C147.174 47.8672 146.793 47.3349 146.405 46.8081L146.607 46.6599C145.827 45.6015 145.02 44.5653 144.185 43.5525L143.992 43.7116C143.575 43.2064 143.152 42.7071 142.722 42.2138L142.91 42.0495C142.047 41.0591 141.157 40.0927 140.241 39.1515L140.062 39.3259C139.606 38.8568 139.143 38.394 138.674 37.9376L138.848 37.7585C137.907 36.8427 136.941 35.9526 135.95 35.0893L135.786 35.2778C135.293 34.8478 134.793 34.4245 134.288 34.008L134.447 33.8151C133.434 32.9801 132.398 32.1724 131.34 31.3931L131.192 31.5945C130.665 31.2066 130.133 30.8259 129.595 30.4524L129.737 30.247C128.66 29.4984 127.56 28.7787 126.441 28.0889L126.31 28.3018C125.753 27.9589 125.191 27.6234 124.625 27.2955L124.75 27.0791C123.615 26.4224 122.46 25.7959 121.286 25.2009L121.173 25.4239C120.59 25.1281 120.002 24.8401 119.41 24.56L119.516 24.334C118.332 23.7739 117.129 23.2454 115.91 22.7496L115.815 22.9812C115.21 22.7349 114.6 22.4968 113.986 22.2668L114.074 22.0327C112.847 21.5731 111.604 21.1463 110.346 20.7533L110.272 20.9919C109.649 20.7973 109.022 20.611 108.392 20.4331L108.46 20.1925C107.2 19.837 105.926 19.5151 104.64 19.2279L104.585 19.4719C103.947 19.3296 103.307 19.1958 102.663 19.0707L102.71 18.8253C101.427 18.576 100.131 18.361 98.8241 18.1814L98.7901 18.4291C98.1429 18.3401 97.4929 18.2598 96.8403 18.1884L96.8675 17.9399C95.5683 17.7976 94.2587 17.6902 92.9396 17.6186L92.926 17.8682C92.2757 17.8329 91.623 17.8063 90.9681 17.7885L90.9749 17.5386C90.3187 17.5208 89.6603 17.5118 88.9998 17.5118C88.3393 17.5118 87.6809 17.5208 87.0247 17.5386L87.0315 17.7885C86.3766 17.8063 85.7239 17.8329 85.0736 17.8682L85.06 17.6186C83.7409 17.6902 82.4313 17.7976 81.1321 17.9399L81.1593 18.1884C80.5067 18.2598 79.8567 18.3401 79.2095 18.4291L79.1755 18.1814C77.8685 18.361 76.5728 18.576 75.2894 18.8253L75.337 19.0707C74.693 19.1958 74.0521 19.3296 73.4145 19.4719L73.36 19.2279C72.0732 19.5151 70.7994 19.837 69.5398 20.1925L69.6077 20.4331C68.9776 20.611 68.351 20.7973 67.7281 20.9919L67.6535 20.7533C66.3957 21.1463 65.1528 21.5731 63.9259 22.0327L64.0136 22.2668C63.3997 22.4968 62.7899 22.7349 62.1842 22.9812L62.0901 22.7496C60.8706 23.2454 59.668 23.7739 58.4832 24.334L58.5901 24.56C57.9976 24.8401 57.4097 25.1281 56.8264 25.4239L56.7133 25.2009C55.5398 25.7959 54.385 26.4224 53.2499 27.0791L53.3751 27.2955C52.8084 27.6234 52.2466 27.9589 51.69 28.3018L51.5588 28.0889C50.4391 28.7786 49.3398 29.4984 48.2622 30.247L48.4048 30.4524C47.8671 30.8259 47.3348 31.2066 46.808 31.5944L46.6598 31.3931C45.6014 32.1724 44.5652 32.9801 43.5524 33.8151L43.7114 34.008C43.2063 34.4245 42.707 34.8478 42.2136 35.2778L42.0494 35.0893C41.059 35.9526 40.0926 36.8427 39.1514 37.7585L39.3257 37.9376C38.8567 38.394 38.3939 38.8568 37.9375 39.3259L37.7583 39.1515C36.8425 40.0927 35.9524 41.0591 35.0892 42.0495L35.2777 42.2138C34.8477 42.7071 34.4244 43.2064 34.0079 43.7116L33.815 43.5525C32.9799 44.5653 32.1722 45.6015 31.393 46.6599L31.5943 46.8081C31.2065 47.3349 30.8258 47.8672 30.4522 48.4049L30.2469 48.2623C29.4983 49.34 28.7785 50.4392 28.0888 51.559L28.3016 51.6901C27.9587 52.2468 27.6233 52.8085 27.2954 53.3752L27.079 53.25C26.4222 54.3851 25.7958 55.5399 25.2008 56.7134L25.4237 56.8265C25.128 57.4098 24.84 57.9977 24.5599 58.5902L24.3339 58.4833C23.7738 59.6681 23.2453 60.8708 22.7495 62.0902L22.9811 62.1843C22.7348 62.79 22.4967 63.3999 22.2667 64.0137L22.0326 63.926C21.573 65.1529 21.1462 66.3958 20.7532 67.6536L20.9918 67.7282C20.7972 68.3511 20.6108 68.9777 20.433 69.6078L20.1924 69.5399C19.8368 70.7995 19.515 72.0733 19.2278 73.3601L19.4718 73.4146C19.3294 74.0522 19.1957 74.6932 19.0706 75.3372L18.8252 75.2895C18.5759 76.5729 18.3609 77.8686 18.1813 79.1756L18.4289 79.2096C18.34 79.8568 18.2597 80.5068 18.1883 81.1594L17.9397 81.1322C17.7975 82.4314 17.6901 83.741 17.6184 85.0601L17.8681 85.0737C17.8328 85.724 17.8062 86.3767 17.7884 87.0316L17.5385 87.0248C17.5207 87.681 17.5117 88.3394 17.5117 88.9999C17.5117 89.6604 17.5207 90.3188 17.5385 90.975L17.7884 90.9683C17.8062 91.6231 17.8328 92.2758 17.8681 92.9261L17.6184 92.9397C17.6901 94.2588 17.7975 95.5684 17.9397 96.8676L18.1883 96.8404C18.2597 97.493 18.34 98.143 18.4289 98.7902L18.1813 98.8242C18.3609 100.131 18.5759 101.427 18.8252 102.71L19.0706 102.663C19.1957 103.307 19.3294 103.948 19.4718 104.585L19.2278 104.64C19.515 105.927 19.8368 107.2 20.1924 108.46L20.433 108.392C20.6108 109.022 20.7971 109.649 20.9918 110.272L20.7532 110.346C21.1462 111.604 21.573 112.847 22.0326 114.074L22.2667 113.986C22.4966 114.6 22.7348 115.21 22.9811 115.816L22.7495 115.91C23.2453 117.129 23.7738 118.332 24.3339 119.517L24.5599 119.41C24.84 120.002 25.128 120.59 25.4237 121.173L25.2008 121.286C25.7958 122.46 26.4222 123.615 27.079 124.75L27.2954 124.625C27.6233 125.191 27.9587 125.753 28.3016 126.31L28.0888 126.441C28.7785 127.561 29.4983 128.66 30.2469 129.738L30.4522 129.595C30.8258 130.133 31.2065 130.665 31.5943 131.192L31.393 131.34C32.1722 132.398 32.9799 133.435 33.815 134.447L34.0079 134.288C34.4244 134.793 34.8477 135.293 35.2777 135.786L35.0892 135.95C35.9525 136.941 36.8425 137.907 37.7583 138.848L37.9375 138.674C38.3939 139.143 38.8567 139.606 39.3257 140.062L39.1514 140.241C40.0926 141.157 41.059 142.047 42.0494 142.911L42.2136 142.722C42.707 143.152 43.2063 143.575 43.7114 143.992L43.5524 144.185C44.5652 145.02 45.6014 145.827 46.6598 146.607L46.808 146.405C47.3348 146.793 47.8671 147.174 48.4048 147.547L48.2622 147.753C49.3398 148.501 50.4391 149.221 51.5588 149.911L51.69 149.698C52.2466 150.041 52.8084 150.376 53.3751 150.704L53.2499 150.921C54.385 151.577 55.5398 152.204 56.7133 152.799L56.8264 152.576C57.4097 152.872 57.9976 153.16 58.5901 153.44L58.4832 153.666C59.668 154.226 60.8706 154.754 62.0901 155.25L62.1842 155.019C62.7899 155.265 63.3997 155.503 64.0136 155.733L63.9259 155.967C65.1528 156.427 66.3957 156.854 67.6535 157.247L67.7281 157.008C68.351 157.203 68.9776 157.389 69.6077 157.567L69.5398 157.807C70.7994 158.163 72.0732 158.485 73.36 158.772L73.4145 158.528C74.0521 158.67 74.693 158.804 75.337 158.929L75.2894 159.175C76.5728 159.424 77.8685 159.639 79.1755 159.818L79.2095 159.571C79.8567 159.66 80.5067 159.74 81.1593 159.811L81.1321 160.06C82.4313 160.202 83.7409 160.31 85.06 160.381L85.0736 160.132C85.7239 160.167 86.3766 160.194 87.0315 160.211L87.0247 160.461C87.6809 160.479 88.3393 160.488 88.9998 160.488C89.6603 160.488 90.3187 160.479 90.9749 160.461L90.9681 160.211C91.623 160.194 92.2757 160.167 92.926 160.132L92.9396 160.381C94.2587 160.31 95.5683 160.202 96.8675 160.06L96.8403 159.811C97.4929 159.74 98.1429 159.66 98.7901 159.571L98.8241 159.818C100.131 159.639 101.427 159.424 102.71 159.175L102.663 158.929C103.307 158.804 103.947 158.67 104.585 158.528L104.64 158.772C105.926 158.485 107.2 158.163 108.46 157.807L108.392 157.567C109.022 157.389 109.649 157.203 110.272 157.008L110.346 157.247C111.604 156.854 112.847 156.427 114.074 155.967L113.986 155.733C114.6 155.503 115.21 155.265 115.815 155.019L115.91 155.25C117.129 154.754 118.332 154.226 119.516 153.666L119.41 153.44C120.002 153.16 120.59 152.872 121.173 152.576L121.286 152.799C122.46 152.204 123.615 151.577 124.75 150.921L124.625 150.704C125.191 150.376 125.753 150.041 126.31 149.698L126.441 149.911C127.56 149.221 128.66 148.501 129.737 147.753L129.595 147.547C130.133 147.174 130.665 146.793 131.192 146.405L131.34 146.607C132.398 145.827 133.434 145.02 134.447 144.185L134.288 143.992C134.793 143.575 135.293 143.152 135.786 142.722L135.95 142.911C136.941 142.047 137.907 141.157 138.848 140.241L138.674 140.062C139.143 139.606 139.606 139.143 140.062 138.674L140.241 138.848C141.157 137.907 142.047 136.941 142.91 135.95L142.722 135.786C143.152 135.293 143.575 134.793 143.992 134.288L144.185 134.447C145.02 133.435 145.827 132.398 146.607 131.34L146.405 131.192C146.793 130.665 147.174 130.133 147.547 129.595L147.753 129.738C148.501 128.66 149.221 127.561 149.911 126.441L149.698 126.31C150.041 125.753 150.376 125.191 150.704 124.625L150.921 124.75C151.577 123.615 152.204 122.46 152.799 121.286L152.576 121.173C152.872 120.59 153.16 120.002 153.44 119.41L153.666 119.517C154.226 118.332 154.754 117.129 155.25 115.91L155.019 115.816C155.265 115.21 155.503 114.6 155.733 113.986L155.967 114.074C156.427 112.847 156.853 111.604 157.246 110.346L157.008 110.272C157.202 109.649 157.389 109.022 157.567 108.392L157.807 108.46C158.163 107.2 158.485 105.927 158.772 104.64L158.528 104.585C158.67 103.948 158.804 103.307 158.929 102.663L159.174 102.71C159.424 101.427 159.639 100.131 159.818 98.8242L159.571 98.7902C159.66 98.143 159.74 97.493 159.811 96.8404L160.06 96.8676C160.202 95.5684 160.309 94.2588 160.381 92.9397L160.132 92.9261C160.167 92.2758 160.193 91.6231 160.211 90.9683L160.461 90.975C160.479 90.3188 160.488 89.6604 160.488 88.9999Z" stroke="white" stroke-opacity="0.5" stroke-width="0.5" stroke-dasharray="4 2"/>
<path d="M89 177C137.601 177 177 137.601 177 89C177 40.3989 137.601 1 89 1C40.3989 1 1 40.3989 1 89C1 137.601 40.3989 177 89 177Z" fill="white" fill-opacity="0.15"/>
<path d="M177.25 89C177.25 88.3264 177.242 87.6546 177.227 86.9847L176.978 86.9903C176.963 86.3222 176.94 85.6559 176.91 84.9915L177.16 84.9803C177.1 83.6355 177.009 82.2985 176.89 80.9699L176.641 80.9924C176.58 80.3259 176.513 79.6615 176.438 78.9994L176.686 78.9713C176.535 77.6354 176.354 76.3085 176.144 74.9913L175.897 75.0307C175.792 74.3692 175.679 73.7102 175.559 73.0537L175.805 73.0087C175.563 71.6866 175.291 70.3748 174.991 69.074L174.747 69.1302C174.597 68.4795 174.44 67.8315 174.275 67.1863L174.518 67.1245C174.186 65.8225 173.825 64.5321 173.435 63.2539L173.196 63.3267C173.001 62.6866 172.799 62.0496 172.59 61.4157L172.828 61.3374C172.407 60.0624 171.958 58.8003 171.482 57.5518L171.248 57.6409C171.01 57.0162 170.765 56.395 170.513 55.7773L170.744 55.6829C170.237 54.4402 169.703 53.2117 169.142 51.9981L168.915 52.103C168.634 51.4966 168.347 50.8939 168.053 50.2951L168.278 50.185C167.687 48.9806 167.07 47.7918 166.426 46.6191L166.207 46.7393C165.886 46.1531 165.558 45.571 165.223 44.993L165.439 44.8678C164.768 43.7071 164.071 42.5632 163.349 41.4367L163.138 41.5716C162.778 41.0094 162.411 40.4515 162.038 39.8981L162.246 39.7584C161.497 38.6465 160.723 37.5526 159.926 36.4775L159.725 36.6264C159.327 36.0898 158.923 35.5578 158.513 35.0306L158.71 34.8772C157.888 33.8193 157.041 32.7806 156.173 31.7619L155.982 31.9241C155.549 31.4159 155.11 30.9127 154.665 30.4146L154.852 30.2481C153.959 29.2488 153.045 28.2699 152.108 27.3122L151.93 27.4869C151.463 27.0094 150.991 26.5372 150.513 26.0703L150.688 25.8915C149.73 24.9553 148.751 24.0406 147.752 23.1484L147.585 23.3349C147.087 22.8902 146.584 22.451 146.076 22.0176L146.238 21.8274C145.219 20.9585 144.181 20.1124 143.123 19.2899L142.969 19.4872C142.442 19.0773 141.91 18.6733 141.374 18.2752L141.523 18.0745C140.447 17.277 139.353 16.5034 138.242 15.7544L138.102 15.9617C137.549 15.589 136.991 15.2223 136.428 14.8619L136.563 14.6514C135.437 13.9293 134.293 13.2321 133.132 12.5605L133.007 12.7769C132.429 12.4425 131.847 12.1144 131.261 11.7929L131.381 11.5737C130.208 10.9305 129.019 10.3131 127.815 9.7223L127.705 9.94675C127.106 9.653 126.503 9.36584 125.897 9.08539L126.002 8.85848C124.788 8.29722 123.56 7.76271 122.317 7.25571L122.223 7.48719C121.605 7.23516 120.984 6.98996 120.359 6.75166L120.448 6.51808C119.2 6.04177 117.938 5.59299 116.663 5.17248L116.584 5.4099C115.95 5.20086 115.313 4.99882 114.673 4.80388L114.746 4.56472C113.468 4.17548 112.177 3.81446 110.875 3.4824L110.814 3.72464C110.169 3.56011 109.521 3.40271 108.87 3.25252L108.926 3.00892C107.625 2.70871 106.313 2.43725 104.991 2.19525L104.946 2.44117C104.29 2.321 103.631 2.20812 102.969 2.10261L103.009 1.85573C101.691 1.64564 100.365 1.4647 99.0287 1.31358L99.0006 1.562C98.3384 1.4871 97.6741 1.41955 97.0076 1.35943L97.03 1.11044C95.7015 0.990601 94.3645 0.90021 93.0196 0.839919L93.0084 1.08967C92.3441 1.05988 91.6778 1.03747 91.0097 1.0225L91.0153 0.772559C90.3454 0.757546 89.6736 0.75 89 0.75C88.3264 0.75 87.6546 0.757547 86.9847 0.77256L86.9903 1.0225C86.3222 1.03747 85.6559 1.05989 84.9915 1.08967L84.9803 0.839921C83.6355 0.900212 82.2985 0.990604 80.9699 1.11044L80.9924 1.35943C80.3259 1.41955 79.6615 1.4871 78.9994 1.562L78.9713 1.31358C77.6354 1.4647 76.3085 1.64565 74.9913 1.85574L75.0307 2.10262C74.3692 2.20813 73.7101 2.32101 73.0537 2.44117L73.0087 2.19526C71.6866 2.43725 70.3748 2.70871 69.074 3.00893L69.1302 3.25252C68.4795 3.40271 67.8315 3.56011 67.1863 3.72465L67.1245 3.4824C65.8225 3.81447 64.5321 4.17548 63.2539 4.56473L63.3267 4.80388C62.6866 4.99882 62.0496 5.20086 61.4157 5.40991L61.3374 5.17249C60.0624 5.59299 58.8003 6.04178 57.5518 6.51809L57.6409 6.75167C57.0162 6.98997 56.395 7.23517 55.7773 7.4872L55.6829 7.25572C54.4402 7.76272 53.2117 8.29723 51.9981 8.85849L52.103 9.0854C51.4966 9.36585 50.8939 9.653 50.2951 9.94676L50.185 9.72231C48.9806 10.3131 47.7918 10.9305 46.6191 11.5737L46.7393 11.7929C46.1531 12.1145 45.571 12.4425 44.993 12.7769L44.8678 12.5605C43.7071 13.2321 42.5631 13.9293 41.4367 14.6514L41.5716 14.8619C41.0094 15.2223 40.4515 15.589 39.8981 15.9618L39.7584 15.7544C38.6465 16.5034 37.5526 17.277 36.4775 18.0745L36.6264 18.2753C36.0898 18.6733 35.5578 19.0773 35.0306 19.4872L34.8772 19.2899C33.8193 20.1124 32.7806 20.9585 31.7619 21.8274L31.9241 22.0176C31.4159 22.451 30.9127 22.8902 30.4146 23.3349L30.2481 23.1484C29.2488 24.0406 28.2699 24.9553 27.3122 25.8915L27.4869 26.0703C27.0094 26.5372 26.5371 27.0094 26.0703 27.4869L25.8915 27.3122C24.9553 28.2699 24.0406 29.2488 23.1484 30.2481L23.3349 30.4146C22.8902 30.9127 22.451 31.4159 22.0176 31.9241L21.8274 31.7619C20.9585 32.7806 20.1124 33.8193 19.2899 34.8772L19.4872 35.0306C19.0773 35.5578 18.6733 36.0898 18.2752 36.6264L18.0745 36.4775C17.277 37.5526 16.5034 38.6465 15.7544 39.7584L15.9617 39.8981C15.589 40.4515 15.2223 41.0094 14.8619 41.5716L14.6514 41.4367C13.9293 42.5632 13.2321 43.7071 12.5605 44.8678L12.7769 44.993C12.4425 45.571 12.1144 46.1531 11.7929 46.7393L11.5737 46.6191C10.9304 47.7918 10.3131 48.9807 9.7223 50.185L9.94675 50.2951C9.653 50.8939 9.36584 51.4966 9.08539 52.103L8.85848 51.9981C8.29722 53.2117 7.76271 54.4402 7.25571 55.6829L7.48719 55.7773C7.23516 56.395 6.98996 57.0163 6.75166 57.6409L6.51808 57.5518C6.04177 58.8003 5.59299 60.0625 5.17248 61.3375L5.4099 61.4158C5.20085 62.0496 4.99881 62.6866 4.80387 63.3268L4.56472 63.2539C4.17547 64.5321 3.81446 65.8225 3.48239 67.1246L3.72464 67.1864C3.56011 67.8315 3.4027 68.4795 3.25252 69.1302L3.00892 69.074C2.70871 70.3748 2.43725 71.6866 2.19525 73.0087L2.44117 73.0537C2.321 73.7102 2.20812 74.3692 2.10261 75.0307L1.85573 74.9913C1.64564 76.3085 1.4647 77.6354 1.31358 78.9713L1.562 78.9994C1.4871 79.6616 1.41955 80.3259 1.35943 80.9924L1.11044 80.97C0.990601 82.2985 0.90021 83.6355 0.839919 84.9804L1.08967 84.9916C1.05988 85.6559 1.03747 86.3222 1.0225 86.9903L0.772559 86.9847C0.757546 87.6547 0.75 88.3265 0.75 89C0.75 89.6736 0.757547 90.3454 0.77256 91.0154L1.0225 91.0098C1.03747 91.6779 1.05989 92.3441 1.08967 93.0085L0.839921 93.0197C0.900212 94.3645 0.990604 95.7015 1.11044 97.0301L1.35943 97.0076C1.41955 97.6741 1.4871 98.3385 1.562 99.0006L1.31358 99.0287C1.4647 100.365 1.64565 101.692 1.85574 103.009L2.10262 102.969C2.20813 103.631 2.32101 104.29 2.44117 104.946L2.19526 104.991C2.43725 106.313 2.70871 107.625 3.00893 108.926L3.25252 108.87C3.40271 109.521 3.56011 110.169 3.72465 110.814L3.4824 110.875C3.81447 112.177 4.17548 113.468 4.56473 114.746L4.80388 114.673C4.99882 115.313 5.20086 115.95 5.40991 116.584L5.17249 116.663C5.593 117.938 6.04178 119.2 6.51809 120.448L6.75167 120.359C6.98997 120.984 7.23517 121.605 7.4872 122.223L7.25572 122.317C7.76272 123.56 8.29723 124.788 8.85849 126.002L9.0854 125.897C9.36585 126.503 9.653 127.106 9.94676 127.705L9.72231 127.815C10.3131 129.019 10.9305 130.208 11.5737 131.381L11.7929 131.261C12.1145 131.847 12.4425 132.429 12.7769 133.007L12.5605 133.132C13.2321 134.293 13.9293 135.437 14.6514 136.563L14.8619 136.428C15.2223 136.991 15.589 137.549 15.9618 138.102L15.7544 138.242C16.5034 139.353 17.277 140.447 18.0745 141.523L18.2753 141.374C18.6733 141.91 19.0774 142.442 19.4872 142.969L19.2899 143.123C20.1124 144.181 20.9585 145.219 21.8274 146.238L22.0176 146.076C22.451 146.584 22.8902 147.087 23.3349 147.585L23.1484 147.752C24.0406 148.751 24.9553 149.73 25.8915 150.688L26.0703 150.513C26.5372 150.991 27.0094 151.463 27.4869 151.93L27.3122 152.108C28.2699 153.045 29.2488 153.959 30.2481 154.852L30.4146 154.665C30.9127 155.11 31.4159 155.549 31.9241 155.982L31.7619 156.173C32.7806 157.042 33.8193 157.888 34.8772 158.71L35.0306 158.513C35.5578 158.923 36.0898 159.327 36.6264 159.725L36.4775 159.926C37.5526 160.723 38.6465 161.497 39.7584 162.246L39.8981 162.038C40.4515 162.411 41.0094 162.778 41.5716 163.138L41.4367 163.349C42.5632 164.071 43.7071 164.768 44.8678 165.44L44.993 165.223C45.571 165.558 46.1531 165.886 46.7393 166.207L46.6191 166.426C47.7918 167.07 48.9807 167.687 50.185 168.278L50.2951 168.053C50.8939 168.347 51.4966 168.634 52.103 168.915L51.9981 169.142C53.2117 169.703 54.4402 170.237 55.6829 170.744L55.7773 170.513C56.395 170.765 57.0162 171.01 57.6409 171.248L57.5518 171.482C58.8003 171.958 60.0625 172.407 61.3374 172.828L61.4158 172.59C62.0496 172.799 62.6866 173.001 63.3268 173.196L63.2539 173.435C64.5321 173.825 65.8225 174.186 67.1246 174.518L67.1864 174.275C67.8315 174.44 68.4795 174.597 69.1302 174.747L69.074 174.991C70.3748 175.291 71.6866 175.563 73.0087 175.805L73.0537 175.559C73.7102 175.679 74.3692 175.792 75.0307 175.897L74.9913 176.144C76.3085 176.354 77.6354 176.535 78.9713 176.686L78.9994 176.438C79.6616 176.513 80.3259 176.58 80.9924 176.641L80.97 176.89C82.2985 177.009 83.6355 177.1 84.9804 177.16L84.9916 176.91C85.6559 176.94 86.3222 176.963 86.9903 176.978L86.9847 177.227C87.6547 177.242 88.3265 177.25 89 177.25C89.6736 177.25 90.3454 177.242 91.0154 177.227L91.0098 176.978C91.6779 176.963 92.3441 176.94 93.0085 176.91L93.0197 177.16C94.3645 177.1 95.7015 177.009 97.0301 176.89L97.0076 176.641C97.6741 176.58 98.3385 176.513 99.0006 176.438L99.0287 176.686C100.365 176.535 101.692 176.354 103.009 176.144L102.969 175.897C103.631 175.792 104.29 175.679 104.946 175.559L104.991 175.805C106.313 175.563 107.625 175.291 108.926 174.991L108.87 174.747C109.521 174.597 110.169 174.44 110.814 174.275L110.875 174.518C112.177 174.186 113.468 173.825 114.746 173.435L114.673 173.196C115.313 173.001 115.95 172.799 116.584 172.59L116.663 172.828C117.938 172.407 119.2 171.958 120.448 171.482L120.359 171.248C120.984 171.01 121.605 170.765 122.223 170.513L122.317 170.744C123.56 170.237 124.788 169.703 126.002 169.142L125.897 168.915C126.503 168.634 127.106 168.347 127.705 168.053L127.815 168.278C129.019 167.687 130.208 167.07 131.381 166.426L131.261 166.207C131.847 165.886 132.429 165.558 133.007 165.223L133.132 165.439C134.293 164.768 135.437 164.071 136.563 163.349L136.428 163.138C136.991 162.778 137.549 162.411 138.102 162.038L138.242 162.246C139.353 161.497 140.447 160.723 141.523 159.926L141.374 159.725C141.91 159.327 142.442 158.923 142.969 158.513L143.123 158.71C144.181 157.888 145.219 157.041 146.238 156.173L146.076 155.982C146.584 155.549 147.087 155.11 147.585 154.665L147.752 154.852C148.751 153.959 149.73 153.045 150.688 152.108L150.513 151.93C150.991 151.463 151.463 150.991 151.93 150.513L152.108 150.688C153.045 149.73 153.959 148.751 154.852 147.752L154.665 147.585C155.11 147.087 155.549 146.584 155.982 146.076L156.173 146.238C157.042 145.219 157.888 144.181 158.71 143.123L158.513 142.969C158.923 142.442 159.327 141.91 159.725 141.374L159.926 141.522C160.723 140.447 161.497 139.353 162.246 138.242L162.038 138.102C162.411 137.549 162.778 136.991 163.138 136.428L163.349 136.563C164.071 135.437 164.768 134.293 165.44 133.132L165.223 133.007C165.558 132.429 165.886 131.847 166.207 131.261L166.426 131.381C167.07 130.208 167.687 129.019 168.278 127.815L168.053 127.705C168.347 127.106 168.634 126.503 168.915 125.897L169.142 126.002C169.703 124.788 170.237 123.56 170.744 122.317L170.513 122.223C170.765 121.605 171.01 120.984 171.248 120.359L171.482 120.448C171.958 119.2 172.407 117.938 172.828 116.663L172.59 116.584C172.799 115.95 173.001 115.313 173.196 114.673L173.435 114.746C173.825 113.468 174.186 112.177 174.518 110.875L174.275 110.814C174.44 110.169 174.597 109.521 174.747 108.87L174.991 108.926C175.291 107.625 175.563 106.313 175.805 104.991L175.559 104.946C175.679 104.29 175.792 103.631 175.897 102.969L176.144 103.009C176.354 101.691 176.535 100.365 176.686 99.0287L176.438 99.0006C176.513 98.3384 176.58 97.6741 176.641 97.0076L176.89 97.03C177.009 95.7015 177.1 94.3645 177.16 93.0196L176.91 93.0084C176.94 92.3441 176.963 91.6778 176.978 91.0097L177.227 91.0153C177.242 90.3454 177.25 89.6736 177.25 89Z" stroke="white" stroke-opacity="0.5" stroke-width="0.5" stroke-dasharray="4 2"/>
</svg>
