<svg width="40" height="42" viewBox="0 0 40 42" fill="none" xmlns="http://www.w3.org/2000/svg">
<path d="M24.6303 25.5734L22.2368 17.7052L21.7869 16.2368C21.7813 16.1803 21.7813 16.1235 21.7869 16.067L16.2953 17.6967C15.3961 17.9622 14.8825 18.9064 15.1481 19.8056C15.1485 19.8071 15.149 19.8087 15.1495 19.8101L17.4836 27.6953C17.6979 28.4162 18.3611 28.9101 19.1133 28.9091C19.277 28.9099 19.4399 28.887 19.5971 28.8412L25.1226 27.1945L24.6303 25.5734Z" fill="#6A423F"/>
<path d="M33.3516 22.9806C33.3512 22.9792 33.3506 22.9776 33.3502 22.9761L31.0076 15.0994C30.742 14.2002 29.7978 13.6866 28.8987 13.9522C28.8972 13.9526 28.8956 13.9531 28.8941 13.9535L23.3516 15.6002C23.3816 15.6457 23.4072 15.6941 23.428 15.7445L23.8778 17.2214L26.2714 25.0895L26.7637 26.7107L32.2043 25.0895C33.1035 24.824 33.6171 23.8798 33.3516 22.9806Z" fill="#6A423F"/>
<path d="M27.1496 10.8593C27.1452 10.8438 27.1406 10.8284 27.1359 10.8131L25.4383 5.18564C25.1728 4.28647 24.2286 3.77285 23.3294 4.03841C23.3279 4.03884 23.3263 4.03937 23.3249 4.03979L18.9961 5.32994L19.4799 6.95959L21.169 12.621L21.6528 14.2082L25.973 12.952C26.8758 12.6989 27.4025 11.762 27.1496 10.8593Z" fill="#6A423F"/>
<path d="M19.5448 13.0963L17.8472 7.46038L17.3634 5.83072L13.1195 7.10389C12.2204 7.36945 11.7067 8.31361 11.9723 9.21279C11.9727 9.21427 11.9733 9.21586 11.9737 9.21735L13.6373 14.8532C13.8976 15.7539 14.8386 16.2731 15.7394 16.0129C15.7546 16.0085 15.7697 16.0039 15.7847 15.9991L20.0286 14.7259L19.5448 13.0963Z" fill="#6A423F"/>
<path d="M37.6649 26.0336C37.5157 25.5719 37.0244 25.3143 36.5598 25.4543L17.0065 31.2562L8.78949 3.62846C8.71307 3.43473 8.57114 3.27398 8.38844 3.17394L3.41546 0.170541C3.01742 -0.118993 2.45996 -0.0309858 2.17054 0.367165C1.88101 0.765205 1.96901 1.32266 2.36717 1.61208C2.41629 1.64784 2.46899 1.67848 2.52435 1.70343L7.20324 4.49294L15.4292 32.2187C12.8629 33.4236 11.7594 36.4809 12.9643 39.0472C14.1692 41.6134 17.2265 42.717 19.7928 41.5121C22.359 40.3071 23.4626 37.2498 22.2577 34.6836C21.7637 33.6315 20.9273 32.7781 19.8852 32.2632L37.0857 27.1477C37.5519 26.9984 37.8106 26.501 37.6649 26.0336ZM20.7763 35.8905C21.2783 37.6564 20.2536 39.495 18.4877 39.997C16.7218 40.499 14.8832 39.4743 14.3812 37.7083C13.8792 35.9424 14.9039 34.1038 16.6698 33.6018C16.9735 33.5155 17.2879 33.473 17.6036 33.4753C19.0792 33.4892 20.37 34.4718 20.7763 35.8905Z" fill="#6A423F"/>
<path d="M20.7763 35.8905C21.2783 37.6564 20.2536 39.495 18.4877 39.997C16.7218 40.499 14.8832 39.4743 14.3812 37.7083C13.8792 35.9424 14.9039 34.1038 16.6698 33.6018C16.9735 33.5155 17.2879 33.473 17.6036 33.4753C19.0792 33.4892 20.37 34.4718 20.7763 35.8905Z" fill="#6A423F"/>
</svg>
