<svg width="51" height="40" viewBox="0 0 51 40" fill="none" xmlns="http://www.w3.org/2000/svg">
<path d="M16.4879 36C18.0949 36 19.3976 34.6972 19.3976 33.0902C19.3976 31.4832 18.0949 30.1805 16.4879 30.1805C14.8809 30.1805 13.5781 31.4832 13.5781 33.0902C13.5781 34.6972 14.8809 36 16.4879 36Z" fill="#6A423F"/>
<path d="M13.5788 4.54174V7.87243H0V11.7521H13.5788V15.0828C13.5788 15.4853 14.0647 15.7608 14.41 15.5542L22.9172 10.4505C23.1393 10.3166 23.278 10.0722 23.278 9.81226C23.278 9.55232 23.1393 9.3079 22.9172 9.17502L14.41 4.07133C14.0657 3.8628 13.5788 4.13922 13.5788 4.54174Z" fill="#6A423F"/>
<path d="M32.0073 10.7822H25.0113C24.7969 11.3263 24.4284 11.8055 23.9153 12.1129L15.4081 17.2166C15.0221 17.4494 14.5789 17.5716 14.1279 17.5716C12.7554 17.5716 11.6391 16.4552 11.6391 15.0828V13.692H9.69922V32.1204H11.737C12.188 29.9099 14.1463 28.2407 16.4886 28.2407C18.831 28.2407 20.7892 29.9099 21.2402 32.1204H34.917V13.692C34.917 12.0877 33.6115 10.7822 32.0073 10.7822ZM32.9772 26.3009H31.0374V24.361H32.9772V26.3009ZM32.9772 22.4212H31.0374V14.6619H29.0975V12.722H31.0374C32.1072 12.722 32.9772 13.5921 32.9772 14.6619V22.4212Z" fill="#6A423F"/>
<path d="M32.9772 22.4212H31.0374V14.6619H29.0975V12.722H31.0374C32.1072 12.722 32.9772 13.5921 32.9772 14.6619V22.4212Z" fill="#6A423F"/>
<path d="M32.9772 26.3009H31.0374V24.361H32.9772V26.3009Z" fill="#6A423F"/>
<path d="M45.5847 14.6618H36.8555V32.1203H38.8933C39.3443 29.9099 41.3025 28.2407 43.6449 28.2407C45.9872 28.2407 47.9455 29.9099 48.3965 32.1203H49.4644C49.9998 32.1203 50.4343 31.6848 50.4343 31.1504V19.5114C50.4343 16.8374 48.2588 14.6618 45.5847 14.6618ZM47.5245 23.3911H39.7652V17.5716H45.5847C46.6565 17.5716 47.5245 18.4397 47.5245 19.5114V23.3911Z" fill="#6A423F"/>
<path d="M43.648 36C45.255 36 46.5578 34.6972 46.5578 33.0902C46.5578 31.4832 45.255 30.1805 43.648 30.1805C42.041 30.1805 40.7383 31.4832 40.7383 33.0902C40.7383 34.6972 42.041 36 43.648 36Z" fill="#6A423F"/>
</svg>
