<svg width="76" height="76" viewBox="0 0 76 76" fill="none" xmlns="http://www.w3.org/2000/svg">
<path d="M38.448 20.8677C37.707 21.2674 37.2451 22.0276 37.2451 22.8543V35.7283H11.8253C10.5417 35.7283 9.5 36.7458 9.5 37.9996C9.5 39.2534 10.5417 40.2709 11.8253 40.2709H37.2451V53.1448C37.2451 53.9746 37.707 54.7348 38.448 55.1315C39.189 55.5343 40.0943 55.507 40.8105 55.0679L65.4149 39.9227C66.0908 39.5047 66.5 38.7809 66.5 37.9996C66.5 37.2183 66.0908 36.4945 65.4149 36.0765L40.8105 20.9313C40.4322 20.7011 40.0013 20.583 39.5703 20.583C39.1859 20.583 38.7983 20.6799 38.448 20.8677Z" fill="#9799A0"/>
</svg>
