<svg width="24" height="24" viewBox="0 0 24 24" fill="none" xmlns="http://www.w3.org/2000/svg">
<path d="M11.6361 18.3164C10.8165 18.3164 10.1523 18.9803 10.1523 19.8C10.1523 20.6196 10.8165 21.2835 11.6361 21.2835C12.456 21.2835 13.12 20.6196 13.12 19.8C13.12 18.9803 12.4559 18.3164 11.6361 18.3164ZM11.6361 20.4449C11.2798 20.4449 10.9911 20.1562 10.9911 19.7999C10.9911 19.4434 11.2797 19.1549 11.6361 19.1549C11.9924 19.1549 12.2813 19.4434 12.2813 19.7999C12.2812 20.1562 11.9924 20.4449 11.6361 20.4449Z" fill="white"/>
<path d="M19.4564 18.3164C18.6368 18.3164 17.9727 18.9803 17.9727 19.8C17.9727 20.6196 18.6368 21.2835 19.4564 21.2835C20.2763 21.2835 20.9403 20.6196 20.9403 19.8C20.9402 18.9803 20.2762 18.3164 19.4564 18.3164ZM19.4564 20.4449C19.1001 20.4449 18.8114 20.1562 18.8114 19.7999C18.8114 19.4434 19.1 19.1549 19.4564 19.1549C19.8128 19.1549 20.1017 19.4434 20.1017 19.7999C20.1015 20.1562 19.8127 20.4449 19.4564 20.4449Z" fill="white"/>
<path d="M22.3649 15.9715C21.8209 15.83 21.5095 15.7412 21.2958 15.3286L20.5815 13.8823C20.3678 13.4697 19.8129 13.1321 19.3482 13.1321H18.2397V11.7895C18.2397 11.3194 17.855 10.9346 17.3848 10.9346H9.1049C8.63472 10.9346 8.25 11.3194 8.25 11.7895V19.0356C8.25 19.5058 8.63472 19.8905 9.1049 19.8905H9.70235C9.70101 19.8608 9.7001 19.8309 9.7001 19.8009C9.7001 18.7349 10.5675 17.8677 11.6335 17.8677C12.6997 17.8677 13.5669 18.735 13.5669 19.8009C13.5669 19.831 13.566 19.8609 13.5648 19.8905H17.385C17.4331 19.8905 17.4801 19.8861 17.5261 19.8783C17.5251 19.8526 17.5242 19.8268 17.5242 19.8009C17.5242 18.7348 18.3916 17.8676 19.4576 17.8676C20.5239 17.8676 21.3911 18.7348 21.3911 19.8009C21.3911 19.8309 21.3902 19.8608 21.3888 19.8904H23.1546C23.6192 19.8904 23.9993 19.5102 23.9993 19.0456V17.4406C23.9992 16.0889 22.8166 16.0889 22.3649 15.9715ZM16.31 16.3381C16.31 16.635 16.0671 16.8778 15.7703 16.8778H10.5092C10.2124 16.8778 9.96957 16.6348 9.96957 16.3381V12.9207C9.96957 12.6239 10.2124 12.3811 10.5092 12.3811H15.7703C16.0672 12.3811 16.31 12.6239 16.31 12.9207V16.3381H16.31ZM18.2399 15.8963V13.7194H19.0481C19.4616 13.7194 19.9553 14.0198 20.1454 14.3869L20.7811 15.6738C20.8276 15.7636 20.8794 15.8361 20.9381 15.8963H18.2399Z" fill="white"/>
<path d="M6.93889 10.6189C6.93889 10.1755 7.30171 9.81263 7.74514 9.81263H16.8289H17.6351C18.3742 9.81263 18.5025 8.82791 17.9201 8.37282L16.5475 7.30017C16.5274 7.2828 16.5064 7.26641 16.4845 7.25109L10.2014 2.34128C9.61907 1.88624 8.66619 1.88624 8.08382 2.34128L1.80066 7.25109C1.77881 7.26641 1.75796 7.2828 1.7378 7.30017L0.365124 8.37288C-0.217242 8.82791 -0.0889791 9.81269 0.650071 9.81269H1.45632V19.0617C1.45632 19.5051 1.81915 19.8679 2.26258 19.8679C2.26258 19.8679 5.1401 19.8679 6.18612 19.8679C6.68801 19.8679 6.93882 19.5279 6.93882 19.0253C6.93889 18.7999 6.93889 10.6189 6.93889 10.6189Z" fill="white"/>
</svg>
