<svg width="40" height="40" viewBox="0 0 40 40" fill="none" xmlns="http://www.w3.org/2000/svg">
<path d="M30.3042 18.4951C29.8416 18.0325 29.8416 17.2826 30.3042 16.82L32.9133 14.2109L18.1289 14.2109L18.1289 7.63116L32.9132 7.63116L30.3041 5.02207C29.8416 4.55954 29.8416 3.80955 30.3041 3.34695C30.7667 2.88435 31.5166 2.88435 31.9793 3.34695L36.6103 7.97795C36.6154 7.983 36.6204 7.9879 36.6254 7.99301L38.7158 10.0834C38.9471 10.3147 39.0628 10.6179 39.0628 10.921C39.0628 11.2241 38.9472 11.5273 38.7158 11.7586L31.9793 18.4951C31.5168 18.9577 30.7668 18.9577 30.3042 18.4951Z" fill="#6A423F"/>
<path d="M8.08351 36.9291L1.3469 30.1926C0.884367 29.73 0.884366 28.9801 1.3469 28.5174L8.08351 21.7808C8.54604 21.3182 9.29603 21.3182 9.75864 21.7808C10.2212 22.2434 10.2212 22.9934 9.75864 23.456L7.14954 26.0651L21.9339 26.0651L21.9339 32.6449L7.14961 32.6449L9.75871 35.2541C9.98998 35.4853 10.1057 35.7885 10.1057 36.0916C10.1057 36.3947 9.99005 36.6979 9.75871 36.9292C9.29617 37.3917 8.54611 37.3917 8.08351 36.9291Z" fill="#6A423F"/>
<path d="M1 15.322L1 6.4279C1.00009 4.6826 2.42006 3.26273 4.16527 3.26273L13.0594 3.26273C14.8046 3.26273 16.2247 4.6826 16.2247 6.42799L16.2247 15.322C16.2247 17.0673 14.8048 18.4873 13.0594 18.4873L4.16527 18.4873C2.42006 18.4873 1 17.0673 1 15.322Z" fill="#6A423F"/>
<path d="M9.95537 8.52078L10.7704 9.34988V8.18725V3.26274V2.78697H10.2946H6.89844H6.42267V3.26274V8.18725V9.34988L7.23772 8.52078L8.53252 7.20367C8.55065 7.18576 8.57374 7.17679 8.59654 7.17679C8.61935 7.17679 8.64244 7.18576 8.66057 7.20368L9.95537 8.52078Z" fill="#6A423F" stroke="white" stroke-width="0.951542"/>
<path d="M23.8359 33.4014L23.8359 24.5073C23.8359 22.762 25.2558 21.342 27.0012 21.342L35.8953 21.342C37.6405 21.342 39.0606 22.7619 39.0606 24.5073L39.0606 33.4014C39.0606 35.1467 37.6407 36.5667 35.8953 36.5667L27.0012 36.5667C25.2559 36.5666 23.8359 35.1467 23.8359 33.4014Z" fill="#6A423F"/>
<path d="M33.0794 27.352L33.8945 28.1811V27.0184V21.342V20.8663H33.4187H29.5039H29.0281V21.342V27.0184V28.1811L29.8432 27.352L31.336 25.8334C31.3705 25.7992 31.4156 25.7811 31.4613 25.7811C31.507 25.7811 31.5521 25.7992 31.5866 25.8334L33.0794 27.352Z" fill="#6A423F" stroke="white" stroke-width="0.951542"/>
</svg>
