<svg width="18" height="18" viewBox="0 0 18 18" fill="none" xmlns="http://www.w3.org/2000/svg">
<path d="M16.5004 5.07711V0.562499C16.5004 0.252 16.2484 0 15.9379 0H14.0625C13.752 0 13.5 0.252 13.5 0.562499V2.3175C12.1747 1.56375 10.6402 1.125 9 1.125C4.03089 1.125 -0.010106 5.08837 1.89852e-05 9.95511C0.00114398 10.2577 0.259893 10.4996 0.562518 10.4996H1.49964V17.2496C1.49964 17.6647 1.83602 18 2.25001 18H3.74964V8.99998H14.2492V18H15.75C16.164 18 16.5004 17.6647 16.5004 17.2496V10.4996H17.4375C17.7401 10.4996 17.9989 10.2577 18 9.95511C18.0034 8.15286 17.4487 6.47549 16.5004 5.07711V5.07711Z" fill="#262626"/>
<g opacity="0.7">
<path d="M4.87463 16.1246H13.1242V17.9999H4.87463V16.1246Z" fill="#262626"/>
<path d="M4.87463 13.1253H13.1242V15.0007H4.87463V13.1253Z" fill="#262626"/>
<path d="M4.87476 10.125H13.1244V12.0003H4.87476V10.125Z" fill="#262626"/>
</g>
</svg>
