<svg width="40" height="40" viewBox="0 0 40 40" fill="none" xmlns="http://www.w3.org/2000/svg">
<path d="M35.0007 12.1542V3.125C35.0007 2.504 34.4967 2 33.8757 2H30.125C29.504 2 29 2.504 29 3.125V6.63499C26.3495 5.1275 23.2805 4.25 20 4.25C10.0618 4.25 1.97979 12.1767 2.00004 21.9102C2.00229 22.5155 2.51979 22.9992 3.12504 22.9992H4.99928V36.4992C4.99928 37.3294 5.67203 37.9999 6.50003 37.9999H9.49927V20H30.4985V37.9999H33.5C34.328 37.9999 35.0007 37.3294 35.0007 36.4992V22.9992H36.875C37.4802 22.9992 37.9977 22.5155 38 21.9102C38.0067 18.3057 36.8975 14.951 35.0007 12.1542Z" fill="#F49C00"/>
<g opacity="0.4">
<path d="M11.748 34.2461H28.2472V37.9968H11.748V34.2461Z" fill="#F49C00"/>
<path d="M11.748 28.25H28.2472V32.0007H11.748V28.25Z" fill="#F49C00"/>
<path d="M11.748 22.25H28.2472V26.0007H11.748V22.25Z" fill="#F49C00"/>
</g>
</svg>
