<svg width="152" height="41" viewBox="0 0 152 41" fill="none" xmlns="http://www.w3.org/2000/svg">
<path d="M68.332 14.4808C69.8557 13.8634 70.4208 13.0292 70.4208 11.998C70.4208 10.1983 68.8508 9.39697 66.276 9.39697H61.6719C61.9608 9.83703 62.2366 10.31 62.2366 11.0193V14.5925C60.8837 14.8618 59.6685 15.0917 58.5256 15.3676C57.5007 12.5432 56.3582 9.39697 56.3582 9.39697H53.4944C53.5403 9.79106 53.5008 10.2114 53.2905 10.7829L50.0851 19.7157C50.0851 19.7157 49.8752 20.3463 49.4351 20.9112H51.78C51.7341 20.6025 51.7932 20.1952 51.8718 19.9456C52.1085 19.2428 52.7454 18.7765 53.4218 18.4743C54.3022 18.0737 55.8326 17.5942 56.5549 17.3774L57.3172 19.5581C57.3172 19.5581 57.6257 20.3791 57.4616 20.9112H60.772C60.2727 20.2346 60.1019 19.7289 60.1019 19.7157C60.0233 19.5056 59.5895 18.297 59.0312 16.7731C60.0428 16.5301 61.1004 16.3265 62.2366 16.1032V19.2757C62.2366 19.8865 61.9871 20.4251 61.6719 20.9046H66.0461C66.7621 20.9046 67.3994 20.8652 67.8787 20.7798C69.7575 20.4514 71.104 19.4924 71.104 17.4497C71.1104 15.8864 70.0596 14.9537 68.332 14.4808ZM53.5403 16.8585C53.2642 16.9899 52.9098 17.2067 52.7059 17.4103C53.3368 15.5712 54.2036 13.0424 54.6238 11.8469L56.0689 15.9718C55.3398 16.182 54.2168 16.5367 53.5403 16.8585ZM64.7918 10.8354C65.2448 10.8091 65.4092 10.8091 65.7045 10.8091C67.1168 10.8091 67.7737 11.4003 67.7737 12.2345C67.7737 13.0292 67.2481 13.5218 66.3746 13.7846C66.007 13.8963 65.396 14.021 64.7918 14.1261V10.8354ZM65.8558 19.4793H64.7982V15.6434C65.1925 15.5515 65.823 15.4398 66.2369 15.3938C67.5111 15.6894 68.4501 16.2148 68.4501 17.5154C68.4438 19.0327 67.3335 19.4793 65.8558 19.4793Z" fill="white"/>
<path d="M72.2993 20.9109C72.864 20.0636 72.864 19.2951 72.864 19.282V11.0323C72.864 11.0191 72.864 10.2572 72.2993 9.40332H75.9971C75.4321 10.2572 75.4321 11.0191 75.4321 11.0323V19.282C75.4321 19.2951 75.4321 20.0636 75.9971 20.9109H72.2993Z" fill="white"/>
<path d="M113.691 12.8057H111.215C111.425 13.1472 111.34 13.6924 111.123 14.2441L109.521 18.52L107.859 14.2441C107.635 13.6924 107.556 13.1472 107.767 12.8057H104.568C105.008 13.272 105.284 13.8697 105.442 14.2441L108.194 20.9109H110.335C110.335 20.9109 110.387 20.3657 110.63 19.7549L112.844 14.2441C112.995 13.8631 113.31 13.2063 113.691 12.8057Z" fill="white"/>
<path d="M104.893 17.095C105.051 15.4003 104.585 12.4512 100.841 12.4512C97.7863 12.4512 96.6633 14.5793 96.6633 16.6549C96.6633 19.2953 98.1016 21.1082 101.544 21.1082C102.942 21.1082 104.072 20.6944 104.742 20.2871L104.053 18.7633C103.402 19.0917 102.608 19.3807 101.721 19.3807C100.184 19.3807 99.2382 18.8421 99.0342 17.3183H102.358C103.58 17.3248 104.571 17.2526 104.893 17.095ZM99.041 15.9258C99.1919 14.6187 99.7765 13.9553 100.841 13.9553C101.944 13.9553 102.489 14.8092 102.535 15.9127C102.535 15.9127 102.049 15.9258 101.419 15.9258H99.041Z" fill="white"/>
<path d="M82.3163 20.9111H85.5939C85.0946 20.1623 85.0946 19.4792 85.0946 19.4726V15.1441C85.0946 13.594 84.2602 12.6416 82.4999 12.6416C81.3769 12.6416 80.4506 13.1473 79.7678 13.7648V12.8058H76.9827C77.4819 13.5611 77.4819 14.2377 77.4819 14.2443V19.466C77.4819 19.4792 77.4819 20.1557 76.9827 20.9045H80.2666C79.7678 20.1557 79.7678 19.4726 79.7678 19.466V15.1441C80.188 14.7106 80.7858 14.3953 81.4427 14.3953C82.4476 14.3953 82.8151 14.9536 82.8151 15.8207V19.466C82.8151 19.4792 82.8151 20.1557 82.3163 20.9111Z" fill="white"/>
<path d="M90.8094 15.479C92.4252 15.479 93.312 16.2672 93.312 17.5414C93.312 18.6843 92.6287 19.5185 90.7699 19.5185H89.66V15.479H90.8094ZM90.5663 10.7958C91.9786 10.7958 92.6351 11.3475 92.6351 12.3853C92.6351 13.4165 92.0441 14.034 90.6844 14.034C90.4219 14.034 89.9422 14.0405 89.66 14.034V10.7958H90.5663ZM90.862 20.9109C91.578 20.9109 92.2412 20.8715 92.7205 20.7861C94.5662 20.4643 95.9327 19.5185 95.9327 17.4823C95.9327 15.8468 94.8883 14.9995 93.2461 14.5266C94.7175 13.9683 95.2099 13.1669 95.2099 12.1226C95.2099 10.3229 93.7453 9.40332 91.1051 9.40332H86.6909C86.9998 9.86968 87.1048 10.5462 87.1048 11.0323V19.282C87.1048 19.8206 87.0062 20.3855 86.6909 20.9109H90.862Z" fill="white"/>
<path d="M52.8222 33.1392C53.0539 33.1392 53.2819 33.1248 53.5063 33.0958C53.738 33.0669 53.9443 33.0089 54.1253 32.9221C54.5596 32.7556 54.8926 32.4624 55.1243 32.0425C55.3632 31.6154 55.4826 31.0725 55.4826 30.4137C55.4826 29.7911 55.3596 29.2735 55.1134 28.8609C54.8673 28.4483 54.5271 28.1587 54.0927 27.9922C53.9335 27.9126 53.738 27.8583 53.5063 27.8293C53.2819 27.8004 53.0322 27.7859 52.7571 27.7859H51.9753V33.1392H52.8222ZM52.9091 26.6674C53.2856 26.6674 53.6294 26.6855 53.9407 26.7217C54.2592 26.7579 54.5488 26.8195 54.8094 26.9063C55.5695 27.1597 56.1559 27.5977 56.5685 28.2202C56.9884 28.8356 57.1983 29.5703 57.1983 30.4246C57.1983 31.3077 57.0029 32.0461 56.6119 32.6397C56.221 33.2334 55.6745 33.6713 54.9723 33.9537C54.6827 34.0695 54.3569 34.1527 53.995 34.2034C53.633 34.2468 53.2566 34.2686 52.8657 34.2686H50.303V27.8185C50.303 27.6158 50.2813 27.4095 50.2379 27.1995C50.2017 26.9824 50.1438 26.805 50.0641 26.6674H52.9091ZM58.3059 34.2686V29.9902C58.3059 29.7875 58.2842 29.5812 58.2408 29.3713C58.2046 29.1541 58.1466 28.9767 58.067 28.8392H59.8153V34.2686H58.3059ZM58.1756 27.2104C58.1756 26.9715 58.2588 26.7688 58.4253 26.6023C58.5991 26.4358 58.8054 26.3525 59.0443 26.3525C59.2759 26.3525 59.475 26.4358 59.6415 26.6023C59.8153 26.7688 59.9021 26.9715 59.9021 27.2104C59.9021 27.4493 59.8153 27.652 59.6415 27.8185C59.475 27.985 59.2759 28.0682 59.0443 28.0682C58.8054 28.0682 58.5991 27.985 58.4253 27.8185C58.2588 27.652 58.1756 27.4493 58.1756 27.2104ZM63.2079 34.3771C62.7084 34.3771 62.256 34.312 61.8506 34.1817C61.4452 34.0514 61.0905 33.8704 60.7864 33.6387L61.4923 32.8461C61.7456 32.9908 62.0135 33.1031 62.2958 33.1827C62.5854 33.2623 62.8858 33.3021 63.1971 33.3021C63.5011 33.3021 63.7147 33.2659 63.8377 33.1935C63.9681 33.1139 64.0332 33.0089 64.0332 32.8786C64.0332 32.7339 63.9608 32.618 63.816 32.5312C63.6712 32.437 63.4866 32.3502 63.2622 32.2705C63.0451 32.1909 62.8062 32.1077 62.5456 32.0208C62.2922 31.9339 62.0533 31.8217 61.8289 31.6842C61.6117 31.5394 61.4307 31.3584 61.2859 31.1412C61.1412 30.9241 61.0688 30.649 61.0688 30.316C61.0688 29.8599 61.2534 29.4835 61.6226 29.1867C61.999 28.8826 62.5275 28.7306 63.2079 28.7306C63.7074 28.7306 64.1346 28.7994 64.4893 28.9369C64.844 29.0672 65.1336 29.2192 65.358 29.393L64.4893 30.3703C64.4024 30.2183 64.2504 30.0843 64.0332 29.9685C63.8233 29.8454 63.5554 29.7839 63.2297 29.7839C63.0052 29.7839 62.8243 29.8237 62.6867 29.9033C62.5564 29.9757 62.4913 30.0771 62.4913 30.2074C62.4913 30.3522 62.5637 30.4716 62.7084 30.5657C62.8605 30.6598 63.0451 30.7503 63.2622 30.8372C63.4866 30.9168 63.7292 31.0037 63.9898 31.0978C64.2504 31.1919 64.4893 31.3077 64.7064 31.4453C64.9309 31.5828 65.1155 31.753 65.2602 31.9556C65.4123 32.1583 65.4883 32.4153 65.4883 32.7266C65.4883 33.2478 65.2928 33.6532 64.9019 33.9428C64.511 34.2324 63.9463 34.3771 63.2079 34.3771ZM70.3022 34.0405C70.1357 34.1346 69.9403 34.2106 69.7159 34.2686C69.4915 34.3265 69.2272 34.3554 68.9232 34.3554C68.1776 34.3554 67.631 34.1563 67.2835 33.7582C66.936 33.36 66.7623 32.799 66.7623 32.0751V29.9576H66.1868V28.8392H66.7623V27.7099L68.2934 27.2212V28.8392H70.1394L69.8462 29.9576H68.2934V31.9448C68.2934 32.3574 68.3803 32.6723 68.554 32.8895C68.7277 33.0994 69.0101 33.2044 69.401 33.2044C69.5096 33.2044 69.6182 33.1972 69.7267 33.1827C69.8426 33.1682 69.9403 33.1501 70.0199 33.1284L70.3022 34.0405ZM74.332 30.0662C73.7312 30.03 73.286 30.1748 72.9964 30.5006C72.7068 30.8191 72.5621 31.3512 72.5621 32.0968V34.2686H71.031V30.0445C71.031 29.574 70.9513 29.1722 70.7921 28.8392H72.3014C72.3521 28.955 72.3883 29.1143 72.41 29.317C72.439 29.5124 72.4607 29.7079 72.4752 29.9033C72.6706 29.4618 72.8914 29.1577 73.1376 28.9912C73.3909 28.8175 73.6769 28.7306 73.9954 28.7306C74.1112 28.7306 74.2234 28.7415 74.332 28.7632C74.4406 28.7849 74.5239 28.8102 74.5818 28.8392L74.332 30.0662ZM75.3575 34.2686V29.9902C75.3575 29.7875 75.3358 29.5812 75.2923 29.3713C75.2561 29.1541 75.1982 28.9767 75.1186 28.8392H76.8669V34.2686H75.3575ZM75.2272 27.2104C75.2272 26.9715 75.3104 26.7688 75.4769 26.6023C75.6507 26.4358 75.857 26.3525 76.0959 26.3525C76.3275 26.3525 76.5266 26.4358 76.6931 26.6023C76.8669 26.7688 76.9537 26.9715 76.9537 27.2104C76.9537 27.4493 76.8669 27.652 76.6931 27.8185C76.5266 27.985 76.3275 28.0682 76.0959 28.0682C75.857 28.0682 75.6507 27.985 75.4769 27.8185C75.3104 27.652 75.2272 27.4493 75.2272 27.2104ZM79.836 33.0741C79.9591 33.1392 80.0822 33.1899 80.2052 33.2261C80.3355 33.2623 80.5165 33.2804 80.7482 33.2804C81.016 33.2804 81.2441 33.237 81.4323 33.1501C81.6205 33.0632 81.7725 32.9438 81.8883 32.7918C82.0114 32.6325 82.0983 32.4479 82.1489 32.238C82.2069 32.0208 82.2358 31.7855 82.2358 31.5322C82.2358 31.0109 82.1128 30.6055 81.8666 30.316C81.6277 30.0264 81.2694 29.8816 80.7916 29.8816C80.5672 29.8816 80.379 29.9033 80.227 29.9468C80.0822 29.9902 79.9519 30.0409 79.836 30.0988V33.0741ZM79.836 26.6674V29.0346C80.0025 28.9623 80.1908 28.8935 80.4007 28.8283C80.6106 28.7632 80.8749 28.7306 81.1934 28.7306C81.5915 28.7306 81.9499 28.7921 82.2684 28.9152C82.5942 29.0383 82.8692 29.2192 83.0937 29.4581C83.3253 29.697 83.5027 29.9938 83.6257 30.3486C83.756 30.696 83.8212 31.0942 83.8212 31.543C83.8212 31.9556 83.7488 32.3393 83.604 32.694C83.4592 33.0415 83.2493 33.3419 82.9742 33.5953C82.7064 33.8414 82.3734 34.0369 81.9752 34.1817C81.5843 34.3192 81.1355 34.388 80.6287 34.388C80.0786 34.388 79.6116 34.3228 79.228 34.1925C78.8443 34.055 78.5439 33.9102 78.3267 33.7582V27.8185C78.3267 27.6158 78.305 27.4095 78.2615 27.1995C78.2253 26.9824 78.1674 26.805 78.0878 26.6674H79.836ZM89.9824 32.9004C89.9824 33.1103 90.0367 33.2515 90.1453 33.3238C90.2539 33.389 90.395 33.4035 90.5688 33.3673V34.2034C90.4892 34.2251 90.4023 34.2432 90.3082 34.2577C90.2141 34.2794 90.1091 34.2939 89.9933 34.3011C89.8774 34.3156 89.7471 34.3228 89.6024 34.3228C89.2983 34.3228 89.063 34.2649 88.8965 34.1491C88.73 34.0333 88.607 33.8849 88.5273 33.7039C88.3391 33.8921 88.1039 34.0478 87.8215 34.1708C87.5464 34.2867 87.2062 34.3446 86.8008 34.3446C86.2072 34.3446 85.7367 34.1817 85.3892 33.8559C85.0489 33.5302 84.8788 33.0958 84.8788 32.5529V29.9902C84.8788 29.4907 84.7992 29.107 84.6399 28.8392H86.4099V32.1728C86.4099 32.4913 86.4859 32.7375 86.6379 32.9112C86.79 33.085 87.0288 33.1718 87.3546 33.1718C87.579 33.1718 87.7817 33.1356 87.9627 33.0632C88.1437 32.9908 88.3066 32.8967 88.4513 32.7809V28.8392H89.9824V32.9004ZM95.3494 34.0405C95.1829 34.1346 94.9875 34.2106 94.7631 34.2686C94.5386 34.3265 94.2744 34.3554 93.9704 34.3554C93.2247 34.3554 92.6782 34.1563 92.3307 33.7582C91.9832 33.36 91.8095 32.799 91.8095 32.0751V29.9576H91.234V28.8392H91.8095V27.7099L93.3406 27.2212V28.8392H95.1865L94.8934 29.9576H93.3406V31.9448C93.3406 32.3574 93.4274 32.6723 93.6012 32.8895C93.7749 33.0994 94.0572 33.2044 94.4482 33.2044C94.5567 33.2044 94.6653 33.1972 94.7739 33.1827C94.8897 33.1682 94.9875 33.1501 95.0671 33.1284L95.3494 34.0405ZM98.6408 34.3771C98.1703 34.3771 97.754 34.3048 97.3921 34.16C97.0301 34.0152 96.7261 33.8161 96.4799 33.5627C96.2338 33.3094 96.0456 33.0089 95.9153 32.6615C95.7922 32.314 95.7307 31.9412 95.7307 31.543C95.7307 31.1449 95.7922 30.7757 95.9153 30.4354C96.0456 30.0879 96.2338 29.7911 96.4799 29.545C96.7261 29.2916 97.0301 29.0926 97.3921 28.9478C97.754 28.803 98.1703 28.7306 98.6408 28.7306C99.1114 28.7306 99.5276 28.803 99.8896 28.9478C100.252 29.0926 100.556 29.2916 100.802 29.545C101.048 29.7911 101.232 30.0879 101.355 30.4354C101.486 30.7757 101.551 31.1449 101.551 31.543C101.551 31.9412 101.486 32.314 101.355 32.6615C101.232 33.0089 101.048 33.3094 100.802 33.5627C100.556 33.8161 100.252 34.0152 99.8896 34.16C99.5276 34.3048 99.1114 34.3771 98.6408 34.3771ZM98.6408 29.8599C98.2282 29.8599 97.906 30.0156 97.6744 30.3268C97.4427 30.6309 97.3269 31.0363 97.3269 31.543C97.3269 32.057 97.4427 32.4696 97.6744 32.7809C97.906 33.0922 98.2282 33.2478 98.6408 33.2478C99.0607 33.2478 99.3864 33.0922 99.6181 32.7809C99.8497 32.4696 99.9656 32.057 99.9656 31.543C99.9656 31.0363 99.8497 30.6309 99.6181 30.3268C99.3864 30.0156 99.0607 29.8599 98.6408 29.8599ZM105.964 30.0662C105.364 30.03 104.918 30.1748 104.629 30.5006C104.339 30.8191 104.194 31.3512 104.194 32.0968V34.2686H102.663V30.0445C102.663 29.574 102.584 29.1722 102.424 28.8392H103.934C103.985 28.955 104.021 29.1143 104.042 29.317C104.071 29.5124 104.093 29.7079 104.108 29.9033C104.303 29.4618 104.524 29.1577 104.77 28.9912C105.023 28.8175 105.309 28.7306 105.628 28.7306C105.744 28.7306 105.856 28.7415 105.964 28.7632C106.073 28.7849 106.156 28.8102 106.214 28.8392L105.964 30.0662ZM115.734 33.7691C115.451 33.9573 115.108 34.1021 114.702 34.2034C114.304 34.2975 113.823 34.3446 113.258 34.3446C112.635 34.3446 112.071 34.2541 111.564 34.0731C111.064 33.8921 110.637 33.6351 110.283 33.3021C109.935 32.9619 109.667 32.5493 109.479 32.0642C109.291 31.5792 109.197 31.0363 109.197 30.4354C109.197 29.8852 109.284 29.3749 109.457 28.9043C109.631 28.4338 109.884 28.0248 110.217 27.6773C110.55 27.3298 110.956 27.0584 111.434 26.8629C111.919 26.6602 112.469 26.5589 113.084 26.5589C113.7 26.5589 114.228 26.6385 114.67 26.7978C115.111 26.957 115.509 27.1887 115.864 27.4927L114.941 28.6112C114.934 28.5894 114.894 28.5315 114.822 28.4374C114.749 28.3433 114.641 28.242 114.496 28.1334C114.351 28.0248 114.163 27.9307 113.931 27.851C113.7 27.7642 113.417 27.7207 113.084 27.7207C112.766 27.7207 112.472 27.7859 112.205 27.9162C111.937 28.0393 111.705 28.2166 111.51 28.4483C111.321 28.6799 111.173 28.9659 111.064 29.3061C110.963 29.6391 110.912 30.0156 110.912 30.4354C110.912 30.8625 110.97 31.2462 111.086 31.5864C111.209 31.9195 111.376 32.2018 111.586 32.4334C111.803 32.6651 112.063 32.8424 112.368 32.9655C112.672 33.0886 113.008 33.1501 113.377 33.1501C113.732 33.1501 114.04 33.1211 114.3 33.0632C114.561 32.9981 114.807 32.904 115.039 32.7809L115.734 33.7691ZM121.53 31.771C121.429 31.829 121.23 31.8688 120.933 31.8905C120.636 31.9122 120.288 31.9231 119.89 31.9231H117.697C117.733 32.162 117.802 32.3683 117.903 32.542C118.012 32.7085 118.146 32.8424 118.305 32.9438C118.471 33.0451 118.656 33.1211 118.859 33.1718C119.069 33.2153 119.293 33.237 119.532 33.237C119.952 33.237 120.35 33.1646 120.726 33.0198L121.269 33.9211C121.045 34.0586 120.77 34.1672 120.444 34.2468C120.118 34.3265 119.756 34.3663 119.358 34.3663C118.801 34.3663 118.319 34.2975 117.914 34.16C117.509 34.0152 117.172 33.8161 116.904 33.5627C116.644 33.3021 116.448 32.9945 116.318 32.6397C116.195 32.285 116.133 31.8941 116.133 31.467C116.133 31.1268 116.18 30.7938 116.274 30.468C116.376 30.1422 116.535 29.8527 116.752 29.5993C116.969 29.3387 117.252 29.1288 117.599 28.9695C117.947 28.8102 118.37 28.7306 118.87 28.7306C119.478 28.7306 119.963 28.8392 120.325 29.0564C120.687 29.2663 120.962 29.5269 121.15 29.8382C121.338 30.1495 121.454 30.4825 121.497 30.8372C121.548 31.1847 121.559 31.496 121.53 31.771ZM119.955 31.0109C119.941 30.6417 119.843 30.3413 119.662 30.1097C119.489 29.878 119.221 29.7622 118.859 29.7622C118.518 29.7622 118.251 29.8708 118.055 30.0879C117.86 30.3051 117.744 30.6128 117.708 31.0109H119.955ZM122.61 34.2686V29.9902C122.61 29.4907 122.53 29.107 122.371 28.8392H123.891C123.927 28.9333 123.956 29.031 123.978 29.1324C124.007 29.2337 124.029 29.3459 124.043 29.469C124.275 29.2591 124.55 29.0853 124.869 28.9478C125.194 28.803 125.545 28.7306 125.922 28.7306C126.515 28.7306 126.953 28.879 127.236 29.1758C127.525 29.4726 127.67 29.8816 127.67 30.4028V34.2686H126.161V30.9132C126.161 30.6164 126.092 30.3848 125.954 30.2183C125.817 30.0445 125.578 29.9576 125.238 29.9576C125.028 29.9576 124.821 30.0011 124.619 30.0879C124.416 30.1748 124.25 30.2798 124.119 30.4028V34.2686H122.61ZM132.793 34.0405C132.626 34.1346 132.431 34.2106 132.207 34.2686C131.982 34.3265 131.718 34.3554 131.414 34.3554C130.668 34.3554 130.122 34.1563 129.774 33.7582C129.427 33.36 129.253 32.799 129.253 32.0751V29.9576H128.677V28.8392H129.253V27.7099L130.784 27.2212V28.8392H132.63L132.337 29.9576H130.784V31.9448C130.784 32.3574 130.871 32.6723 131.045 32.8895C131.218 33.0994 131.501 33.2044 131.892 33.2044C132 33.2044 132.109 33.1972 132.217 33.1827C132.333 33.1682 132.431 33.1501 132.511 33.1284L132.793 34.0405ZM136.823 30.0662C136.222 30.03 135.777 30.1748 135.487 30.5006C135.198 30.8191 135.053 31.3512 135.053 32.0968V34.2686H133.522V30.0445C133.522 29.574 133.442 29.1722 133.283 28.8392H134.792C134.843 28.955 134.879 29.1143 134.901 29.317C134.93 29.5124 134.951 29.7079 134.966 29.9033C135.161 29.4618 135.382 29.1577 135.628 28.9912C135.882 28.8175 136.168 28.7306 136.486 28.7306C136.602 28.7306 136.714 28.7415 136.823 28.7632C136.931 28.7849 137.015 28.8102 137.072 28.8392L136.823 30.0662ZM140.554 31.7602C140.438 31.7891 140.322 31.8181 140.207 31.8471C140.098 31.876 139.986 31.9086 139.87 31.9448C139.761 31.9737 139.656 32.0063 139.555 32.0425C139.323 32.1366 139.15 32.238 139.034 32.3466C138.918 32.4479 138.86 32.5855 138.86 32.7592C138.86 32.9112 138.911 33.0343 139.012 33.1284C139.121 33.2225 139.287 33.2696 139.512 33.2696C139.693 33.2696 139.877 33.237 140.065 33.1718C140.261 33.0994 140.424 33.0017 140.554 32.8786V31.7602ZM142.063 32.9221C142.063 33.132 142.121 33.2659 142.237 33.3238C142.353 33.3745 142.491 33.3818 142.65 33.3456V34.1817C142.577 34.2106 142.498 34.2324 142.411 34.2468C142.324 34.2686 142.223 34.2867 142.107 34.3011C141.998 34.3156 141.868 34.3228 141.716 34.3228C141.39 34.3228 141.151 34.2649 140.999 34.1491C140.847 34.026 140.739 33.8776 140.673 33.7039C140.493 33.8776 140.264 34.0333 139.989 34.1708C139.714 34.3011 139.389 34.3663 139.012 34.3663C138.433 34.3663 138.009 34.236 137.742 33.9754C137.474 33.7075 137.34 33.3564 137.34 32.9221C137.34 32.6904 137.376 32.4877 137.448 32.314C137.528 32.1402 137.633 31.9918 137.763 31.8688C137.894 31.7385 138.042 31.6299 138.209 31.543C138.382 31.4489 138.56 31.3765 138.741 31.3258C138.929 31.2679 139.128 31.2209 139.338 31.1847C139.555 31.1412 139.754 31.105 139.935 31.0761C140.145 31.0399 140.351 31.0109 140.554 30.9892V30.9241C140.554 30.6055 140.482 30.3558 140.337 30.1748C140.199 29.9866 139.917 29.8925 139.49 29.8925C139.244 29.8925 139.012 29.9251 138.795 29.9902C138.578 30.0554 138.375 30.1278 138.187 30.2074L137.655 29.3604C137.894 29.2156 138.205 29.0817 138.589 28.9586C138.98 28.8356 139.392 28.774 139.827 28.774C140.261 28.774 140.619 28.8247 140.902 28.9261C141.191 29.0202 141.423 29.165 141.596 29.3604C141.77 29.5486 141.89 29.7875 141.955 30.0771C142.027 30.3594 142.063 30.6888 142.063 31.0652V32.9221ZM143.649 34.2686V27.8185C143.649 27.6158 143.627 27.4095 143.584 27.1995C143.547 26.9824 143.489 26.805 143.41 26.6674H145.158V34.2686H143.649Z" fill="#E5E5E5"/>
<path d="M25.5344 31.7819V40.5069L33.5497 35.163V26.438L25.5344 31.7819Z" fill="white"/>
<path d="M24.1762 29.1077L31.4257 25.03L24.1762 20.7666L16.9678 25.0999L24.1762 29.1077Z" fill="#E5E5E5"/>
<path d="M14.8469 26.438V35.163L22.8622 40.5069V31.7819L14.8469 26.438Z" fill="white"/>
<path d="M30.3176 15.4839H28.0933V24.381H30.3176V15.4839Z" fill="#E5E5E5"/>
<path d="M25.4172 8.81104H23.0903V24.381H25.4172V8.81104Z" fill="#E5E5E5"/>
<path d="M20.3063 15.4839H18.082V24.381H20.3063V15.4839Z" fill="#E5E5E5"/>
<path d="M20.3064 15.252H14.8887V16.9002H20.3064V15.252Z" fill="#E5E5E5"/>
<path d="M33.6009 15.2056H28.094V16.8538H33.6009V15.2056Z" fill="#E5E5E5"/>
<g clip-path="url(#clip0)">
<path d="M9.3501 13.4448V14.1858H10.206V13.4448C10.0714 13.4894 9.92751 13.5136 9.77803 13.5136C9.6286 13.5136 9.48472 13.4894 9.3501 13.4448Z" fill="#E5E5E5"/>
<path d="M8.63325 12.8901C8.31369 13.0622 8.09595 13.3998 8.09595 13.7874V14.1859H8.9076V13.1987C8.80137 13.1105 8.70869 13.0064 8.63325 12.8901Z" fill="#E5E5E5"/>
<path d="M11.4601 13.7874C11.4601 13.3998 11.2424 13.0622 10.9228 12.8901C10.8474 13.0064 10.7547 13.1105 10.6484 13.1987V14.1859H11.4601V13.7874Z" fill="#E5E5E5"/>
<path d="M11.4247 15.957H8.17582C8.10901 16.1454 7.9594 16.295 7.771 16.3618V16.6358H11.8295V16.3618C11.6411 16.295 11.4914 16.1454 11.4247 15.957Z" fill="#E5E5E5"/>
<path d="M9.77804 13.0707C10.287 13.0707 10.6996 12.6581 10.6996 12.1491C10.6996 11.6402 10.287 11.2275 9.77804 11.2275C9.26907 11.2275 8.85645 11.6402 8.85645 12.1491C8.85645 12.6581 9.26907 13.0707 9.77804 13.0707Z" fill="#E5E5E5"/>
<path d="M13.335 14.6284H13.2168H6.38379H6.22139C6.09911 14.6284 6 14.7275 6 14.8498C6 14.9516 6.06882 15.0371 6.16246 15.063V16.4141C6.16246 16.5363 6.26157 16.6355 6.38379 16.6355H7.3283V16.1781C7.3283 16.0558 7.42748 15.9567 7.5497 15.9567C7.67179 15.9567 7.77109 15.8574 7.77109 15.7353C7.77109 15.6131 7.8702 15.514 7.99242 15.514H11.6082C11.7304 15.514 11.8295 15.6131 11.8295 15.7353C11.8295 15.8574 11.9288 15.9567 12.0509 15.9567C12.1732 15.9567 12.2723 16.0558 12.2723 16.1781V16.6355H13.2168C13.3391 16.6355 13.4382 16.5363 13.4382 16.4141V15.0456C13.5085 15.0085 13.5564 14.9348 13.5564 14.8498C13.5564 14.7275 13.4573 14.6284 13.335 14.6284Z" fill="#E5E5E5"/>
<path d="M12.6558 11.812V14.8156H13.0985V11.8122C13.027 11.8268 12.9529 11.8345 12.8771 11.8345C12.8022 11.8345 12.728 11.8268 12.6558 11.812Z" fill="#E5E5E5"/>
<path d="M6.67926 10.762C6.84927 10.762 7.00442 10.6977 7.12205 10.5924C7.23961 10.6977 7.39482 10.762 7.56477 10.762C7.73472 10.762 7.88994 10.6977 8.0075 10.5924C8.12512 10.6977 8.28027 10.762 8.45022 10.762C8.62023 10.762 8.77539 10.6977 8.89301 10.5924C9.01057 10.6977 9.16579 10.762 9.33574 10.762C9.50569 10.762 9.6609 10.6977 9.77846 10.5924C9.89609 10.6977 10.0512 10.762 10.2212 10.762C10.3912 10.762 10.5464 10.6977 10.664 10.5924C10.7815 10.6977 10.9368 10.762 11.1067 10.762C11.2767 10.762 11.4319 10.6978 11.5494 10.5924C11.6671 10.6978 11.8222 10.762 11.9922 10.762C12.1622 10.762 12.3173 10.6977 12.4349 10.5924C12.5525 10.6977 12.7077 10.762 12.8777 10.762C13.2439 10.762 13.5418 10.4641 13.5418 10.0979V9.30098C13.5418 9.1787 13.4427 9.07959 13.3204 9.07959H6.23653C6.11425 9.07959 6.01514 9.1787 6.01514 9.30098V10.0979C6.01514 10.4641 6.3131 10.762 6.67926 10.762Z" fill="#E5E5E5"/>
<path d="M6.45752 11.8122V14.8156H6.90031V11.812C6.82796 11.8268 6.75385 11.8345 6.67891 11.8345C6.60316 11.8345 6.52911 11.8268 6.45752 11.8122Z" fill="#E5E5E5"/>
</g>
<path d="M21.0782 8.07447H21.1915H27.7487H27.9046C28.0219 8.07447 28.1171 7.95802 28.1171 7.81441C28.1171 7.69478 28.051 7.59424 27.9612 7.56391V5.97643C27.9612 5.83276 27.866 5.71631 27.7487 5.71631H26.8423V6.25373C26.8423 6.39733 26.7472 6.51378 26.6299 6.51378C26.5127 6.51378 26.4175 6.63045 26.4175 6.7739C26.4175 6.91758 26.3223 7.03403 26.205 7.03403H22.7352C22.6179 7.03403 22.5228 6.91758 22.5228 6.7739C22.5228 6.63045 22.4275 6.51378 22.3104 6.51378C22.1931 6.51378 22.0979 6.39733 22.0979 6.25373V5.71631H21.1915C21.0743 5.71631 20.9791 5.83276 20.9791 5.97643V7.5844C20.9117 7.62797 20.8657 7.71454 20.8657 7.81441C20.8657 7.95809 20.9608 8.07447 21.0782 8.07447Z" fill="#E5E5E5"/>
<path fill-rule="evenodd" clip-rule="evenodd" d="M20.9836 3.99581C20.9185 3.99581 20.8657 3.94302 20.8657 3.8779V0.710573C20.8657 0.656418 20.9096 0.612517 20.9638 0.612517H21.0617C21.0618 0.612517 21.0618 0.61247 21.0618 0.612411C21.0618 0.612352 21.0619 0.612305 21.0619 0.612305H21.3722H23.1051C23.1702 0.612305 23.223 0.665094 23.223 0.730213V1.1469C23.223 1.17158 23.2149 1.19539 23.2023 1.2166C23.1208 1.35344 23.0549 1.60713 23.0185 1.92376C23.0115 1.98436 22.9607 2.03094 22.8997 2.03094H21.4901C21.425 2.03094 21.3722 2.08373 21.3722 2.14884V3.8779C21.3722 3.94302 21.3194 3.99581 21.2543 3.99581H20.9836Z" fill="#E5E5E5"/>
<path fill-rule="evenodd" clip-rule="evenodd" d="M27.8223 3.99581C27.8874 3.99581 27.9402 3.94302 27.9402 3.8779V0.711239C27.9402 0.656717 27.896 0.612517 27.8415 0.612517H27.7428C27.7428 0.612517 27.7427 0.61247 27.7427 0.612411C27.7427 0.612352 27.7427 0.612305 27.7426 0.612305H27.4337H25.6995C25.6344 0.612305 25.5816 0.665094 25.5816 0.730213V1.1469C25.5816 1.17158 25.5896 1.19539 25.6023 1.2166C25.6838 1.35344 25.7496 1.60713 25.7861 1.92376C25.7931 1.98436 25.8438 2.03094 25.9048 2.03094H27.3158C27.3809 2.03094 27.4337 2.08373 27.4337 2.14884V3.8779C27.4337 3.94302 27.4865 3.99581 27.5516 3.99581H27.8223Z" fill="#E5E5E5"/>
<path d="M23.7164 4.85259C23.598 4.82133 23.5064 4.73828 23.465 4.62469C23.4529 4.59167 23.4286 4.56805 23.3983 4.5601C23.368 4.55206 23.335 4.56052 23.3077 4.58321C23.2142 4.66121 23.0927 4.68804 22.9743 4.65688L22.6256 4.56588L22.4827 5.09091L22.8311 5.18562C22.9492 5.21699 23.0405 5.29994 23.0818 5.41332C23.0939 5.44644 23.1182 5.46996 23.1486 5.47801C23.1788 5.48595 23.2118 5.47759 23.2391 5.45479C23.3324 5.3769 23.4538 5.35008 23.572 5.38113L23.9376 5.4746L24.0824 4.94245L23.7185 4.85311C23.7177 4.853 23.7171 4.8528 23.7164 4.85259Z" fill="#E5E5E5"/>
<path d="M23.5089 5.61503C23.4678 5.60419 23.4303 5.61245 23.3978 5.63958C23.3095 5.71314 23.1926 5.74017 23.0849 5.7118C22.9773 5.68343 22.8898 5.60244 22.8507 5.49525C22.8362 5.45563 22.8081 5.43015 22.7669 5.41921C22.7666 5.41921 22.7662 5.41911 22.766 5.419L22.4191 5.32471L22.3513 5.57366C22.3184 5.69467 22.3355 5.82137 22.3994 5.93042C22.4633 6.03936 22.5662 6.11736 22.6891 6.14976L23.2212 6.29007C23.2624 6.301 23.3039 6.30616 23.3446 6.30616C23.5556 6.30616 23.7491 6.1674 23.8062 5.95755L23.874 5.7084L23.5098 5.61523C23.5096 5.61523 23.5093 5.61513 23.5089 5.61503Z" fill="#E5E5E5"/>
<path d="M24.1629 2.79204L23.6491 2.65647C23.5837 2.63924 23.5163 2.67752 23.4987 2.742C23.4898 2.77491 23.4955 2.80823 23.512 2.83526L23.1936 3.71324C22.9926 3.72552 22.8168 3.86211 22.7626 4.06103L22.6887 4.33247L23.0371 4.42336C23.0787 4.43429 23.1161 4.42604 23.1486 4.39891C23.2369 4.32524 23.3539 4.29821 23.4615 4.32669C23.5691 4.35506 23.6567 4.43605 23.6958 4.54324C23.71 4.58245 23.7379 4.60793 23.7787 4.61897L24.1456 4.70903L24.2175 4.44482C24.2715 4.24591 24.1886 4.04101 24.0208 3.93144L24.1909 3.01437C24.2188 2.999 24.2407 2.973 24.2497 2.94009C24.2672 2.8756 24.2284 2.80927 24.1629 2.79204Z" fill="#E5E5E5"/>
<path d="M25.6223 5.45504C25.6496 5.47774 25.6826 5.4862 25.713 5.47826C25.7433 5.47021 25.7676 5.44669 25.7796 5.41357C25.821 5.29998 25.9126 5.21693 26.031 5.18567C26.0318 5.18546 26.0327 5.18525 26.0335 5.18505L26.3815 5.10097L26.2313 4.54932L25.8926 4.65548C25.8908 4.65599 25.889 4.65661 25.8871 4.65703C25.7688 4.68829 25.6473 4.66146 25.5537 4.58347C25.5265 4.56077 25.4935 4.55231 25.4632 4.56036C25.4328 4.5683 25.4086 4.59182 25.3965 4.62494C25.3551 4.73853 25.2635 4.82158 25.1451 4.85284C25.142 4.85367 25.1389 4.85429 25.1357 4.85491L24.7732 4.92124L24.9228 5.47083L25.2902 5.38117C25.4082 5.35043 25.5292 5.37736 25.6223 5.45504Z" fill="#E5E5E5"/>
<path d="M25.1647 4.54324C25.2037 4.43605 25.2912 4.35506 25.3989 4.32669C25.5066 4.29832 25.6235 4.32524 25.7117 4.39891C25.7437 4.42552 25.7802 4.43398 25.8205 4.42398L26.167 4.31544L26.0978 4.06103C26.0437 3.86211 25.8677 3.72552 25.6669 3.71324L25.3483 2.83526C25.3648 2.80823 25.3705 2.77491 25.3616 2.742C25.344 2.67752 25.2768 2.63924 25.2113 2.65647L24.6974 2.79204C24.632 2.80937 24.5931 2.8756 24.6107 2.94009C24.6196 2.973 24.6416 2.999 24.6696 3.01437L24.8395 3.93155C24.6718 4.04101 24.5888 4.24591 24.643 4.44482L24.7088 4.68685L25.0848 4.61804C25.1239 4.60669 25.1507 4.58152 25.1647 4.54324Z" fill="#E5E5E5"/>
<path d="M26.5091 5.57352L26.444 5.33447L26.0925 5.41938C26.0518 5.43042 26.024 5.4559 26.0097 5.49511C25.9707 5.6023 25.8831 5.68329 25.7755 5.71166C25.6679 5.74003 25.5509 5.7131 25.4626 5.63944C25.43 5.61231 25.3926 5.60405 25.3515 5.61489C25.3507 5.61509 25.35 5.6153 25.3493 5.61551L24.9854 5.70423L25.0542 5.95741C25.1113 6.16726 25.3048 6.30613 25.5158 6.30602C25.5565 6.30602 25.598 6.30086 25.6393 6.29003L26.1713 6.14962C26.2942 6.11722 26.3971 6.03933 26.461 5.93028C26.5249 5.82123 26.542 5.69453 26.5091 5.57352Z" fill="#E5E5E5"/>
<path d="M24.4309 2.1792C24.3631 2.1792 24.3081 2.23336 24.3081 2.30012V2.41195C24.3081 2.4787 24.3631 2.53287 24.4309 2.53287C24.4987 2.53287 24.5537 2.4787 24.5537 2.41195V2.30012C24.5537 2.23336 24.4987 2.1792 24.4309 2.1792Z" fill="#E5E5E5"/>
<path d="M23.8921 2.52232C23.9161 2.54594 23.9475 2.55781 23.979 2.55781C24.0104 2.55781 24.0418 2.54594 24.0658 2.52232C24.1137 2.47517 24.1137 2.39862 24.0658 2.35136L23.9269 2.21456C23.8789 2.16741 23.8012 2.16741 23.7533 2.21456C23.7053 2.26181 23.7053 2.33837 23.7533 2.38551L23.8921 2.52232Z" fill="#E5E5E5"/>
<path d="M24.8823 2.55781C24.9137 2.55781 24.9452 2.54594 24.9691 2.52232L25.108 2.38551C25.156 2.33837 25.156 2.26181 25.108 2.21456C25.0601 2.16741 24.9824 2.16741 24.9344 2.21456L24.7954 2.35136C24.7476 2.39862 24.7476 2.47517 24.7954 2.52232C24.8194 2.54594 24.8509 2.55781 24.8823 2.55781Z" fill="#E5E5E5"/>
<path fill-rule="evenodd" clip-rule="evenodd" d="M37.1208 11.2177C37.1619 11.2177 37.1982 11.1911 37.2106 11.152L37.5462 10.0933C37.5586 10.0542 37.595 10.0276 37.636 10.0276H38.2555C38.3126 10.0276 38.3565 10.078 38.3488 10.1346L38.2154 11.1108C38.2077 11.1673 38.2516 11.2177 38.3087 11.2177H39.1654C39.2223 11.2177 39.2662 11.1676 39.2587 11.1111L39.1284 10.1343C39.1209 10.0778 39.1648 10.0276 39.2217 10.0276H39.8643C39.9061 10.0276 39.9429 10.0552 39.9547 10.0953L40.2645 11.1501C40.2763 11.1902 40.3131 11.2177 40.3549 11.2177H41.2444C41.3137 11.2177 41.3593 11.1453 41.3293 11.0827L40.8314 10.047C40.8253 10.0342 40.8221 10.0203 40.8221 10.0062V9.23823C40.8221 9.18621 40.78 9.14404 40.7279 9.14404H36.7697C36.7177 9.14404 36.6755 9.18621 36.6755 9.23823V10.0054C36.6755 10.02 36.6721 10.0344 36.6655 10.0475L36.1484 11.0814C36.1171 11.144 36.1626 11.2177 36.2326 11.2177H37.1208ZM36.0722 11.2361H36.0715L36.0722 11.2348V11.2361ZM40.8166 11.8037C40.6558 11.8037 40.5111 11.7384 40.4062 11.6329C40.3517 11.578 40.2433 11.5779 40.1887 11.6327C40.0833 11.7383 39.9383 11.8037 39.7776 11.8037C39.617 11.8037 39.4716 11.7383 39.3662 11.6326C39.3116 11.5779 39.203 11.578 39.1485 11.6327C39.0431 11.7384 38.8977 11.8037 38.7368 11.8037C38.5762 11.8037 38.4308 11.7384 38.3254 11.6327C38.2708 11.578 38.1622 11.578 38.1075 11.6327C38.0021 11.7384 37.8566 11.8037 37.6959 11.8037C37.5352 11.8037 37.3898 11.7384 37.2843 11.6327C37.2297 11.578 37.1209 11.5779 37.0661 11.6324C36.9597 11.7382 36.8127 11.8037 36.6518 11.8037C36.6037 11.8037 36.5578 11.7978 36.5133 11.7868C36.4452 11.7699 36.3706 11.8156 36.3706 11.8857V13.8102C36.3706 13.8622 36.3284 13.9044 36.2764 13.9044H36.1596C36.1076 13.9044 36.0654 13.9466 36.0654 13.9986V14.3872C36.0654 14.4118 36.0748 14.4342 36.0903 14.4509H35.2399C35.1144 14.4509 35.0127 14.5719 35.0127 14.7211V16.3913C34.9405 16.4365 34.8914 16.5264 34.8914 16.6302C34.8914 16.7794 34.9931 16.9003 35.1186 16.9003H35.2399H42.2536H42.4203C42.5459 16.9003 42.6476 16.7793 42.6476 16.6302C42.6476 16.5059 42.5769 16.4015 42.4808 16.37V14.7211C42.4808 14.5719 42.3791 14.4509 42.2536 14.4509H41.3723C41.3877 14.4342 41.3971 14.4118 41.3971 14.3872V13.9986C41.3971 13.9466 41.3549 13.9044 41.3029 13.9044H41.204C41.1519 13.9044 41.1098 13.8622 41.1098 13.8102V11.8851C41.1098 11.8127 41.0302 11.7665 40.9602 11.7851C40.9147 11.7972 40.8671 11.8037 40.8166 11.8037ZM41.2841 14.4814V14.4509H41.3723C41.355 14.4697 41.3303 14.4814 41.3029 14.4814H41.2841ZM41.2841 14.4814V15.0091C41.2841 15.1583 41.1824 15.2792 41.0569 15.2792C40.9316 15.2792 40.8296 15.4004 40.8296 15.5494C40.8296 15.6987 40.7279 15.8196 40.6024 15.8196H36.891C36.7656 15.8196 36.6639 15.6987 36.6639 15.5494C36.6639 15.4004 36.5619 15.2792 36.4366 15.2792C36.3112 15.2792 36.2094 15.1583 36.2094 15.0091V14.4814H41.2841ZM36.2094 14.4814H36.1596C36.1322 14.4814 36.1075 14.4697 36.0903 14.4509H36.2094V14.4814ZM38.7399 12.2134C38.7399 12.1614 38.7821 12.1192 38.8341 12.1192H40.4231C40.4751 12.1192 40.5173 12.1614 40.5173 12.2134V12.9086C40.5173 12.9606 40.4751 13.0028 40.4231 13.0028H38.8341C38.7821 13.0028 38.7399 12.9606 38.7399 12.9086V12.2134ZM36.963 12.2134C36.963 12.1614 37.0051 12.1192 37.0572 12.1192H38.0536C38.1056 12.1192 38.1477 12.1614 38.1477 12.2134V13.5037C38.1477 13.5557 38.1056 13.5979 38.0536 13.5979H37.0572C37.0051 13.5979 36.963 13.5557 36.963 13.5037V12.2134Z" fill="#E5E5E5"/>
<defs>
<clipPath id="clip0">
<rect width="7.55637" height="7.55606" fill="white" transform="translate(6 9.07959)"/>
</clipPath>
</defs>
</svg>
