<svg width="80" height="24" viewBox="0 0 80 24" fill="none" xmlns="http://www.w3.org/2000/svg">
<path d="M34.86 17H36.302L33.992 13.08C35.168 12.66 36.022 11.526 36.022 10.238C36.022 8.558 34.65 7.2 32.97 7.2H29.05V17H30.352V13.248H32.662L34.86 17ZM30.352 8.418H32.97C33.936 8.418 34.72 9.23 34.72 10.238C34.72 11.246 33.936 12.072 32.97 12.072H30.352V8.418ZM37.9811 14.06H43.8471C43.8751 13.878 43.8891 13.696 43.8891 13.514C43.8891 11.554 42.5171 9.818 40.4031 9.818C38.2191 9.818 36.7351 11.428 36.7351 13.5C36.7351 15.6 38.2331 17.182 40.4871 17.182C41.8871 17.182 42.9511 16.552 43.5671 15.6L42.5311 15.012C42.1811 15.586 41.4811 16.034 40.5151 16.034C39.2131 16.034 38.2191 15.32 37.9811 14.06ZM40.4031 10.966C41.4531 10.966 42.4471 11.61 42.6571 12.996H37.9811C38.1771 11.778 39.0871 10.966 40.4031 10.966ZM52.8492 9.818C51.9392 9.818 51.1412 10.21 50.6512 11.008C50.2452 10.252 49.5452 9.818 48.5932 9.818C47.7392 9.818 47.0112 10.154 46.5072 10.938V10H45.2892V17H46.5072V13.108C46.5072 11.596 47.3612 10.98 48.2992 10.98C49.2092 10.98 49.7832 11.582 49.7832 12.688V17H51.0012V13.108C51.0012 11.596 51.7432 10.98 52.7232 10.98C53.6472 10.98 54.2632 11.582 54.2632 12.688V17H55.4812V12.646C55.4812 10.896 54.4032 9.818 52.8492 9.818ZM60.4601 17.182C62.5041 17.182 64.1561 15.572 64.1561 13.5C64.1561 11.428 62.5041 9.818 60.4601 9.818C58.4161 9.818 56.7781 11.428 56.7781 13.5C56.7781 15.572 58.4161 17.182 60.4601 17.182ZM60.4601 15.992C59.0741 15.992 57.9961 14.914 57.9961 13.5C57.9961 12.086 59.0741 11.008 60.4601 11.008C61.8601 11.008 62.9381 12.086 62.9381 13.5C62.9381 14.914 61.8601 15.992 60.4601 15.992ZM70.2185 10L68.0205 15.698L65.8225 10H64.5065L67.3065 17H68.7345L71.5345 10H70.2185ZM73.1452 14.06H79.0112C79.0392 13.878 79.0532 13.696 79.0532 13.514C79.0532 11.554 77.6812 9.818 75.5672 9.818C73.3832 9.818 71.8992 11.428 71.8992 13.5C71.8992 15.6 73.3972 17.182 75.6512 17.182C77.0512 17.182 78.1152 16.552 78.7312 15.6L77.6952 15.012C77.3452 15.586 76.6452 16.034 75.6792 16.034C74.3772 16.034 73.3832 15.32 73.1452 14.06ZM75.5672 10.966C76.6172 10.966 77.6112 11.61 77.8212 12.996H73.1452C73.3412 11.778 74.2512 10.966 75.5672 10.966Z" fill="#50525B"/>
<path d="M8.1 8.5H7.4V17.6C7.4 17.9713 7.5475 18.3274 7.81005 18.5899C8.0726 18.8525 8.4287 19 8.8 19H15.8C16.1713 19 16.5274 18.8525 16.7899 18.5899C17.0525 18.3274 17.2 17.9713 17.2 17.6V8.5H8.1ZM10.9 16.9H9.5V10.6H10.9V16.9ZM15.1 16.9H13.7V10.6H15.1V16.9ZM15.5326 6.4L14.4 5H10.2L9.0674 6.4H6V7.8H18.6V6.4H15.5326Z" fill="#D82C0D"/>
</svg>
