<svg width="42" height="19" viewBox="0 0 42 19" fill="none" xmlns="http://www.w3.org/2000/svg">
<path d="M5.21648 18.6C4.30982 18.6 3.59648 18.34 3.07648 17.82C2.56982 17.3 2.31648 16.5933 2.31648 15.7V11.4C2.31648 11.2933 2.28982 11.1933 2.23648 11.1C2.19648 10.9933 2.12982 10.9133 2.03648 10.86C1.95648 10.7933 1.86315 10.76 1.75648 10.76H0.796484V8.24H1.75648C1.91648 8.24 2.04982 8.18 2.15648 8.06C2.26315 7.92667 2.31648 7.77333 2.31648 7.6V3.3C2.31648 2.39333 2.56982 1.68667 3.07648 1.18C3.59648 0.659999 4.30982 0.4 5.21648 0.4H7.69648V2.92H5.65648C5.48315 2.92 5.32982 2.98 5.19648 3.1C5.07648 3.22 5.01648 3.37333 5.01648 3.56V7.46C5.01648 7.72667 4.97648 7.98667 4.89648 8.24C4.82982 8.48 4.72315 8.70667 4.57648 8.92C4.44315 9.12 4.26315 9.31333 4.03648 9.5C4.26315 9.67333 4.44315 9.86667 4.57648 10.08C4.72315 10.2933 4.82982 10.52 4.89648 10.76C4.97648 11 5.01648 11.26 5.01648 11.54V15.44C5.01648 15.6133 5.07648 15.76 5.19648 15.88C5.32982 16.0133 5.48315 16.08 5.65648 16.08H7.69648V18.6H5.21648ZM9.2518 15V5.08C9.2518 4.32 9.4318 3.63333 9.7918 3.02C10.1651 2.40667 10.6585 1.92 11.2718 1.56C11.8985 1.18667 12.5851 0.999999 13.3318 0.999999H18.3918V3.52H13.6518C13.2251 3.52 12.8585 3.67333 12.5518 3.98C12.2585 4.28667 12.1118 4.65333 12.1118 5.08V7.34H17.7118V9.86H12.1118V15H9.2518ZM32.7674 15V5.08C32.7674 4.32 32.9474 3.63333 33.3074 3.02C33.6808 2.40667 34.1741 1.92 34.7874 1.56C35.4141 1.18667 36.1008 0.999999 36.8474 0.999999H41.9074V3.52H37.1674C36.7408 3.52 36.3741 3.67333 36.0674 3.98C35.7741 4.28667 35.6274 4.65333 35.6274 5.08V7.34H41.2274V9.86H35.6274V15H32.7674Z" fill="#315393"/>
<path d="M20.4679 15V12.48H26.4679C26.7612 12.48 27.0279 12.4067 27.2679 12.26C27.5079 12.1133 27.7012 11.92 27.8479 11.68C27.9946 11.4267 28.0679 11.1533 28.0679 10.86C28.0679 10.5533 27.9946 10.28 27.8479 10.04C27.7012 9.78667 27.5079 9.58667 27.2679 9.44C27.0279 9.29333 26.7612 9.22 26.4679 9.22H24.1279C23.3412 9.22 22.6279 9.06 21.9879 8.74C21.3479 8.42 20.8346 7.96 20.4479 7.36C20.0746 6.74667 19.8879 6.01333 19.8879 5.16C19.8879 4.32 20.0679 3.59333 20.4279 2.98C20.7879 2.35333 21.2746 1.86667 21.8879 1.52C22.5012 1.17333 23.1812 0.999999 23.9279 0.999999H30.0079V3.52H24.2079C23.9412 3.52 23.6946 3.59333 23.4679 3.74C23.2412 3.87333 23.0612 4.05333 22.9279 4.28C22.8079 4.50667 22.7479 4.76 22.7479 5.04C22.7479 5.32 22.8079 5.57333 22.9279 5.8C23.0612 6.02667 23.2412 6.20667 23.4679 6.34C23.6946 6.47333 23.9412 6.54 24.2079 6.54H26.6279C27.4946 6.54 28.2479 6.70667 28.8879 7.04C29.5279 7.37333 30.0212 7.84 30.3679 8.44C30.7279 9.04 30.9079 9.74 30.9079 10.54C30.9079 11.4867 30.7212 12.2933 30.3479 12.96C29.9879 13.6267 29.4946 14.1333 28.8679 14.48C28.2546 14.8267 27.5746 15 26.8279 15H20.4679Z" fill="#19C788"/>
</svg>
